SplineFontDB: 3.0
FontName: UniversElse-Bold
FullName: Univers Else Bold 
FamilyName: Univers Else
Weight: Bold
Copyright: Pierre Huyghebaert (Typography, initiative, testing)\nPierre Marchand (Development and typography, Fonzie software)\nDelphine Platteeuw (Design and testing)\nGregoire Vigneron (Scanning and assembling)\n\nOSP: December 2010 - Version 1.0 (http://ospublish.constantvzw.org/foundry/univers-else)\n\nUnivers Else is released under the OFL 1.1 -- http://scripts.sil.org/OFL\n\nFor information on what you're allowed to change or modify, \nconsult the OFL-1.1.txt and OFL-FAQ.txt files.  The OFL-FAQ also gives a very general rationale and various recommendations regarding why you would want to contribute to the project or make your own version of the font.

StartChar: .notdef
Encoding: 65536 -1 0
Width: 500
Flags: HW
LayerCount: 2
Fore
SplineSet
50 0 m 1
 50 533 l 1
 450 533 l 1
 450 0 l 1
 50 0 l 1
100 50 m 1
 400 50 l 1
 400 483 l 1
 100 483 l 1
 100 50 l 1
EndSplineSet
Validated: 1
EndChar

StartChar: uni0021
Encoding: 33 33 2
Width: 316
GlyphClass: 2
Flags: HW
LayerCount: 2
Fore
SplineSet
117 665 m 0
 120 666 127 666 138 666 c 0
 143 666 148 666 154 666 c 0
 181 666 185 666 191 663 c 0
 196 661 198 659 201 654 c 1
 202 650 203 646 203 642 c 1
 202 639 203 633 206 626 c 0
 208 620 209 617 209 614 c 0
 209 612 208 611 208 609 c 0
 207 606 207 600 207 596 c 0
 208 592 207 587 207 585 c 0
 206 583 205 559 205 532 c 0
 204 490 203 482 201 476 c 0
 199 470 198 462 198 415 c 1
 197 385 197 360 196 359 c 0
 195 358 196 355 196 353 c 0
 197 350 198 334 198 317 c 0
 199 297 199 284 200 282 c 0
 202 279 202 277 201 274 c 0
 200 271 198 259 198 247 c 0
 197 232 196 222 194 217 c 0
 193 213 191 207 190 205 c 0
 189 203 186 199 183 196 c 0
 180 193 176 191 167 189 c 0
 155 187 154 187 143 190 c 0
 137 191 130 193 129 194 c 0
 128 195 126 199 124 203 c 0
 122 206 119 212 117 214 c 0
 114 218 112 222 112 228 c 1
 111 232 111 238 110 241 c 0
 110 244 111 249 111 252 c 0
 112 256 113 271 113 294 c 0
 113 322 112 332 110 339 c 0
 108 347 108 349 109 354 c 0
 110 357 111 366 111 374 c 0
 111 382 110 392 109 397 c 0
 107 402 107 414 106 431 c 1
 106 449 107 457 108 460 c 0
 109 462 110 466 109 471 c 0
 109 475 107 484 106 490 c 0
 105 496 104 501 104 507 c 0
 104 511 105 517 105 524 c 0
 106 535 106 547 106 551 c 0
 105 555 104 560 103 564 c 1
 101 567 101 577 101 593 c 1
 100 606 100 624 100 633 c 0
 100 645 101 652 102 655 c 0
 103 658 105 661 107 662 c 0
 109 663 113 664 117 665 c 0
121 107 m 0
 126 110 129 111 133 111 c 0
 134 111 135 111 137 111 c 0
 141 110 152 109 162 109 c 0
 172 108 183 106 187 105 c 0
 191 104 196 101 199 99 c 0
 202 98 205 96 205 95 c 0
 206 94 207 90 207 85 c 0
 207 81 207 75 208 72 c 0
 209 70 210 68 210 66 c 0
 210 64 209 60 208 56 c 0
 207 50 206 43 206 41 c 0
 206 39 206 33 205 27 c 0
 204 21 202 14 201 12 c 0
 199 9 197 6 195 5 c 0
 193 3 187 2 172 2 c 0
 162 2 151 1 148 -0 c 0
 146 -1 143 -1 141 -1 c 0
 140 -1 139 -1 138 -1 c 0
 136 -1 130 0 126 1 c 0
 122 1 118 3 116 5 c 0
 114 7 111 11 109 15 c 0
 107 19 104 26 104 29 c 0
 103 33 103 37 104 40 c 1
 104 50 103 48 103 54 c 0
 103 57 103 61 104 66 c 1
 106 71 107 78 107 83 c 0
 107 88 108 93 109 97 c 0
 111 101 115 104 121 107 c 0
EndSplineSet
Validated: 1
EndChar

StartChar: uni0022
Encoding: 34 34 3
Width: 414
GlyphClass: 2
Flags: HW
LayerCount: 2
Fore
SplineSet
273 738 m 0
 277 740 283 740 298 740 c 0
 311 740 321 739 326 737 c 0
 330 736 334 735 336 735 c 0
 338 735 341 733 343 730 c 0
 347 726 347 725 347 713 c 0
 347 704 346 698 345 694 c 1
 343 691 343 684 343 674 c 0
 343 661 342 658 339 649 c 0
 335 640 335 637 335 622 c 2
 335 588 l 1
 334 576 333 569 332 565 c 1
 330 562 329 556 329 547 c 0
 329 538 329 532 327 529 c 0
 326 527 323 524 322 523 c 2
 312 518 l 2
 308 516 304 515 299 514 c 1
 293 514 289 515 282 519 c 0
 277 521 272 525 270 528 c 0
 268 532 267 535 267 554 c 0
 267 573 266 577 263 583 c 0
 260 589 260 591 261 603 c 0
 262 613 261 618 260 623 c 0
 259 626 257 630 256 633 c 0
 255 635 254 648 252 662 c 0
 251 676 250 693 249 700 c 1
 249 708 249 714 251 718 c 0
 252 721 255 726 260 730 c 0
 263 733 269 737 273 738 c 0
82 735 m 0
 82 735 87 736 94 736 c 0
 101 736 109 735 119 735 c 0
 144 735 155 734 158 733 c 1
 160 731 163 727 165 723 c 0
 167 719 169 713 169 709 c 0
 169 706 168 702 167 701 c 0
 166 699 166 692 166 681 c 0
 166 670 165 664 164 662 c 0
 163 661 161 656 160 652 c 0
 158 647 157 641 157 637 c 0
 157 633 157 627 156 625 c 0
 155 623 154 607 154 591 c 0
 153 570 152 558 151 554 c 0
 150 550 148 545 148 541 c 1
 147 538 146 533 145 530 c 0
 143 527 140 524 137 522 c 0
 134 520 132 519 126 519 c 0
 124 519 122 519 119 519 c 0
 112 520 104 521 101 522 c 0
 98 524 94 527 91 531 c 0
 86 536 85 538 84 549 c 0
 84 556 83 566 84 572 c 0
 84 578 83 583 82 587 c 0
 80 591 79 601 79 617 c 1
 78 631 77 643 76 648 c 0
 74 654 74 659 74 667 c 0
 75 676 75 680 73 686 c 0
 71 690 70 694 69 695 c 0
 68 696 67 700 65 705 c 0
 64 710 63 716 64 718 c 1
 64 721 66 724 68 726 c 0
 70 728 73 731 75 732 c 0
 77 733 80 735 82 735 c 0
EndSplineSet
Validated: 1
EndChar

StartChar: uni0023
Encoding: 35 35 4
Width: 507
GlyphClass: 2
Flags: HW
LayerCount: 2
Fore
SplineSet
178 655 m 0
 183 657 188 658 189 658 c 0
 191 658 203 657 216 655 c 0
 229 654 242 651 244 650 c 0
 247 649 251 646 254 643 c 0
 258 638 259 637 258 631 c 0
 258 627 257 621 255 618 c 0
 253 614 251 607 250 601 c 0
 249 595 248 586 247 581 c 0
 246 575 244 563 244 553 c 0
 243 535 243 534 238 524 c 0
 233 513 233 513 234 502 c 0
 235 496 237 489 238 487 c 0
 240 485 242 483 247 483 c 1
 251 482 259 482 265 482 c 2
 294 482 l 2
 304 482 314 482 317 483 c 0
 320 483 327 487 333 491 c 0
 339 495 345 499 345 501 c 1
 346 502 347 515 348 529 c 1
 348 547 349 558 351 564 c 0
 353 570 356 580 359 587 c 0
 363 598 364 602 365 617 c 0
 365 626 366 636 367 639 c 0
 368 641 372 645 376 648 c 0
 380 652 385 654 393 656 c 0
 402 658 404 658 409 656 c 0
 412 655 417 654 420 654 c 0
 423 654 428 655 431 656 c 0
 435 657 440 658 443 658 c 0
 446 658 451 657 456 654 c 0
 460 652 465 648 466 646 c 0
 467 644 468 640 469 636 c 0
 470 631 469 628 466 621 c 0
 464 616 462 608 461 603 c 0
 460 598 459 588 458 580 c 0
 457 572 455 559 453 552 c 0
 451 545 448 532 447 524 c 1
 445 517 444 507 445 504 c 1
 445 500 447 494 449 490 c 0
 451 486 453 483 456 482 c 0
 458 481 463 480 467 479 c 0
 473 478 474 478 479 480 c 0
 483 482 488 483 496 483 c 0
 506 483 506 482 511 478 c 0
 514 475 517 470 519 467 c 1
 520 463 521 453 521 440 c 0
 521 434 522 429 522 426 c 0
 522 420 521 418 519 415 c 0
 518 412 515 407 513 405 c 0
 511 403 506 400 503 398 c 0
 499 396 492 395 488 395 c 0
 483 395 471 395 461 396 c 0
 448 397 440 397 436 396 c 0
 432 394 429 392 425 386 c 0
 422 382 418 375 417 372 c 0
 416 368 414 363 413 361 c 0
 411 358 411 356 412 350 c 0
 413 345 413 341 411 335 c 0
 410 331 409 323 409 317 c 0
 409 312 409 307 408 306 c 0
 407 306 406 303 405 299 c 0
 404 296 404 291 404 288 c 1
 405 286 408 280 413 276 c 1
 417 271 422 267 424 266 c 0
 427 265 436 264 445 264 c 0
 458 264 463 264 466 262 c 0
 468 261 471 258 472 255 c 1
 474 253 475 247 476 243 c 1
 476 238 478 232 480 228 c 0
 482 225 484 218 485 213 c 0
 486 206 486 204 484 199 c 1
 482 197 481 194 481 193 c 0
 481 192 479 190 477 187 c 0
 475 185 470 182 467 180 c 1
 463 179 457 177 453 176 c 0
 449 175 444 175 441 175 c 0
 437 176 432 178 429 179 c 0
 424 181 420 182 417 182 c 1
 415 181 409 180 403 179 c 0
 395 178 393 177 388 172 c 0
 385 169 383 164 382 161 c 0
 382 159 381 155 380 153 c 0
 379 152 376 146 374 140 c 1
 371 135 369 128 370 126 c 1
 370 114 l 2
 370 110 369 98 368 88 c 0
 367 73 366 67 362 57 c 0
 360 50 358 42 358 40 c 0
 358 37 356 31 354 27 c 0
 352 23 349 18 347 17 c 0
 345 16 340 14 337 13 c 0
 333 12 329 11 329 10 c 0
 329 9 323 9 317 9 c 0
 310 9 305 9 302 11 c 0
 298 13 293 14 283 14 c 0
 273 14 269 14 266 17 c 0
 264 18 260 23 258 28 c 0
 256 32 254 38 254 41 c 1
 253 43 254 46 255 47 c 0
 255 48 256 51 257 53 c 0
 258 55 259 62 259 69 c 0
 260 78 262 83 265 90 c 1
 268 94 270 99 270 100 c 0
 270 101 271 104 272 108 c 1
 274 111 276 117 277 122 c 0
 278 126 278 134 278 140 c 0
 278 145 279 151 280 155 c 0
 282 159 282 162 281 165 c 0
 280 167 277 171 274 173 c 0
 271 176 267 178 260 178 c 1
 255 179 239 179 224 179 c 0
 202 179 196 179 191 176 c 0
 188 175 183 173 181 173 c 0
 178 172 176 170 174 166 c 0
 173 162 171 156 170 151 c 0
 170 147 168 140 166 136 c 0
 165 132 163 125 162 121 c 0
 162 117 160 110 159 106 c 0
 157 101 156 95 156 91 c 0
 156 87 155 81 154 78 c 0
 153 75 151 65 151 56 c 0
 150 46 149 36 148 33 c 0
 147 31 145 26 143 23 c 0
 140 20 136 17 134 15 c 1
 131 14 126 13 122 12 c 0
 119 12 106 12 94 14 c 1
 81 15 68 16 65 15 c 0
 59 14 58 15 52 20 c 0
 47 25 46 28 45 32 c 0
 45 35 45 41 46 46 c 0
 47 50 49 54 49 55 c 0
 50 56 52 61 53 67 c 0
 55 74 57 81 58 84 c 0
 59 88 59 97 59 107 c 0
 58 123 58 124 62 132 c 0
 64 136 66 142 67 144 c 0
 68 146 69 153 69 159 c 0
 69 170 68 171 65 175 c 1
 61 178 61 178 36 178 c 0
 15 178 11 179 6 181 c 1
 4 183 -1 186 -3 188 c 0
 -8 191 -8 191 -8 207 c 0
 -8 216 -8 223 -6 225 c 1
 -6 227 -5 234 -5 240 c 0
 -4 247 -4 254 -2 256 c 0
 -1 258 1 261 4 262 c 0
 7 264 12 264 37 264 c 0
 54 264 70 265 73 266 c 0
 77 267 82 270 86 274 c 0
 90 279 92 282 95 291 c 0
 96 297 99 307 101 313 c 0
 102 319 104 327 104 331 c 0
 104 335 105 343 107 349 c 0
 108 355 110 362 111 365 c 0
 112 370 112 373 110 377 c 0
 109 379 107 384 105 388 c 0
 103 391 100 394 97 395 c 0
 95 396 89 397 85 397 c 0
 80 397 72 396 66 395 c 0
 57 394 55 394 49 397 c 0
 46 399 41 402 39 404 c 0
 35 407 35 407 35 437 c 0
 35 459 35 468 37 471 c 0
 38 474 41 477 43 479 c 0
 47 483 48 483 64 484 c 0
 73 484 87 483 94 483 c 0
 104 482 110 482 115 484 c 0
 118 485 124 488 127 491 c 0
 131 494 133 498 134 503 c 0
 135 506 136 513 136 518 c 0
 136 523 137 530 139 535 c 0
 140 539 142 545 142 548 c 0
 142 550 143 554 143 556 c 0
 144 558 145 566 146 575 c 1
 146 585 147 594 148 598 c 0
 149 602 152 611 154 618 c 0
 156 625 158 633 158 635 c 0
 158 637 159 641 160 644 c 0
 161 646 164 649 166 650 c 0
 167 651 173 653 178 655 c 0
309 397 m 0
 306 399 302 400 292 400 c 1
 285 399 274 398 268 397 c 0
 262 396 253 394 247 394 c 1
 239 392 236 392 232 394 c 0
 228 395 224 395 222 395 c 0
 220 394 217 391 214 388 c 1
 211 383 210 380 209 369 c 0
 209 362 207 353 206 350 c 0
 204 346 202 336 200 327 c 0
 199 318 196 308 195 303 c 1
 193 299 192 294 192 291 c 0
 192 289 194 283 196 278 c 0
 200 270 202 268 206 266 c 0
 210 265 215 265 229 265 c 0
 235 265 242 265 251 265 c 0
 288 265 290 265 294 269 c 0
 297 271 300 275 302 280 c 0
 304 284 305 291 305 294 c 0
 305 297 306 304 308 308 c 1
 309 313 311 322 311 329 c 1
 312 335 313 342 314 345 c 0
 316 348 317 355 318 360 c 0
 319 366 320 374 322 378 c 0
 323 381 323 382 323 383 c 0
 323 384 323 386 321 388 c 0
 320 390 317 392 316 393 c 0
 314 394 311 396 309 397 c 0
EndSplineSet
Validated: 1
EndChar

StartChar: uni0024
Encoding: 36 36 5
Width: 500
GlyphClass: 2
Flags: HW
LayerCount: 2
Fore
SplineSet
241 704 m 0
 245 707 248 708 252 708 c 0
 257 708 259 707 262 704 c 0
 264 702 268 695 269 690 c 0
 272 682 273 676 273 665 c 0
 273 657 274 647 275 643 c 0
 276 638 278 635 281 633 c 0
 284 630 286 630 297 630 c 0
 307 630 310 630 315 628 c 0
 318 626 325 624 330 624 c 0
 335 623 340 622 341 622 c 0
 342 621 349 619 356 617 c 0
 363 615 371 613 372 613 c 0
 373 613 376 611 379 610 c 2
 394 600 l 2
 399 597 406 592 409 590 c 0
 413 587 421 579 428 571 c 0
 435 564 441 556 441 554 c 0
 442 551 444 546 446 542 c 0
 448 539 452 531 454 524 c 0
 456 518 458 512 458 511 c 0
 458 510 460 506 463 502 c 0
 466 498 468 494 468 492 c 0
 468 490 467 487 465 484 c 0
 464 481 461 477 459 474 c 0
 457 472 453 470 450 469 c 0
 448 468 442 467 437 467 c 1
 433 466 426 465 423 464 c 0
 419 462 413 461 408 461 c 0
 403 461 399 462 398 463 c 2
 398 463 394 465 390 466 c 0
 386 467 381 469 379 470 c 0
 377 471 373 472 370 473 c 0
 368 473 364 475 362 477 c 0
 360 480 357 486 355 492 c 0
 353 498 351 504 349 506 c 0
 348 508 345 514 343 519 c 0
 340 525 336 531 332 535 c 0
 326 541 324 542 317 543 c 0
 313 543 308 544 304 545 c 0
 301 546 296 547 293 548 c 0
 290 549 286 549 283 548 c 0
 281 547 277 544 275 541 c 0
 273 538 270 532 269 527 c 0
 268 522 266 515 265 511 c 0
 265 507 264 500 264 496 c 0
 264 492 265 485 266 482 c 0
 268 477 268 472 268 464 c 1
 267 458 266 446 265 438 c 0
 263 427 263 417 263 406 c 1
 264 396 264 387 265 384 c 0
 265 382 267 377 269 374 c 0
 271 369 274 367 280 364 c 0
 285 362 293 360 298 359 c 1
 305 359 312 357 318 354 c 0
 324 351 334 346 342 343 c 0
 352 338 358 336 364 335 c 0
 368 335 374 334 377 333 c 1
 379 331 382 330 382 329 c 1
 383 329 388 326 393 324 c 0
 399 322 404 319 406 317 c 0
 407 315 413 311 419 308 c 1
 427 302 429 300 432 292 c 0
 434 287 437 281 440 278 c 0
 443 275 447 271 448 268 c 1
 450 266 453 258 456 251 c 1
 458 243 461 236 463 234 c 0
 464 232 465 227 466 224 c 0
 467 221 467 216 468 213 c 0
 468 210 469 199 470 188 c 0
 470 181 471 176 471 171 c 0
 471 166 470 161 470 157 c 0
 469 151 467 145 467 143 c 1
 466 142 463 134 459 126 c 0
 455 119 452 110 451 106 c 0
 450 103 448 98 446 96 c 0
 444 94 440 88 438 84 c 0
 435 80 424 68 413 57 c 0
 402 46 391 37 390 37 c 0
 389 37 383 35 378 34 c 0
 372 32 367 29 363 25 c 0
 359 22 355 19 353 19 c 0
 351 18 345 17 339 15 c 0
 333 13 325 11 321 9 c 0
 316 6 312 6 300 6 c 0
 293 6 284 5 282 5 c 0
 279 4 275 2 272 -1 c 0
 269 -3 265 -10 262 -16 c 0
 258 -25 258 -26 259 -36 c 0
 260 -41 260 -47 259 -48 c 1
 259 -50 258 -56 258 -63 c 0
 258 -70 257 -77 256 -81 c 0
 254 -85 252 -88 249 -89 c 0
 247 -90 243 -91 241 -91 c 0
 239 -91 235 -90 233 -88 c 0
 232 -87 229 -83 227 -79 c 0
 225 -75 224 -69 224 -64 c 0
 224 -59 225 -53 226 -50 c 0
 227 -47 227 -37 228 -27 c 1
 228 -9 228 -9 224 -5 c 0
 221 -2 217 0 215 1 c 0
 213 2 209 2 205 1 c 0
 202 0 199 -1 198 -2 c 0
 198 -3 196 -3 194 -3 c 0
 192 -3 189 -2 188 -2 c 0
 186 -1 181 1 175 3 c 1
 170 6 161 8 155 8 c 1
 150 9 144 9 142 10 c 0
 140 10 136 13 132 17 c 0
 128 20 121 25 117 26 c 0
 112 28 107 31 106 32 c 0
 104 34 99 36 95 37 c 0
 89 38 85 40 81 44 c 0
 78 48 76 51 76 52 c 0
 76 53 70 59 64 65 c 0
 54 74 50 79 46 88 c 0
 43 94 40 102 39 106 c 0
 38 110 37 114 36 115 c 0
 35 116 32 123 28 130 c 0
 23 139 22 142 22 146 c 0
 22 152 23 162 24 167 c 0
 25 172 26 177 27 179 c 0
 28 181 31 184 32 185 c 0
 34 187 36 188 44 188 c 0
 49 188 55 187 65 187 c 0
 76 187 88 187 96 187 c 0
 100 187 103 187 105 187 c 0
 112 187 118 186 120 185 c 0
 122 184 124 182 125 181 c 0
 126 180 129 176 130 172 c 1
 132 169 133 162 134 158 c 0
 135 153 138 143 141 135 c 0
 144 127 146 120 146 119 c 0
 146 118 153 112 161 104 c 0
 169 97 178 89 182 87 c 0
 187 84 190 84 200 84 c 0
 208 84 214 84 217 86 c 0
 219 87 221 90 222 92 c 0
 223 94 224 97 224 100 c 0
 224 102 225 107 227 111 c 0
 229 117 229 123 229 159 c 0
 229 195 229 200 227 205 c 1
 224 209 224 212 225 221 c 0
 225 228 226 236 227 241 c 0
 228 246 228 251 227 254 c 0
 226 257 224 261 223 262 c 0
 222 264 219 267 215 268 c 1
 212 270 202 273 194 275 c 0
 186 277 178 279 176 280 c 0
 175 281 168 284 161 286 c 0
 154 289 146 292 143 294 c 2
 133 299 l 2
 132 300 129 302 128 303 c 0
 126 304 122 307 117 309 c 0
 113 310 109 313 107 315 c 0
 106 316 101 319 96 321 c 0
 92 323 86 327 83 330 c 0
 80 333 75 339 72 343 c 0
 69 347 65 352 62 355 c 0
 60 357 56 364 53 369 c 0
 51 374 47 382 46 386 c 0
 45 390 44 394 43 395 c 2
 43 395 42 398 42 400 c 0
 42 403 41 410 39 417 c 0
 37 426 36 435 36 449 c 0
 36 460 37 470 38 473 c 0
 38 475 40 482 41 489 c 0
 42 501 43 503 49 512 c 0
 52 517 56 524 57 527 c 0
 59 530 60 534 61 536 c 0
 62 538 66 543 69 548 c 0
 72 552 76 559 79 565 c 0
 81 570 86 576 88 579 c 1
 91 581 96 585 101 587 c 1
 105 590 110 592 111 593 c 0
 112 594 118 597 123 600 c 0
 128 603 134 607 137 608 c 1
 139 610 144 612 146 612 c 0
 149 613 153 614 156 616 c 0
 158 617 163 619 166 621 c 1
 170 622 175 623 179 624 c 0
 182 624 187 626 190 627 c 0
 193 628 199 629 203 629 c 0
 207 629 213 630 215 631 c 0
 217 631 221 634 223 635 c 1
 224 637 227 641 228 643 c 0
 230 647 231 651 230 667 c 1
 230 684 231 688 233 693 c 0
 234 697 238 702 241 704 c 0
226 546 m 0
 223 547 218 548 210 548 c 0
 200 548 197 548 191 544 c 0
 187 542 181 538 179 536 c 2
 166 523 l 2
 162 519 158 515 157 513 c 1
 155 512 153 508 152 505 c 2
 148 493 l 2
 146 489 146 480 146 468 c 0
 146 451 146 448 150 435 c 0
 153 427 156 418 158 415 c 0
 159 412 164 406 167 403 c 0
 172 398 177 396 186 392 c 1
 195 390 202 388 207 388 c 0
 212 388 218 389 222 390 c 0
 225 390 230 393 231 394 c 0
 234 397 234 400 235 420 c 0
 235 427 236 432 236 436 c 0
 236 443 235 446 233 451 c 0
 230 460 229 463 231 474 c 1
 231 481 232 492 232 497 c 0
 232 503 233 510 234 514 c 0
 236 520 236 525 236 531 c 1
 235 536 234 540 233 541 c 0
 232 543 229 545 226 546 c 0
292 254 m 0
 290 255 286 256 282 256 c 0
 278 256 275 255 273 253 c 0
 271 252 269 246 267 241 c 0
 265 236 264 227 263 221 c 0
 263 215 263 207 264 201 c 0
 266 194 266 191 265 188 c 0
 264 186 264 177 264 168 c 2
 264 145 l 2
 264 142 264 133 263 127 c 0
 263 124 263 122 263 120 c 0
 263 115 264 111 265 105 c 0
 267 99 268 93 269 90 c 0
 270 87 271 85 272 84 c 0
 274 83 278 82 281 82 c 0
 282 82 283 82 284 82 c 0
 287 82 292 83 297 84 c 0
 303 86 310 89 314 90 c 0
 319 91 323 94 332 103 c 0
 339 111 345 118 348 124 c 0
 352 132 352 134 353 157 c 0
 353 180 353 182 350 196 c 0
 347 208 345 212 339 220 c 0
 335 225 330 230 327 233 c 0
 325 235 320 237 316 237 c 0
 312 238 309 240 303 246 c 0
 299 250 294 254 292 254 c 0
EndSplineSet
Validated: 1
EndChar

StartChar: uni0025
Encoding: 37 37 6
Width: 816
GlyphClass: 2
Flags: HW
LayerCount: 2
Fore
SplineSet
560 701 m 0
 564 703 570 705 573 705 c 0
 577 705 579 704 584 699 c 0
 588 695 591 691 591 689 c 0
 591 687 588 681 585 674 c 2
 576 652 l 1
 575 646 572 640 571 637 c 0
 569 634 567 630 566 629 c 0
 565 628 564 626 563 623 c 0
 563 621 561 615 558 608 c 0
 556 602 552 595 550 593 c 0
 549 591 545 585 543 580 c 0
 541 575 538 569 536 567 c 0
 535 566 534 563 534 561 c 0
 534 559 533 556 531 554 c 0
 530 552 528 548 527 545 c 0
 525 541 522 534 520 529 c 0
 517 524 515 519 514 518 c 0
 513 517 507 505 500 492 c 0
 493 479 487 463 485 458 c 0
 483 452 479 445 477 441 c 0
 474 437 470 430 467 425 c 1
 465 419 462 414 462 413 c 0
 461 412 459 408 457 404 c 0
 455 401 452 397 452 395 c 0
 451 393 450 389 448 386 c 0
 447 383 445 377 445 373 c 0
 444 369 442 364 439 361 c 0
 437 358 434 352 432 348 c 0
 431 344 427 337 424 333 c 0
 421 329 417 322 415 317 c 0
 412 312 410 305 409 302 c 0
 409 299 407 295 406 293 c 0
 405 290 401 286 398 282 c 0
 395 278 392 274 392 271 c 1
 391 269 389 264 387 262 c 0
 385 259 381 254 380 251 c 2
 375 241 l 2
 374 239 371 234 369 229 c 1
 366 225 363 218 362 214 c 0
 361 210 359 203 357 198 c 0
 356 194 353 188 350 185 c 2
 343 175 l 2
 342 172 340 166 339 160 c 0
 337 154 336 148 335 146 c 0
 334 145 332 142 331 141 c 0
 330 140 326 133 323 125 c 0
 319 117 315 110 314 109 c 1
 314 107 312 104 311 101 c 0
 310 98 307 94 304 91 c 1
 302 87 298 80 295 74 c 1
 293 67 289 57 286 51 c 0
 283 45 280 39 279 38 c 0
 278 37 277 34 276 31 c 0
 275 29 273 26 272 26 c 0
 271 25 270 23 270 20 c 1
 269 18 267 13 264 10 c 0
 261 6 257 1 255 -3 c 0
 253 -7 249 -11 246 -12 c 1
 244 -14 240 -15 237 -15 c 0
 235 -15 229 -14 225 -12 c 0
 218 -10 217 -9 215 -4 c 0
 214 -1 213 5 214 8 c 1
 214 12 216 17 218 20 c 0
 220 23 222 28 223 31 c 0
 223 34 227 40 231 45 c 0
 235 50 243 65 249 77 c 0
 255 89 262 103 264 108 c 0
 266 113 269 119 270 123 c 1
 272 126 275 133 278 138 c 0
 280 143 283 149 284 151 c 0
 285 152 287 155 288 157 c 0
 290 159 291 162 292 165 c 0
 292 167 295 172 298 176 c 0
 301 180 303 186 304 190 c 0
 305 193 306 198 308 200 c 0
 309 202 310 204 310 205 c 0
 310 206 311 210 313 214 c 0
 315 217 317 221 318 221 c 0
 319 222 320 224 321 227 c 1
 323 229 325 235 328 238 c 1
 330 242 333 249 334 252 c 0
 335 256 338 262 340 266 c 0
 343 270 345 274 345 274 c 2
 345 275 346 277 347 278 c 0
 349 279 350 283 351 287 c 0
 352 291 358 303 363 314 c 0
 369 326 373 336 373 336 c 2
 373 337 376 341 379 345 c 0
 383 350 386 355 387 358 c 0
 388 361 389 365 390 367 c 0
 390 368 394 377 398 385 c 0
 402 393 407 403 410 406 c 1
 412 410 415 414 416 417 c 1
 418 419 419 423 420 426 c 0
 421 429 423 435 424 440 c 0
 426 445 430 453 433 458 c 0
 436 464 441 473 443 479 c 0
 445 484 449 491 451 494 c 0
 454 497 456 501 457 503 c 0
 458 505 459 509 459 511 c 0
 459 514 459 517 460 519 c 0
 461 521 464 525 467 529 c 0
 470 532 475 542 479 551 c 0
 482 559 486 569 487 571 c 2
 493 583 l 2
 496 587 498 591 498 592 c 2
 503 599 l 2
 506 602 511 610 514 617 c 0
 517 624 522 637 525 647 c 0
 529 658 532 665 536 669 c 0
 538 672 541 677 542 680 c 0
 543 683 545 688 548 691 c 0
 550 694 555 698 560 701 c 0
173 699 m 0
 175 700 179 700 187 700 c 0
 190 700 194 700 200 700 c 0
 213 700 225 698 227 697 c 0
 230 696 235 695 239 694 c 0
 243 694 251 692 256 690 c 1
 262 689 271 685 276 683 c 0
 281 680 290 674 296 669 c 0
 303 664 309 659 311 657 c 0
 313 656 315 651 316 648 c 0
 317 644 320 637 323 632 c 0
 327 625 328 622 328 614 c 0
 328 609 328 604 329 603 c 0
 330 601 331 596 332 592 c 0
 333 588 335 583 336 581 c 0
 337 578 337 568 337 543 c 0
 337 519 336 505 335 496 c 1
 333 489 331 476 330 469 c 0
 329 461 328 452 327 449 c 0
 327 446 325 441 323 438 c 0
 322 435 317 429 313 423 c 1
 308 418 303 410 301 407 c 0
 298 404 296 401 295 401 c 0
 294 401 289 397 284 392 c 0
 278 387 272 382 269 380 c 0
 266 379 260 376 255 374 c 0
 250 372 241 368 234 366 c 0
 223 362 221 361 194 361 c 0
 169 361 165 362 156 365 c 0
 151 366 146 368 145 369 c 0
 144 370 136 372 127 374 c 0
 110 379 110 379 100 389 c 0
 94 394 87 400 85 401 c 0
 83 402 80 405 79 406 c 0
 78 408 76 411 76 414 c 1
 75 416 73 420 71 423 c 0
 69 426 66 432 65 436 c 0
 63 440 60 447 58 451 c 0
 54 458 54 462 53 478 c 0
 52 491 51 498 49 504 c 0
 46 510 46 514 46 540 c 0
 46 565 47 570 49 574 c 0
 51 577 52 584 53 589 c 0
 54 594 55 602 56 605 c 0
 58 608 60 613 62 617 c 0
 63 620 65 623 66 625 c 0
 67 626 69 631 71 635 c 0
 73 640 75 644 75 645 c 0
 75 646 81 653 89 662 c 0
 97 670 108 679 114 683 c 0
 122 688 127 690 135 692 c 0
 141 693 151 694 157 695 c 0
 163 696 170 697 173 699 c 0
217 640 m 0
 212 641 204 643 200 643 c 0
 195 643 189 643 185 642 c 0
 181 642 174 640 170 639 c 0
 166 637 160 635 158 633 c 0
 155 631 152 628 151 625 c 0
 150 623 147 618 145 614 c 0
 142 610 138 602 135 597 c 0
 131 588 131 588 132 572 c 0
 133 558 132 555 130 548 c 0
 128 544 128 543 128 541 c 0
 128 539 128 537 130 534 c 0
 131 530 132 520 133 511 c 0
 134 502 133 495 133 493 c 0
 132 491 131 485 132 476 c 0
 133 465 134 460 137 454 c 0
 140 450 144 443 148 439 c 0
 151 435 155 430 156 429 c 0
 157 428 161 425 165 422 c 0
 171 418 172 418 187 418 c 0
 199 418 205 419 215 422 c 0
 226 426 228 427 233 432 c 1
 235 436 239 442 242 447 c 0
 244 452 246 460 247 465 c 0
 248 471 249 479 251 483 c 0
 252 487 253 495 253 500 c 0
 253 506 254 513 254 517 c 1
 256 522 256 526 254 536 c 0
 253 542 252 557 252 568 c 0
 251 585 251 589 245 606 c 0
 240 623 238 626 233 631 c 0
 228 636 224 638 217 640 c 0
589 332 m 0
 592 334 594 335 604 335 c 0
 609 335 618 334 629 334 c 0
 658 334 665 334 671 332 c 0
 675 330 681 328 684 327 c 0
 686 327 693 324 698 322 c 0
 703 320 710 316 714 314 c 0
 718 311 726 304 733 297 c 0
 742 288 746 283 750 274 c 0
 753 268 756 262 756 261 c 0
 756 260 757 256 759 252 c 0
 761 248 765 238 768 231 c 0
 770 223 771 220 771 217 c 0
 771 215 771 213 770 210 c 0
 769 206 768 200 768 196 c 0
 768 192 769 185 769 181 c 0
 769 176 769 158 768 141 c 1
 768 116 767 107 765 101 c 0
 764 97 761 90 759 86 c 0
 757 82 753 75 751 70 c 0
 749 66 746 60 745 56 c 0
 744 53 743 49 742 47 c 0
 741 45 737 40 734 36 c 0
 730 32 726 29 725 29 c 0
 724 29 723 28 722 27 c 0
 721 26 719 25 717 24 c 0
 715 24 710 21 706 19 c 0
 702 17 697 14 695 12 c 1
 692 11 685 9 678 8 c 0
 668 6 664 5 655 -0 c 0
 646 -6 644 -6 632 -7 c 0
 630 -7 628 -7 625 -7 c 0
 618 -7 610 -6 603 -5 c 0
 595 -4 584 -2 578 -1 c 1
 573 1 567 3 566 4 c 0
 565 5 560 8 555 10 c 0
 550 13 545 16 544 17 c 0
 542 18 540 19 538 21 c 0
 537 22 533 25 529 27 c 0
 526 29 521 32 520 35 c 1
 518 37 512 48 507 59 c 0
 501 71 495 84 492 89 c 0
 490 94 487 101 486 104 c 1
 486 108 484 112 484 112 c 2
 483 113 482 119 482 126 c 1
 481 132 480 140 479 142 c 0
 477 145 476 151 476 159 c 0
 476 168 477 175 479 181 c 0
 481 186 482 192 482 196 c 0
 482 200 483 207 485 213 c 0
 487 219 489 226 490 229 c 0
 492 232 493 240 494 247 c 0
 495 258 495 261 499 266 c 0
 502 270 505 275 506 278 c 0
 508 281 515 289 521 295 c 0
 528 301 535 307 538 308 c 0
 540 309 544 313 547 316 c 0
 552 321 556 323 565 325 c 0
 572 327 579 329 580 329 c 0
 582 329 585 330 589 332 c 0
644 274 m 0
 638 277 633 278 625 279 c 0
 620 279 613 279 611 278 c 0
 609 277 602 273 594 268 c 1
 587 262 578 256 576 253 c 0
 573 249 570 244 569 241 c 0
 568 238 567 230 567 223 c 0
 567 217 567 210 566 209 c 0
 565 207 564 199 563 190 c 0
 562 181 561 173 560 172 c 0
 559 171 558 165 558 162 c 0
 558 160 558 158 559 156 c 0
 560 153 561 145 562 131 c 0
 562 120 564 108 565 104 c 0
 566 101 568 94 568 91 c 0
 569 85 570 82 577 75 c 0
 582 71 589 65 593 62 c 0
 597 60 602 57 605 55 c 0
 608 53 613 53 624 53 c 0
 632 53 641 53 644 54 c 0
 648 55 653 58 656 60 c 0
 660 62 664 67 667 73 c 0
 669 77 673 85 676 90 c 0
 678 94 681 100 681 104 c 1
 682 107 683 113 685 117 c 0
 687 124 687 126 685 133 c 0
 683 139 683 142 685 146 c 0
 686 148 687 159 688 169 c 0
 689 175 690 194 690 197 c 0
 690 201 689 206 685 217 c 0
 681 227 678 235 677 236 c 0
 676 237 675 242 674 246 c 0
 674 250 672 255 671 257 c 0
 669 259 665 263 661 265 c 1
 658 268 654 270 654 270 c 2
 653 270 649 272 644 274 c 0
EndSplineSet
Validated: 1
EndChar

StartChar: uni0026
Encoding: 38 38 7
Width: 673
GlyphClass: 2
Flags: HW
LayerCount: 2
Fore
SplineSet
254 689 m 0
 258 690 267 690 274 691 c 1
 283 691 291 690 301 687 c 0
 309 685 319 683 323 683 c 0
 327 683 333 682 337 680 c 0
 342 678 348 677 361 676 c 0
 373 676 379 675 382 673 c 0
 385 671 388 670 388 669 c 0
 388 668 391 666 393 665 c 0
 396 664 399 662 402 661 c 0
 404 660 410 655 416 650 c 0
 421 646 428 639 431 635 c 0
 434 630 440 623 445 619 c 0
 450 614 454 609 454 609 c 2
 454 608 455 605 456 602 c 0
 458 599 459 595 459 593 c 0
 459 592 461 586 462 580 c 0
 464 574 466 566 468 562 c 0
 469 558 470 550 471 545 c 1
 471 537 471 534 468 529 c 0
 467 526 465 520 464 515 c 0
 464 510 462 506 459 501 c 1
 456 498 453 493 453 490 c 1
 452 488 451 483 449 480 c 2
 445 468 l 2
 443 463 438 457 422 440 c 0
 403 421 401 418 388 412 c 0
 381 408 372 402 368 399 c 0
 364 395 359 391 356 390 c 0
 352 388 348 385 347 384 c 0
 345 383 343 379 342 376 c 0
 341 373 341 370 341 368 c 0
 342 366 345 361 349 355 c 0
 352 350 359 342 364 338 c 0
 368 334 373 331 373 331 c 2
 374 331 376 329 379 327 c 0
 381 325 385 323 386 321 c 0
 388 319 391 315 394 310 c 0
 397 306 404 298 410 293 c 1
 415 287 422 281 425 278 c 2
 448 254 l 2
 463 238 467 235 472 234 c 0
 476 233 481 232 484 232 c 0
 489 232 491 232 494 235 c 0
 496 237 499 241 500 243 c 0
 501 245 503 252 504 257 c 0
 505 263 507 271 509 275 c 0
 511 279 513 286 514 290 c 1
 514 295 516 302 517 305 c 0
 519 311 518 312 516 318 c 0
 514 325 514 325 516 330 c 0
 518 335 519 342 519 367 c 1
 520 391 520 400 522 404 c 0
 523 406 526 410 529 411 c 1
 533 414 536 414 546 414 c 0
 552 414 559 415 562 416 c 0
 565 417 571 417 575 417 c 0
 579 417 586 416 590 415 c 0
 594 414 602 413 609 412 c 0
 616 411 623 409 628 407 c 0
 633 404 636 402 638 397 c 0
 641 392 642 388 642 379 c 0
 642 371 641 367 638 363 c 0
 635 358 635 355 635 339 c 1
 634 325 633 320 631 315 c 0
 630 311 628 307 628 304 c 0
 628 302 627 297 626 294 c 0
 625 291 623 286 623 282 c 0
 622 277 620 269 619 262 c 0
 618 256 616 248 614 245 c 0
 613 243 611 237 611 233 c 0
 610 226 610 224 603 216 c 0
 597 210 595 206 594 201 c 0
 593 197 591 193 586 187 c 0
 580 181 577 176 573 166 c 0
 570 158 568 150 567 148 c 0
 567 146 568 141 569 137 c 0
 572 131 577 125 594 108 c 0
 606 96 618 81 622 76 c 0
 627 69 631 64 640 58 c 0
 646 53 654 46 658 43 c 1
 661 39 666 34 667 32 c 0
 668 30 670 26 670 24 c 0
 670 21 668 18 665 15 c 0
 662 12 657 8 653 6 c 0
 649 4 644 3 641 3 c 0
 638 3 634 4 632 4 c 1
 631 5 626 7 621 8 c 0
 617 9 608 10 601 10 c 0
 595 10 581 10 572 9 c 0
 556 8 553 9 546 11 c 0
 541 13 535 16 533 17 c 0
 531 19 528 21 527 23 c 1
 525 24 522 29 520 32 c 0
 518 36 512 43 507 48 c 0
 502 53 496 59 493 60 c 0
 490 62 485 64 482 65 c 0
 476 66 476 66 468 61 c 0
 464 58 458 53 455 50 c 0
 451 47 446 44 443 43 c 0
 440 42 435 39 431 38 c 1
 428 36 422 32 418 30 c 1
 415 27 409 24 406 23 c 0
 402 22 396 19 391 17 c 0
 387 15 382 13 382 13 c 2
 381 13 369 10 356 5 c 0
 343 1 329 -3 325 -4 c 0
 321 -5 311 -6 302 -6 c 0
 293 -6 285 -7 282 -8 c 0
 277 -10 273 -10 258 -10 c 1
 246 -9 238 -8 234 -6 c 0
 231 -5 222 -4 201 -3 c 0
 181 -2 172 -1 168 0 c 1
 165 2 159 5 156 7 c 0
 152 10 147 13 144 14 c 0
 141 16 136 18 132 19 c 0
 129 20 124 22 121 23 c 0
 118 24 113 26 110 28 c 0
 107 30 103 32 102 33 c 0
 101 34 98 35 96 37 c 0
 94 38 89 42 86 45 c 0
 82 49 71 61 61 72 c 0
 43 90 41 92 35 105 c 0
 30 117 29 121 29 129 c 0
 29 136 28 140 24 147 c 0
 20 156 20 156 20 181 c 0
 20 195 21 212 21 219 c 0
 22 226 23 235 24 239 c 0
 25 243 29 253 33 261 c 0
 37 269 41 279 43 282 c 1
 44 286 50 293 60 303 c 0
 70 314 76 321 79 327 c 0
 82 334 87 340 102 354 c 0
 118 370 122 373 129 376 c 0
 134 378 140 381 142 383 c 0
 145 385 148 389 150 391 c 0
 151 393 152 396 151 400 c 0
 151 403 149 407 148 410 c 0
 147 412 144 418 140 422 c 0
 137 426 131 432 127 435 c 0
 123 437 118 442 116 445 c 0
 114 449 112 452 112 452 c 2
 112 453 111 455 110 456 c 0
 108 458 105 463 101 468 c 0
 98 473 94 479 93 481 c 0
 91 484 89 490 87 495 c 0
 85 500 82 509 81 514 c 1
 78 521 78 526 78 541 c 0
 78 557 79 561 83 572 c 0
 86 580 89 588 91 591 c 0
 94 595 95 599 96 605 c 0
 97 613 97 614 113 631 c 0
 122 640 131 649 133 650 c 0
 135 651 142 655 148 659 c 0
 155 663 163 667 165 668 c 0
 168 669 175 670 180 671 c 0
 186 672 192 674 199 677 c 0
 206 681 211 682 220 683 c 0
 227 683 235 685 239 686 c 0
 243 687 250 689 254 689 c 0
293 612 m 0
 287 613 276 614 268 614 c 0
 257 614 252 613 243 611 c 0
 237 609 232 607 230 607 c 0
 229 607 225 605 222 603 c 0
 218 601 214 597 212 595 c 0
 210 593 207 589 206 586 c 0
 206 583 205 579 205 577 c 0
 205 574 203 568 201 563 c 0
 198 554 198 553 199 539 c 0
 200 531 201 523 202 521 c 0
 203 519 207 513 210 507 c 0
 213 501 217 494 218 492 c 0
 219 490 224 484 227 478 c 1
 231 473 235 467 236 466 c 0
 237 464 242 461 246 458 c 0
 251 455 255 452 256 451 c 0
 256 450 260 447 264 444 c 0
 269 440 273 438 276 438 c 0
 278 438 282 440 285 442 c 0
 288 444 291 445 292 445 c 2
 292 445 295 447 298 450 c 0
 301 452 305 458 307 462 c 0
 310 469 313 472 319 475 c 0
 324 478 327 482 330 487 c 0
 332 491 334 496 336 498 c 0
 337 500 342 509 346 517 c 0
 353 530 354 534 355 542 c 0
 355 549 354 553 350 566 c 0
 347 574 344 584 342 586 c 1
 341 589 338 593 336 595 c 0
 334 597 330 600 328 601 c 0
 325 603 320 605 317 607 c 0
 313 609 309 610 307 610 c 0
 305 610 298 611 293 612 c 0
235 313 m 0
 232 314 228 314 226 314 c 0
 225 314 220 313 215 311 c 0
 211 310 206 308 204 308 c 1
 203 307 200 306 199 304 c 1
 197 303 194 299 191 295 c 0
 188 290 180 281 173 273 c 0
 163 263 160 258 159 254 c 0
 158 251 156 246 153 241 c 0
 151 237 149 232 149 228 c 0
 149 225 148 219 146 214 c 0
 145 210 144 206 144 202 c 0
 144 197 146 185 147 177 c 0
 148 165 150 160 153 154 c 0
 156 150 158 146 158 146 c 1
 158 146 160 141 163 135 c 0
 166 129 171 121 174 117 c 0
 178 113 183 107 186 104 c 0
 190 101 196 97 199 95 c 0
 203 93 208 90 210 89 c 0
 213 87 218 84 222 83 c 0
 226 83 233 81 237 79 c 0
 241 78 248 76 251 75 c 0
 255 74 258 74 262 76 c 0
 265 77 270 78 274 78 c 0
 278 78 284 77 286 76 c 0
 289 74 294 73 298 73 c 0
 301 73 307 75 312 76 c 0
 317 78 322 81 326 85 c 0
 330 89 333 91 338 92 c 0
 342 93 351 97 359 101 c 2
 384 112 l 2
 390 115 397 119 400 121 c 1
 402 124 405 129 406 132 c 0
 407 135 407 137 407 138 c 0
 407 140 407 140 405 142 c 0
 404 144 401 147 398 148 c 0
 396 149 390 154 385 159 c 0
 381 164 377 168 377 169 c 0
 377 170 374 175 370 180 c 0
 366 185 363 190 362 190 c 2
 362 190 354 196 346 204 c 0
 337 212 327 220 323 223 c 0
 318 226 314 230 309 238 c 0
 305 244 299 251 294 254 c 0
 290 257 284 263 281 268 c 0
 278 272 272 278 268 281 c 0
 265 283 260 287 259 288 c 0
 258 290 255 293 254 296 c 0
 253 299 250 303 247 306 c 0
 244 309 239 312 235 313 c 0
EndSplineSet
Validated: 1
EndChar

StartChar: uni0027
Encoding: 39 39 8
Width: 291
GlyphClass: 2
Flags: HW
LayerCount: 2
Fore
SplineSet
149 718 m 0
 157 719 169 719 178 719 c 0
 182 719 185 719 188 719 c 0
 199 719 210 718 213 717 c 0
 216 716 220 714 222 711 c 0
 224 709 226 705 226 703 c 0
 226 701 223 695 221 689 c 1
 218 684 214 676 213 672 c 0
 211 668 209 663 209 660 c 1
 208 658 207 653 205 650 c 0
 203 647 202 644 201 643 c 0
 200 643 199 639 198 635 c 0
 197 630 194 624 191 620 c 0
 188 617 186 613 186 612 c 0
 186 611 184 607 181 604 c 0
 178 600 174 594 172 590 c 0
 170 586 168 582 168 581 c 0
 168 580 167 579 166 578 c 0
 165 577 164 572 162 568 c 1
 161 563 159 556 158 552 c 0
 157 548 153 541 151 536 c 0
 148 531 141 521 135 515 c 0
 125 504 123 502 117 501 c 0
 116 501 114 501 112 501 c 0
 107 501 101 501 95 502 c 0
 85 503 77 505 73 507 c 0
 70 508 66 511 65 513 c 0
 64 514 63 516 63 520 c 0
 63 521 63 523 63 525 c 0
 63 531 64 536 65 537 c 0
 66 538 67 542 68 545 c 0
 69 549 72 557 75 562 c 0
 78 568 80 576 81 579 c 1
 81 583 83 589 85 594 c 0
 86 599 87 605 88 608 c 0
 88 611 89 617 90 622 c 1
 92 626 93 633 93 636 c 0
 93 641 95 646 98 653 c 0
 100 658 104 669 107 678 c 0
 109 686 112 695 113 697 c 0
 114 700 115 702 115 703 c 0
 115 704 117 706 119 709 c 0
 121 711 124 713 126 714 c 0
 128 716 138 717 149 718 c 0
EndSplineSet
Validated: 1
EndChar

StartChar: uni0028
Encoding: 40 40 9
Width: 278
GlyphClass: 2
Flags: HW
LayerCount: 2
Fore
SplineSet
165 782 m 0
 169 783 173 784 179 784 c 0
 181 784 184 784 187 784 c 0
 198 783 204 782 209 780 c 0
 212 778 217 775 220 772 c 0
 222 769 224 766 224 764 c 0
 224 762 222 754 219 746 c 1
 217 737 214 728 212 724 c 0
 210 721 209 715 208 711 c 0
 208 707 206 698 204 692 c 0
 202 686 199 676 199 669 c 1
 198 663 195 652 193 645 c 0
 190 638 188 630 187 629 c 0
 186 627 184 624 182 622 c 0
 181 620 180 614 179 610 c 1
 179 605 177 598 176 594 c 0
 175 589 172 581 171 576 c 0
 169 570 168 562 168 552 c 0
 168 545 167 536 167 532 c 0
 166 528 164 522 163 517 c 0
 160 509 160 507 162 498 c 0
 164 490 164 486 162 480 c 0
 161 476 159 471 158 468 c 0
 156 465 155 459 155 447 c 2
 155 408 l 2
 155 396 156 382 156 378 c 0
 157 373 157 367 156 361 c 0
 156 356 155 335 155 314 c 0
 156 286 156 274 158 272 c 0
 159 270 161 264 162 259 c 0
 163 253 164 244 164 237 c 1
 165 231 166 225 166 224 c 0
 167 223 169 219 170 214 c 0
 171 210 173 203 173 199 c 0
 173 194 176 188 179 182 c 0
 184 173 184 171 184 161 c 0
 184 154 185 145 186 141 c 0
 188 137 189 126 190 118 c 0
 191 109 192 102 193 99 c 1
 195 97 197 92 199 88 c 0
 200 85 203 77 205 71 c 0
 206 65 208 56 209 51 c 0
 210 47 212 42 213 41 c 0
 214 40 216 35 218 31 c 0
 220 26 222 20 223 18 c 0
 224 15 226 9 227 4 c 0
 228 0 228 -6 228 -9 c 0
 228 -14 227 -16 223 -20 c 0
 218 -26 218 -26 202 -27 c 0
 192 -28 179 -28 172 -28 c 0
 162 -27 157 -26 154 -24 c 0
 152 -23 148 -19 146 -15 c 0
 144 -11 141 -6 139 -3 c 0
 137 -1 135 4 135 7 c 0
 134 10 133 15 132 18 c 0
 132 20 130 24 130 26 c 1
 129 27 127 31 126 34 c 0
 125 38 122 45 121 50 c 0
 119 55 115 68 112 79 c 0
 108 90 102 106 99 115 c 0
 96 124 94 136 93 142 c 0
 92 150 91 155 89 157 c 0
 87 159 84 164 82 169 c 0
 79 175 78 179 78 190 c 0
 78 200 78 205 75 212 c 0
 73 217 71 224 70 228 c 0
 69 232 69 242 69 250 c 0
 69 259 68 267 66 273 c 0
 64 279 62 286 61 291 c 0
 60 295 57 304 55 309 c 0
 53 315 52 322 52 324 c 0
 52 327 53 332 54 337 c 0
 55 341 56 352 56 361 c 0
 57 374 56 378 54 382 c 0
 53 385 52 388 52 389 c 0
 52 391 53 395 55 399 c 0
 57 405 58 411 58 424 c 0
 58 436 58 443 60 446 c 0
 61 449 63 458 63 466 c 0
 64 474 65 482 66 485 c 0
 68 488 69 497 70 508 c 0
 70 519 72 530 73 535 c 0
 74 539 75 546 75 550 c 0
 75 553 76 559 78 561 c 0
 79 563 80 570 80 576 c 0
 81 585 82 589 85 596 c 0
 88 601 91 608 92 612 c 0
 93 616 96 621 98 624 c 0
 101 628 103 632 103 638 c 1
 104 642 106 648 107 651 c 0
 109 654 110 659 110 664 c 0
 109 669 110 675 112 678 c 0
 114 682 115 687 116 690 c 0
 116 692 117 695 118 696 c 0
 119 697 120 700 121 703 c 0
 122 706 124 712 127 716 c 1
 129 722 131 727 131 736 c 1
 132 742 134 751 136 756 c 0
 138 763 141 766 148 772 c 0
 154 777 161 781 165 782 c 0
EndSplineSet
Validated: 1
EndChar

StartChar: uni0029
Encoding: 41 41 10
Width: 267
GlyphClass: 2
Flags: HW
LayerCount: 2
Fore
SplineSet
73 762 m 2
 73 762 75 763 78 763 c 0
 81 763 85 762 89 762 c 0
 97 762 106 761 109 760 c 0
 113 759 117 756 125 748 c 0
 131 741 136 735 137 733 c 0
 138 731 140 726 140 722 c 0
 141 718 143 709 146 704 c 0
 149 698 153 689 154 685 c 0
 156 681 157 674 157 671 c 0
 157 666 159 658 162 650 c 2
 171 627 l 1
 178 609 l 2
 179 604 181 596 181 591 c 0
 182 585 184 579 187 572 c 0
 191 565 193 560 193 555 c 0
 193 552 195 543 197 536 c 0
 199 528 202 521 203 519 c 0
 204 517 204 512 204 504 c 0
 203 494 203 492 206 483 c 0
 209 475 210 468 211 453 c 0
 211 442 212 426 212 417 c 0
 212 409 213 395 214 387 c 0
 215 379 216 371 217 371 c 1
 217 353 l 1
 217 324 l 2
 217 317 215 307 214 301 c 0
 213 296 211 287 211 282 c 0
 210 276 209 268 208 264 c 0
 207 261 205 247 205 233 c 0
 204 212 203 207 201 203 c 0
 199 200 197 196 196 193 c 0
 195 191 193 183 193 174 c 1
 192 166 190 157 189 153 c 0
 188 150 185 143 183 140 c 0
 181 135 179 127 177 117 c 0
 176 108 172 94 170 86 c 0
 167 78 163 68 162 64 c 0
 160 60 158 53 158 48 c 0
 157 43 156 37 155 35 c 0
 154 33 152 29 150 27 c 1
 149 24 147 19 146 16 c 1
 146 12 143 5 140 -1 c 0
 138 -6 134 -15 133 -19 c 0
 132 -24 129 -31 127 -35 c 0
 124 -40 120 -44 115 -47 c 0
 110 -50 108 -51 104 -51 c 0
 103 -51 102 -51 100 -51 c 0
 95 -51 88 -51 83 -50 c 0
 78 -49 71 -48 67 -48 c 0
 63 -48 58 -47 56 -47 c 0
 54 -47 52 -46 51 -43 c 0
 49 -40 48 -35 48 -31 c 0
 48 -27 49 -23 50 -22 c 0
 50 -21 52 -17 53 -13 c 0
 54 -10 55 -5 57 -2 c 0
 58 0 59 5 59 8 c 0
 60 11 62 18 63 24 c 0
 65 30 67 36 69 39 c 0
 70 41 72 45 73 48 c 1
 76 51 76 54 76 62 c 0
 76 70 77 74 82 83 c 0
 85 90 87 99 88 102 c 0
 89 106 90 112 92 115 c 0
 94 118 95 124 95 133 c 1
 96 141 97 149 99 154 c 0
 100 158 101 163 101 165 c 0
 101 167 103 172 104 176 c 0
 107 182 107 187 107 200 c 0
 107 212 108 219 110 223 c 0
 111 227 112 237 113 246 c 0
 114 255 115 265 117 268 c 1
 118 273 119 280 119 300 c 0
 119 321 118 327 116 334 c 0
 115 338 113 345 113 349 c 0
 113 353 114 359 116 362 c 1
 117 366 119 372 119 378 c 1
 120 383 121 389 121 392 c 0
 121 394 120 406 119 417 c 0
 118 429 117 441 116 444 c 0
 115 447 114 458 113 468 c 0
 112 482 111 489 110 492 c 0
 108 496 107 503 106 514 c 0
 105 524 104 533 104 535 c 0
 103 537 101 544 99 550 c 0
 97 556 95 565 93 571 c 0
 92 577 90 584 90 588 c 1
 89 591 86 599 83 605 c 0
 78 614 78 616 78 631 c 1
 77 641 76 648 75 651 c 0
 73 654 72 661 72 666 c 0
 71 674 70 678 63 692 c 0
 56 706 54 710 54 716 c 0
 54 720 53 728 52 732 c 0
 51 736 49 743 49 746 c 0
 48 751 49 752 52 755 c 0
 54 757 58 759 64 760 c 0
 69 761 73 762 73 762 c 2
EndSplineSet
Validated: 1
EndChar

StartChar: uni002A
Encoding: 42 42 11
Width: 509
GlyphClass: 2
Flags: HW
LayerCount: 2
Fore
SplineSet
317 724 m 1
 324 724 l 1
 327 723 333 721 339 718 c 0
 344 715 350 712 352 710 c 0
 353 708 355 707 356 707 c 0
 357 707 361 704 364 701 c 0
 369 697 370 695 370 691 c 0
 370 688 368 682 366 677 c 0
 362 670 357 663 344 651 c 0
 334 641 324 630 320 625 c 0
 316 620 311 613 308 609 c 0
 305 606 301 600 300 597 c 0
 298 593 297 589 297 587 c 0
 297 585 298 582 300 580 c 0
 304 577 306 577 321 576 c 0
 331 576 342 577 346 577 c 0
 350 578 356 579 361 580 c 0
 365 581 373 584 380 586 c 0
 386 588 395 590 399 590 c 0
 403 591 411 590 416 589 c 0
 421 588 428 587 431 585 c 0
 434 584 437 581 439 579 c 0
 440 577 441 573 441 571 c 0
 441 569 439 564 438 561 c 0
 436 556 435 551 435 542 c 0
 435 532 434 529 432 525 c 0
 429 520 429 520 420 521 c 0
 415 521 399 522 385 524 c 0
 371 525 354 526 349 526 c 0
 342 526 336 527 333 529 c 0
 330 530 325 531 321 531 c 0
 315 531 313 530 310 527 c 0
 308 524 307 521 307 517 c 0
 307 513 308 507 311 502 c 0
 313 497 317 490 320 487 c 0
 323 483 326 480 326 479 c 0
 326 478 330 473 336 467 c 0
 341 461 348 453 351 450 c 0
 354 447 359 441 361 438 c 0
 363 434 366 430 367 428 c 0
 369 426 370 422 370 419 c 0
 370 416 369 412 366 409 c 0
 364 406 359 402 355 398 c 0
 351 395 343 391 338 389 c 0
 332 387 325 385 322 385 c 0
 319 385 314 386 312 387 c 0
 309 388 306 391 305 393 c 0
 304 395 303 400 302 404 c 0
 301 408 300 414 298 416 c 0
 297 418 295 421 293 423 c 0
 292 425 289 430 288 433 c 0
 286 436 284 441 284 445 c 1
 283 448 281 454 279 458 c 0
 276 462 274 469 272 473 c 0
 271 477 268 482 266 484 c 0
 263 487 259 489 252 490 c 1
 246 492 242 492 240 491 c 0
 238 490 236 487 235 485 c 0
 233 483 232 478 231 474 c 0
 230 470 226 459 222 451 c 0
 218 443 214 434 214 432 c 0
 213 430 212 427 211 425 c 0
 210 424 208 419 206 415 c 0
 205 411 203 406 202 403 c 0
 201 401 198 397 195 394 c 0
 193 392 189 389 186 388 c 0
 182 387 178 387 171 389 c 0
 166 390 160 392 158 393 c 0
 156 394 152 397 149 399 c 0
 146 402 142 406 141 408 c 0
 139 410 138 414 138 417 c 0
 138 420 139 425 141 430 c 0
 144 435 148 441 153 445 c 0
 157 449 163 457 167 462 c 0
 170 467 174 473 177 476 c 0
 179 479 183 484 185 488 c 2
 195 502 l 2
 199 506 201 510 202 514 c 1
 202 525 l 1
 201 527 199 530 198 531 c 0
 195 533 190 533 171 532 c 0
 157 531 146 530 144 529 c 0
 142 528 134 527 127 526 c 0
 120 525 112 524 110 523 c 0
 107 521 101 520 96 519 c 0
 91 518 85 518 82 518 c 1
 74 522 l 2
 72 524 68 529 66 534 c 0
 62 542 61 545 61 556 c 0
 61 565 62 570 64 575 c 0
 66 579 69 584 72 586 c 1
 75 590 77 591 82 591 c 0
 85 591 91 592 95 593 c 0
 100 594 103 594 106 593 c 0
 108 592 111 590 114 589 c 0
 117 589 122 588 125 588 c 0
 128 588 137 586 144 583 c 0
 156 578 158 577 164 578 c 0
 168 579 175 579 181 579 c 0
 187 579 193 580 195 581 c 0
 198 582 200 584 201 586 c 0
 202 588 202 592 202 595 c 0
 202 598 202 603 201 605 c 0
 200 607 197 611 195 614 c 0
 192 617 186 622 181 626 c 0
 173 631 172 633 168 643 c 0
 165 652 163 655 158 659 c 0
 155 661 150 665 148 667 c 0
 146 670 143 676 141 682 c 0
 138 692 137 693 140 696 c 1
 141 699 143 701 145 702 c 0
 146 703 149 705 152 706 c 1
 154 708 157 710 158 711 c 2
 158 711 162 714 165 716 c 0
 168 718 173 721 175 722 c 0
 177 722 181 723 183 723 c 0
 186 723 190 722 193 721 c 0
 197 720 201 717 202 715 c 0
 204 713 207 708 208 705 c 0
 210 702 211 695 212 690 c 0
 213 682 214 678 219 669 c 0
 223 663 227 653 229 648 c 0
 231 643 235 635 237 631 c 0
 240 627 244 622 247 620 c 0
 249 618 254 617 256 617 c 0
 259 617 263 618 265 620 c 0
 268 622 271 626 273 634 c 1
 276 640 278 651 279 658 c 0
 280 668 281 672 286 680 c 0
 289 685 294 694 296 699 c 0
 299 704 302 709 304 711 c 0
 306 712 307 714 307 715 c 0
 307 716 308 718 310 720 c 0
 312 721 315 723 317 724 c 1
EndSplineSet
Validated: 1
EndChar

StartChar: uni002B
Encoding: 43 43 12
Width: 533
GlyphClass: 2
Flags: HW
LayerCount: 2
Fore
SplineSet
248 498 m 0
 250 499 261 499 275 499 c 0
 298 499 298 499 305 493 c 0
 309 490 314 486 315 483 c 0
 317 479 317 473 317 459 c 0
 317 446 318 437 320 430 c 0
 322 419 322 419 319 409 c 0
 316 400 316 397 316 364 c 0
 316 344 317 326 317 323 c 0
 318 320 321 315 325 312 c 0
 331 306 331 306 352 306 c 0
 368 306 374 307 380 309 c 0
 386 311 391 312 404 311 c 0
 417 311 421 310 433 306 c 0
 446 301 447 301 453 302 c 0
 456 303 463 305 469 307 c 0
 476 309 479 309 487 307 c 0
 492 306 498 304 501 303 c 0
 503 302 506 299 507 296 c 1
 509 294 510 291 510 289 c 0
 510 288 509 282 507 277 c 0
 505 272 504 267 505 265 c 0
 505 263 506 253 506 241 c 0
 506 220 506 220 501 213 c 0
 498 210 494 206 492 205 c 0
 490 204 483 203 474 203 c 0
 464 203 457 202 452 200 c 0
 446 198 444 198 437 200 c 0
 433 201 415 202 396 203 c 1
 376 203 361 204 358 205 c 0
 356 206 351 207 347 207 c 0
 343 207 338 206 336 205 c 0
 333 203 330 201 328 200 c 0
 325 199 322 197 320 195 c 0
 316 192 316 192 316 137 c 0
 316 89 316 80 318 73 c 0
 320 66 321 63 319 59 c 0
 318 56 317 48 316 42 c 0
 315 33 314 28 312 25 c 2
 305 18 l 1
 300 15 297 15 267 14 c 0
 259 14 253 14 248 14 c 0
 236 14 232 14 229 15 c 0
 226 16 222 19 220 21 c 0
 218 24 216 27 215 29 c 0
 214 31 212 36 211 40 c 0
 211 43 209 47 208 48 c 0
 208 49 207 53 207 57 c 0
 207 62 208 70 210 75 c 0
 211 80 213 88 214 92 c 0
 216 98 216 101 214 108 c 0
 213 113 212 118 212 120 c 0
 212 122 213 127 215 132 c 0
 217 139 217 143 217 150 c 1
 216 155 215 163 215 168 c 0
 215 173 214 179 213 181 c 0
 212 183 212 187 212 189 c 0
 212 192 210 195 208 197 c 0
 205 200 202 200 188 201 c 0
 180 202 162 203 148 203 c 0
 135 203 105 203 83 202 c 1
 42 202 41 202 36 205 c 0
 33 206 29 210 27 212 c 0
 24 217 24 217 24 254 c 0
 24 289 24 292 27 296 c 1
 28 299 33 303 37 306 c 0
 43 309 47 311 53 311 c 0
 59 312 62 311 67 309 c 0
 73 306 76 305 83 306 c 0
 88 306 94 308 97 309 c 0
 99 310 104 312 106 312 c 0
 108 312 112 310 115 309 c 0
 119 307 126 307 155 306 c 0
 162 306 169 306 174 306 c 0
 187 306 194 306 197 307 c 0
 201 308 205 310 208 312 c 0
 212 316 212 316 212 328 c 0
 212 335 211 342 210 345 c 0
 209 348 209 351 209 353 c 0
 209 355 211 360 212 365 c 0
 214 372 214 378 213 391 c 0
 213 400 212 411 211 415 c 0
 209 420 209 425 210 440 c 0
 211 451 212 466 212 473 c 0
 212 484 213 488 215 491 c 0
 216 493 219 496 222 496 c 1
 224 497 230 498 235 497 c 0
 240 497 246 497 248 498 c 0
EndSplineSet
Validated: 1
EndChar

StartChar: uni002C
Encoding: 44 44 13
Width: 202
GlyphClass: 2
Flags: HW
LayerCount: 2
Fore
SplineSet
121 115 m 1
 126 116 131 117 137 117 c 0
 142 117 150 115 154 114 c 0
 159 113 165 111 168 111 c 0
 171 110 175 108 178 106 c 0
 181 103 182 100 182 97 c 0
 182 94 181 89 179 85 c 0
 177 82 175 76 173 73 c 2
 168 63 l 2
 167 62 165 59 164 57 c 0
 163 56 159 49 157 42 c 0
 155 36 153 29 153 28 c 0
 153 27 149 21 145 16 c 0
 141 11 137 3 136 -1 c 0
 134 -6 132 -11 131 -14 c 1
 129 -16 126 -21 125 -25 c 1
 123 -28 121 -33 120 -37 c 0
 119 -40 116 -46 112 -49 c 0
 108 -53 105 -59 103 -61 c 1
 102 -64 101 -69 100 -72 c 0
 100 -75 98 -79 97 -82 c 0
 96 -84 93 -88 91 -89 c 0
 89 -91 86 -93 85 -94 c 0
 83 -95 77 -97 71 -98 c 0
 65 -99 53 -99 43 -99 c 0
 27 -99 26 -99 23 -96 c 0
 21 -93 20 -89 20 -78 c 0
 20 -65 21 -62 24 -55 c 0
 26 -50 29 -43 31 -40 c 1
 32 -36 35 -28 38 -22 c 1
 40 -15 43 -7 44 -3 c 0
 45 2 46 9 48 15 c 0
 49 20 52 29 54 34 c 0
 56 40 58 47 59 50 c 0
 60 53 61 58 62 61 c 0
 62 64 63 70 64 75 c 1
 66 79 67 84 67 86 c 0
 67 88 69 93 70 96 c 0
 72 100 75 105 78 107 c 1
 80 110 84 112 86 113 c 1
 102 113 l 1
 111 112 115 112 121 115 c 1
EndSplineSet
Validated: 1
EndChar

StartChar: uni002D
Encoding: 45 45 14
Width: 297
GlyphClass: 2
Flags: HMW
HStem: 222 92
VStem: 40 222<265 283.001>
LayerCount: 2
Fore
SplineSet
59 314 m 2
 69 314 l 1
 73 313 77 312 80 311 c 0
 83 310 91 310 99 310 c 0
 107 311 115 311 118 312 c 0
 121 313 151 314 184 314 c 0
 241 314 244 314 249 311 c 0
 252 309 256 306 258 304 c 0
 261 300 262 299 262 267 c 1
 261 240 260 234 258 231 c 0
 256 229 253 226 251 225 c 0
 248 222 243 222 209 222 c 0
 178 222 170 221 165 219 c 0
 162 218 158 217 156 217 c 0
 154 217 148 218 144 220 c 0
 139 222 136 222 129 222 c 0
 124 222 116 222 102 221 c 2
 63 221 l 1
 60 222 56 223 54 224 c 0
 52 225 49 230 47 234 c 0
 45 238 44 243 44 244 c 0
 44 246 43 251 41 257 c 0
 40 261 40 264 40 266 c 0
 40 268 40 270 41 272 c 0
 43 275 44 282 45 287 c 1
 45 300 l 2
 45 302 47 306 50 309 c 0
 53 311 57 314 59 314 c 2
EndSplineSet
Validated: 1
EndChar

StartChar: uni002E
Encoding: 46 46 15
Width: 245
GlyphClass: 2
Flags: HW
LayerCount: 2
Fore
SplineSet
83 115 m 0
 85 117 88 117 94 117 c 1
 99 116 114 115 128 114 c 0
 149 113 155 112 160 109 c 0
 163 107 167 104 169 102 c 0
 171 99 172 95 173 83 c 0
 173 74 174 65 175 62 c 0
 176 59 177 52 177 45 c 0
 177 42 178 39 178 37 c 0
 178 33 177 31 175 27 c 0
 174 24 171 19 169 18 c 1
 168 16 163 13 160 12 c 0
 154 9 150 9 137 9 c 0
 127 9 120 8 116 6 c 0
 112 5 108 4 106 3 c 1
 103 3 98 3 95 4 c 0
 91 5 84 8 80 11 c 0
 76 14 72 17 70 19 c 0
 68 21 66 24 66 27 c 0
 66 28 65 30 65 33 c 0
 65 36 66 39 66 41 c 0
 67 46 69 61 69 75 c 0
 70 93 71 100 73 104 c 0
 74 106 76 109 77 110 c 0
 78 111 81 113 83 115 c 0
EndSplineSet
Validated: 1
EndChar

StartChar: uni002F
Encoding: 47 47 16
Width: 363
GlyphClass: 2
Flags: HW
LayerCount: 2
Fore
SplineSet
287 664 m 0
 290 665 297 666 301 666 c 0
 307 666 311 665 321 660 c 0
 327 657 334 652 336 650 c 0
 338 648 339 644 339 642 c 0
 339 640 338 634 335 629 c 0
 333 624 331 619 331 617 c 0
 331 616 329 612 327 609 c 0
 325 605 323 599 322 592 c 0
 321 583 319 578 314 568 c 0
 310 562 306 553 305 549 c 0
 304 545 302 539 301 536 c 0
 299 533 298 530 297 530 c 0
 296 529 295 526 294 521 c 0
 293 517 292 513 291 512 c 0
 290 511 289 506 288 501 c 1
 286 497 283 489 281 484 c 0
 278 479 276 473 275 469 c 1
 275 464 272 456 270 450 c 0
 267 444 263 438 262 436 c 0
 260 434 258 429 258 426 c 0
 257 423 255 414 252 406 c 0
 249 398 247 390 247 387 c 0
 247 385 244 377 240 370 c 0
 237 363 233 356 232 353 c 1
 230 351 229 348 229 346 c 0
 229 344 227 339 224 335 c 0
 221 331 218 322 215 315 c 1
 213 307 212 300 212 299 c 0
 212 297 211 295 210 293 c 0
 208 291 207 289 206 287 c 1
 206 284 204 280 203 277 c 0
 201 273 199 267 199 263 c 0
 198 259 196 251 193 246 c 0
 190 240 188 235 188 234 c 0
 188 232 186 227 183 222 c 0
 181 217 177 208 175 203 c 0
 174 198 170 191 168 188 c 0
 166 185 164 179 163 175 c 1
 163 170 161 164 160 161 c 0
 158 158 157 153 157 151 c 0
 157 149 156 144 154 140 c 0
 153 136 149 130 146 126 c 0
 142 120 140 115 140 108 c 1
 138 98 l 2
 138 97 136 93 134 89 c 0
 132 86 129 79 128 75 c 0
 127 71 124 65 122 62 c 0
 120 59 118 53 117 48 c 0
 117 44 115 37 114 33 c 0
 112 29 110 24 109 22 c 0
 107 20 106 18 106 17 c 0
 106 16 104 13 102 11 c 0
 99 8 94 5 89 4 c 0
 85 3 80 2 70 2 c 0
 66 2 62 2 57 2 c 0
 35 3 31 4 28 6 c 0
 26 8 25 11 24 21 c 0
 24 24 24 26 24 28 c 0
 24 33 24 35 25 38 c 1
 27 40 30 48 32 56 c 1
 35 63 37 71 37 73 c 0
 37 75 39 82 42 88 c 0
 45 94 48 100 49 101 c 0
 50 103 52 108 54 114 c 0
 55 119 57 125 58 127 c 0
 59 128 62 133 64 137 c 0
 67 141 70 147 70 150 c 0
 71 154 73 159 74 161 c 0
 75 164 77 169 77 173 c 0
 78 177 81 186 84 193 c 0
 87 200 90 207 91 208 c 2
 96 218 l 2
 97 222 100 230 102 235 c 0
 103 240 105 249 106 253 c 0
 107 258 109 265 110 267 c 0
 112 270 115 277 118 283 c 0
 121 289 123 294 123 295 c 0
 123 296 125 300 127 304 c 0
 129 308 132 316 134 323 c 0
 135 329 137 335 137 337 c 0
 137 338 139 342 142 346 c 0
 145 350 147 355 148 360 c 0
 149 364 152 373 155 378 c 0
 158 384 161 389 162 390 c 0
 162 391 164 396 165 401 c 0
 167 406 168 414 169 417 c 0
 170 421 174 428 177 434 c 0
 180 439 183 447 183 451 c 0
 184 455 186 462 189 467 c 1
 191 473 194 480 195 484 c 0
 196 488 198 495 200 500 c 0
 201 504 204 512 207 517 c 0
 209 521 214 533 218 543 c 0
 222 555 225 564 225 568 c 0
 225 572 226 576 227 579 c 0
 228 581 230 585 232 587 c 0
 234 589 235 592 235 593 c 0
 235 595 237 600 240 606 c 0
 243 612 247 621 249 627 c 0
 251 632 255 641 257 645 c 0
 259 650 262 655 265 657 c 0
 268 658 271 660 272 660 c 0
 274 660 276 661 278 661 c 0
 280 662 284 664 287 664 c 0
EndSplineSet
Validated: 1
EndChar

StartChar: uni0030
Encoding: 48 48 17
Width: 569
GlyphClass: 2
Flags: HW
LayerCount: 2
Fore
SplineSet
251 737 m 0
 254 737 260 738 267 738 c 0
 274 738 284 737 292 737 c 0
 316 737 324 736 328 735 c 1
 330 733 335 732 340 731 c 0
 345 731 353 729 359 726 c 0
 367 722 373 720 381 720 c 0
 392 719 394 718 398 714 c 0
 401 712 406 708 409 705 c 1
 413 703 418 700 421 698 c 0
 424 696 429 692 433 688 c 0
 437 685 442 681 444 680 c 0
 446 679 449 677 451 675 c 0
 453 673 455 669 457 666 c 1
 458 662 460 658 461 655 c 0
 462 653 465 649 469 646 c 0
 472 644 478 638 481 634 c 0
 484 630 488 623 489 618 c 1
 491 614 493 609 495 606 c 0
 496 604 498 602 498 601 c 2
 505 590 l 2
 512 579 512 579 512 566 c 1
 513 554 514 551 518 541 c 1
 523 532 524 529 524 518 c 1
 525 510 526 504 527 500 c 1
 529 497 530 492 531 488 c 0
 532 485 534 480 534 477 c 1
 535 475 537 463 537 450 c 1
 538 438 539 421 539 414 c 0
 539 407 538 398 537 396 c 0
 536 393 536 370 536 344 c 0
 536 306 535 295 534 289 c 1
 532 285 531 273 530 261 c 0
 530 250 529 240 528 239 c 0
 527 238 526 233 525 227 c 0
 523 221 522 215 521 213 c 0
 520 212 519 206 518 200 c 0
 518 195 515 187 513 183 c 0
 511 178 509 171 508 167 c 0
 508 163 505 155 501 148 c 0
 497 141 494 134 493 134 c 1
 493 133 491 128 490 123 c 0
 489 118 487 111 486 107 c 0
 484 102 481 97 479 94 c 0
 477 90 473 85 469 82 c 0
 465 78 461 74 461 72 c 0
 460 70 458 67 457 66 c 0
 456 64 454 61 452 60 c 0
 450 58 446 56 444 55 c 0
 442 54 438 50 436 48 c 0
 433 45 430 41 428 39 c 0
 426 37 418 31 410 27 c 0
 401 23 392 18 389 15 c 0
 386 13 380 10 376 9 c 0
 372 7 365 5 360 4 c 0
 355 3 351 1 350 1 c 0
 349 0 345 -1 341 -1 c 0
 337 -2 331 -3 328 -5 c 0
 326 -6 323 -7 320 -7 c 0
 318 -7 315 -6 311 -6 c 0
 304 -6 296 -5 294 -5 c 0
 292 -5 284 -6 276 -6 c 0
 272 -6 269 -7 266 -7 c 0
 262 -7 259 -6 255 -5 c 0
 251 -3 243 -2 239 -2 c 0
 234 -2 228 -1 225 0 c 0
 221 2 216 4 214 4 c 0
 211 5 206 7 203 9 c 0
 200 11 193 15 189 17 c 0
 184 19 179 21 177 22 c 0
 175 22 167 28 160 33 c 0
 153 39 144 46 140 48 c 0
 136 51 130 56 126 61 c 0
 123 65 118 72 116 75 c 0
 114 79 110 85 107 88 c 0
 104 92 102 95 102 96 c 0
 102 97 99 104 95 112 c 0
 92 120 87 131 84 136 c 0
 81 142 77 152 74 157 c 0
 70 166 68 170 68 175 c 0
 68 180 67 187 65 191 c 1
 64 196 62 202 62 206 c 1
 61 209 60 214 59 216 c 0
 57 219 57 224 57 228 c 0
 57 232 55 240 54 246 c 0
 52 252 51 261 51 267 c 0
 51 275 50 277 45 285 c 0
 39 293 39 294 39 303 c 0
 39 309 40 316 42 322 c 0
 45 330 45 331 43 341 c 0
 42 350 42 354 44 363 c 0
 45 372 45 376 43 383 c 0
 42 388 41 394 41 397 c 0
 41 399 42 405 43 410 c 0
 44 415 46 422 48 426 c 0
 50 432 50 433 48 439 c 0
 47 442 46 446 46 448 c 0
 46 450 47 454 49 458 c 0
 50 462 51 469 52 476 c 0
 52 483 53 491 54 496 c 0
 55 500 57 508 57 514 c 0
 57 522 58 527 61 536 c 0
 64 543 67 550 69 552 c 0
 70 554 72 558 74 560 c 1
 75 563 76 568 76 571 c 0
 76 575 77 582 79 588 c 0
 80 593 82 600 84 603 c 0
 85 606 88 611 90 614 c 0
 92 617 94 621 94 622 c 0
 95 624 97 629 99 634 c 0
 102 640 106 645 112 650 c 0
 116 653 120 657 120 659 c 0
 120 660 126 666 133 673 c 0
 140 680 151 690 157 695 c 0
 163 700 172 705 180 709 c 1
 187 711 195 714 199 715 c 1
 205 715 209 717 214 721 c 0
 218 724 226 729 231 732 c 1
 237 734 245 736 251 737 c 0
321 629 m 0
 316 633 315 633 292 634 c 0
 280 634 266 633 263 633 c 0
 260 632 255 630 252 628 c 0
 249 626 242 622 237 619 c 0
 232 615 227 610 225 608 c 0
 223 606 220 602 218 599 c 0
 217 596 214 589 212 585 c 1
 211 580 208 574 207 572 c 0
 205 569 203 563 203 556 c 1
 202 550 200 541 198 535 c 0
 197 529 195 522 194 518 c 0
 194 514 192 508 191 503 c 0
 190 498 189 489 189 479 c 0
 189 467 188 461 187 458 c 0
 185 455 185 447 184 430 c 0
 184 416 184 402 185 397 c 0
 186 392 185 386 184 380 c 0
 183 375 181 366 179 361 c 0
 178 357 178 354 178 351 c 0
 178 348 178 343 179 337 c 1
 179 328 182 316 184 310 c 0
 186 303 188 298 189 297 c 0
 189 296 191 292 192 288 c 0
 195 282 195 281 193 274 c 0
 191 270 190 261 189 254 c 0
 188 241 188 239 191 232 c 0
 194 226 195 222 195 206 c 0
 196 189 196 187 200 179 c 0
 203 174 206 166 207 161 c 0
 208 157 211 149 213 145 c 0
 215 141 219 135 223 132 c 0
 227 129 231 125 234 123 c 0
 236 122 240 119 242 117 c 0
 243 115 247 113 250 112 c 2
 262 106 l 2
 267 103 272 101 274 99 c 1
 277 98 284 97 292 96 c 0
 297 95 301 95 303 95 c 0
 306 95 308 95 311 97 c 2
 332 108 l 2
 343 114 347 117 350 121 c 0
 352 125 357 130 360 134 c 0
 364 138 367 142 368 144 c 0
 369 146 372 153 374 159 c 0
 376 166 378 174 378 176 c 0
 378 178 380 183 382 188 c 0
 384 192 387 197 388 200 c 0
 390 203 391 209 391 217 c 0
 392 225 393 233 394 236 c 0
 396 240 397 245 396 260 c 1
 396 278 396 280 399 287 c 0
 402 293 403 297 403 314 c 1
 404 326 404 345 404 358 c 1
 403 370 403 387 402 394 c 0
 401 404 400 412 397 419 c 0
 394 425 393 432 393 435 c 0
 393 438 394 447 395 454 c 0
 396 461 397 475 397 485 c 0
 397 498 396 504 395 507 c 1
 393 509 391 514 389 516 c 1
 388 519 385 525 384 529 c 0
 382 533 380 543 380 551 c 0
 379 559 378 567 377 569 c 0
 376 571 375 574 374 575 c 0
 373 577 371 581 369 586 c 0
 366 591 362 598 358 601 c 2
 345 614 l 2
 341 617 335 621 332 623 c 0
 329 624 324 627 321 629 c 0
EndSplineSet
Validated: 1
EndChar

StartChar: uni0031
Encoding: 49 49 18
Width: 573
GlyphClass: 2
Flags: HW
LayerCount: 2
Fore
SplineSet
297 723 m 0
 302 725 306 725 315 725 c 1
 321 724 327 723 329 722 c 0
 331 722 337 721 342 721 c 0
 347 721 354 722 358 723 c 0
 363 725 372 726 385 726 c 0
 405 726 405 726 409 722 c 0
 411 719 413 717 413 716 c 0
 413 715 415 711 416 708 c 0
 418 705 419 699 419 696 c 0
 419 692 418 686 417 681 c 0
 416 677 414 671 413 667 c 0
 412 662 412 658 414 650 c 0
 415 644 416 637 416 635 c 0
 415 633 414 626 413 621 c 0
 412 614 412 610 413 605 c 0
 414 602 416 599 416 598 c 1
 417 598 418 591 418 582 c 0
 418 570 417 565 415 558 c 0
 413 552 412 547 412 544 c 1
 413 542 414 537 416 534 c 0
 417 532 419 526 420 521 c 0
 421 517 422 515 422 513 c 0
 422 511 421 508 420 504 c 0
 419 499 418 490 418 484 c 0
 418 478 417 470 415 467 c 1
 414 463 413 456 412 451 c 1
 412 445 412 440 414 434 c 0
 416 426 416 425 414 419 c 0
 412 414 412 410 413 392 c 0
 414 380 415 367 415 363 c 2
 415 346 l 1
 415 323 l 1
 416 315 416 306 417 303 c 0
 418 298 417 294 415 286 c 1
 411 276 411 276 414 267 c 0
 415 262 417 255 417 253 c 0
 418 250 417 246 416 244 c 0
 414 241 413 237 413 235 c 0
 413 233 414 229 415 227 c 0
 417 225 418 219 418 212 c 0
 418 204 417 197 414 191 c 1
 412 182 411 181 413 172 c 0
 415 164 415 159 413 149 c 0
 412 141 412 132 412 127 c 0
 412 122 413 113 415 106 c 0
 417 96 418 91 417 76 c 0
 417 66 417 50 418 41 c 0
 419 31 419 22 419 19 c 1
 418 17 413 10 406 4 c 1
 398 -4 397 -6 389 -6 c 0
 387 -6 384 -6 380 -6 c 0
 372 -6 359 -4 351 -4 c 0
 343 -3 327 -2 317 -2 c 0
 304 -1 297 -1 294 1 c 0
 292 2 288 4 284 7 c 0
 281 9 277 12 276 15 c 0
 275 17 274 21 274 24 c 0
 274 27 275 33 276 36 c 0
 278 41 278 50 279 66 c 0
 279 79 280 98 280 107 c 0
 280 119 280 129 279 135 c 0
 278 140 276 146 275 149 c 0
 273 153 274 154 276 162 c 0
 279 171 279 174 279 215 c 0
 279 255 279 260 277 268 c 0
 275 274 274 281 274 291 c 0
 274 302 275 308 277 314 c 0
 279 322 279 326 279 369 c 1
 278 406 278 419 276 428 c 0
 274 438 274 440 276 447 c 0
 278 453 278 459 278 479 c 0
 278 493 279 509 279 515 c 0
 280 521 281 535 282 546 c 1
 282 565 282 565 278 570 c 0
 275 574 273 575 267 575 c 1
 262 576 257 576 254 575 c 0
 250 574 246 571 241 567 c 0
 235 562 230 559 225 557 c 0
 220 556 214 553 210 551 c 0
 206 549 202 545 199 541 c 0
 197 537 192 532 189 530 c 0
 186 528 180 524 177 523 c 0
 173 521 168 517 165 515 c 0
 162 513 157 510 154 509 c 0
 151 507 144 505 138 503 c 0
 133 502 125 500 120 500 c 0
 113 500 110 501 106 503 c 1
 103 506 101 509 99 515 c 0
 98 518 98 520 98 522 c 0
 98 524 98 526 100 529 c 0
 102 534 102 540 102 571 c 0
 102 602 103 608 105 612 c 0
 106 614 109 618 111 620 c 1
 114 621 120 626 125 630 c 0
 133 635 136 637 144 638 c 0
 149 638 157 640 161 642 c 0
 165 645 169 646 170 646 c 2
 176 650 l 2
 179 652 182 655 182 655 c 2
 183 656 186 658 191 660 c 1
 195 663 203 668 209 672 c 0
 216 677 221 680 221 680 c 2
 222 680 226 682 231 684 c 0
 235 686 240 688 241 689 c 0
 243 690 249 693 254 695 c 0
 260 698 265 702 266 703 c 0
 267 704 270 706 274 707 c 1
 277 709 283 712 286 715 c 0
 289 718 294 722 297 723 c 0
EndSplineSet
Validated: 1
EndChar

StartChar: uni0032
Encoding: 50 50 19
Width: 581
GlyphClass: 2
Flags: HW
LayerCount: 2
Fore
SplineSet
231 739 m 0
 233 740 237 740 247 740 c 0
 251 740 257 740 263 740 c 0
 279 740 294 739 296 738 c 0
 298 737 315 736 334 736 c 0
 353 735 369 734 370 733 c 0
 371 733 374 731 378 731 c 0
 382 730 388 727 391 726 c 0
 395 724 404 721 412 719 c 0
 421 717 427 714 431 711 c 0
 434 709 437 707 438 707 c 0
 439 707 440 706 440 706 c 2
 440 705 445 702 451 699 c 0
 457 696 463 692 466 688 c 0
 468 686 474 679 478 674 c 0
 483 669 487 664 487 664 c 2
 487 663 489 659 492 655 c 0
 495 651 499 643 501 639 c 0
 503 634 504 630 504 629 c 0
 504 628 506 624 508 621 c 0
 511 617 513 614 514 614 c 2
 514 614 516 612 517 609 c 0
 519 606 521 601 521 598 c 0
 522 595 523 590 524 587 c 0
 526 582 526 575 526 551 c 0
 526 535 525 516 525 509 c 0
 524 501 523 496 522 494 c 0
 521 492 518 488 515 486 c 1
 513 483 510 480 508 478 c 0
 506 475 505 471 504 462 c 1
 504 451 503 449 499 444 c 0
 497 441 493 435 490 430 c 0
 487 426 484 421 483 420 c 0
 482 419 481 418 481 416 c 0
 481 415 476 409 470 404 c 0
 464 398 458 391 457 388 c 0
 456 385 450 378 445 372 c 1
 439 367 431 358 426 352 c 0
 421 347 416 339 414 336 c 0
 412 333 406 326 400 321 c 0
 395 316 389 312 389 312 c 2
 388 312 384 308 380 303 c 1
 375 299 371 295 370 295 c 2
 370 295 366 292 362 288 c 0
 357 284 353 278 350 272 c 0
 348 267 344 261 342 258 c 0
 341 256 336 252 332 250 c 0
 329 248 323 244 319 241 c 0
 316 238 310 234 307 232 c 1
 305 229 299 225 296 222 c 0
 293 220 289 217 288 217 c 2
 288 217 284 215 281 211 c 0
 278 208 275 205 275 204 c 0
 275 203 274 201 272 200 c 0
 270 198 264 194 259 190 c 0
 254 186 249 184 249 184 c 2
 248 184 247 183 246 182 c 0
 245 180 240 177 235 175 c 0
 230 172 223 167 220 164 c 0
 217 160 213 157 210 155 c 0
 207 154 202 152 199 150 c 0
 195 148 191 146 189 144 c 0
 188 143 186 139 185 136 c 0
 183 133 182 126 181 121 c 0
 180 115 180 111 182 108 c 0
 183 105 185 103 189 102 c 0
 192 101 210 100 236 100 c 0
 273 101 279 101 284 103 c 0
 288 105 295 106 313 106 c 1
 327 107 345 107 355 107 c 2
 414 107 l 2
 424 107 431 107 437 107 c 0
 453 107 457 108 460 109 c 0
 464 111 469 112 492 112 c 0
 513 112 520 111 523 109 c 0
 526 108 529 105 530 104 c 0
 531 102 532 97 532 93 c 0
 532 89 534 81 535 75 c 0
 537 68 538 59 538 51 c 0
 538 43 537 36 535 29 c 0
 533 22 530 17 527 14 c 0
 524 10 520 9 515 8 c 0
 512 8 504 7 499 7 c 0
 494 7 484 9 476 10 c 1
 466 13 462 13 456 12 c 0
 451 11 444 9 439 8 c 0
 431 6 428 6 414 7 c 0
 405 8 382 9 363 9 c 0
 335 9 327 9 323 11 c 0
 320 12 316 13 314 13 c 0
 313 13 309 12 307 11 c 0
 303 9 297 8 275 8 c 0
 253 8 247 7 243 5 c 0
 240 4 235 3 228 3 c 0
 222 3 217 3 214 5 c 0
 211 6 204 8 198 9 c 0
 192 9 183 10 177 9 c 0
 169 8 165 9 161 11 c 0
 157 12 153 13 151 13 c 0
 149 13 145 11 141 9 c 0
 137 7 131 6 128 6 c 0
 125 6 121 7 119 8 c 0
 115 10 111 10 102 10 c 0
 95 10 87 10 84 9 c 0
 81 8 76 6 72 5 c 0
 69 4 68 3 66 3 c 0
 63 3 59 4 51 7 c 0
 42 10 34 14 31 16 c 0
 26 20 26 20 26 34 c 0
 26 41 27 51 28 56 c 0
 29 60 30 80 30 100 c 0
 30 136 30 136 35 144 c 1
 37 150 42 155 46 159 c 0
 50 162 55 167 57 169 c 0
 59 171 64 176 67 181 c 0
 70 185 73 190 75 192 c 0
 77 194 80 196 83 197 c 0
 85 198 88 199 89 200 c 0
 91 201 96 204 101 207 c 0
 106 210 113 216 117 220 c 0
 120 224 124 229 126 231 c 1
 127 234 130 237 132 239 c 0
 133 240 138 244 142 246 c 0
 146 249 152 254 155 257 c 0
 159 261 164 265 167 267 c 0
 170 269 176 274 181 279 c 0
 186 283 193 291 196 295 c 0
 199 300 205 307 210 312 c 0
 215 316 221 322 225 324 c 0
 229 326 235 332 240 336 c 0
 244 340 250 345 254 347 c 0
 257 349 262 353 264 356 c 0
 267 359 270 363 272 366 c 0
 274 369 282 378 290 386 c 2
 311 407 l 2
 314 411 320 416 324 419 c 0
 328 421 332 425 334 427 c 1
 335 430 338 435 341 440 c 0
 344 445 350 453 356 458 c 0
 362 464 368 470 369 473 c 0
 370 475 371 480 371 483 c 0
 371 486 372 490 374 493 c 0
 376 496 378 501 380 504 c 0
 382 508 382 512 382 521 c 0
 382 529 383 535 385 540 c 0
 387 544 388 550 388 563 c 0
 388 578 387 580 384 586 c 0
 382 590 378 596 375 601 c 0
 373 605 370 611 368 613 c 1
 367 616 364 621 362 624 c 0
 359 628 356 630 350 632 c 0
 346 634 341 636 339 638 c 0
 337 639 334 641 332 642 c 0
 330 643 323 644 318 644 c 0
 311 644 305 645 296 648 c 0
 286 651 283 652 278 651 c 0
 275 650 266 650 259 650 c 0
 244 650 244 650 231 639 c 0
 224 633 216 625 214 622 c 1
 211 620 209 616 208 614 c 0
 207 612 205 607 203 603 c 0
 201 598 199 592 198 590 c 0
 197 587 196 583 195 580 c 1
 193 578 192 571 192 566 c 0
 191 557 190 555 187 551 c 0
 185 549 179 546 174 544 c 2
 159 539 l 2
 155 537 149 536 142 536 c 0
 135 537 127 536 123 534 c 0
 119 533 113 532 110 532 c 0
 106 532 99 534 94 536 c 0
 89 538 83 540 80 541 c 0
 77 542 74 542 69 540 c 0
 64 538 62 538 57 539 c 0
 54 540 49 544 46 547 c 0
 40 553 40 553 40 567 c 1
 41 578 42 583 44 586 c 0
 45 588 47 591 48 592 c 0
 49 592 51 595 53 598 c 0
 54 600 57 606 59 611 c 0
 61 617 63 624 64 628 c 0
 64 632 65 636 66 637 c 0
 67 638 69 643 71 649 c 0
 74 655 76 660 77 661 c 0
 78 662 81 666 84 670 c 0
 87 675 91 679 93 680 c 0
 95 682 99 685 103 689 c 0
 107 692 111 696 113 697 c 0
 115 698 120 700 124 701 c 0
 128 702 137 706 142 710 c 0
 151 716 155 717 163 718 c 0
 169 719 176 721 181 724 c 0
 187 727 192 729 198 730 c 0
 203 730 209 731 212 732 c 1
 214 734 218 735 221 736 c 1
 225 736 229 737 231 739 c 0
EndSplineSet
Validated: 1
EndChar

StartChar: uni0033
Encoding: 51 51 20
Width: 572
GlyphClass: 2
Flags: HW
LayerCount: 2
Fore
SplineSet
248 744 m 0
 254 746 264 746 279 747 c 1
 298 747 302 746 307 744 c 0
 310 742 315 742 320 742 c 0
 325 742 333 742 337 743 c 0
 343 744 347 743 357 740 c 0
 364 738 376 733 384 729 c 0
 391 726 398 722 399 722 c 0
 400 721 408 717 417 713 c 0
 433 706 434 704 448 690 c 0
 456 682 463 674 464 673 c 0
 465 672 470 667 476 662 c 0
 482 656 487 650 490 643 c 0
 492 638 495 633 496 633 c 0
 497 632 498 630 499 627 c 1
 501 625 502 618 503 612 c 0
 503 607 504 600 505 597 c 0
 507 594 508 589 508 585 c 1
 509 582 510 577 511 575 c 0
 513 571 514 565 514 552 c 0
 514 538 513 533 511 526 c 0
 509 522 508 516 508 512 c 0
 508 507 506 502 503 494 c 0
 500 488 495 480 492 476 c 0
 489 471 484 465 481 462 c 0
 477 459 473 453 471 451 c 0
 469 448 460 439 452 432 c 0
 443 424 435 417 433 416 c 0
 431 415 425 414 421 412 c 1
 415 411 410 410 407 411 c 0
 405 411 401 412 399 412 c 0
 397 412 392 410 389 408 c 0
 386 406 381 402 378 399 c 1
 376 395 374 392 374 389 c 0
 374 385 375 382 378 379 c 0
 380 376 384 373 386 371 c 0
 388 369 392 366 395 364 c 0
 399 362 404 360 408 359 c 0
 411 359 419 357 425 355 c 0
 431 353 438 350 440 349 c 0
 442 348 444 347 445 347 c 1
 445 346 448 344 450 342 c 0
 453 340 461 333 468 326 c 0
 475 319 481 312 482 310 c 0
 483 308 485 305 486 303 c 0
 486 301 491 298 495 295 c 0
 500 292 504 288 505 286 c 0
 506 284 507 278 508 273 c 1
 508 267 510 260 511 257 c 0
 512 254 515 248 517 243 c 0
 520 235 521 230 522 215 c 0
 522 203 522 194 521 188 c 0
 520 184 517 176 515 171 c 0
 513 166 509 157 507 151 c 0
 505 144 502 138 502 137 c 1
 501 137 500 132 498 127 c 0
 497 122 493 114 491 108 c 0
 488 102 482 93 477 88 c 1
 473 82 464 73 459 68 c 0
 453 63 445 57 441 55 c 0
 436 53 430 48 426 44 c 0
 422 41 415 36 410 33 c 0
 405 30 400 27 400 26 c 1
 399 26 397 24 394 23 c 0
 392 22 385 20 380 18 c 0
 375 17 367 15 362 15 c 1
 358 14 349 11 342 8 c 0
 333 5 328 4 315 3 c 0
 305 2 298 1 295 -1 c 0
 291 -3 285 -3 261 -3 c 0
 242 -3 232 -2 228 -1 c 0
 224 0 217 1 211 1 c 0
 205 1 199 2 195 4 c 0
 192 6 182 8 173 9 c 0
 163 11 155 13 151 15 c 0
 148 17 143 19 140 20 c 0
 138 20 132 23 127 25 c 0
 123 27 118 29 116 30 c 0
 114 30 108 34 103 38 c 0
 98 41 91 47 87 51 c 0
 83 54 77 59 72 61 c 0
 68 63 63 67 61 69 c 0
 60 71 58 75 57 78 c 0
 57 81 54 86 51 89 c 0
 48 92 44 97 42 100 c 0
 40 103 37 111 34 118 c 0
 30 127 28 134 28 142 c 1
 27 148 26 157 25 162 c 0
 24 166 23 173 23 177 c 0
 23 183 23 184 30 192 c 1
 38 199 38 199 51 200 c 0
 54 200 60 201 66 201 c 0
 72 201 80 200 86 200 c 0
 98 199 118 199 129 199 c 0
 146 200 149 200 153 197 c 0
 155 196 159 193 161 191 c 0
 163 188 165 185 166 183 c 0
 166 181 167 176 168 172 c 0
 169 167 171 161 173 157 c 0
 175 154 178 150 178 148 c 1
 179 147 180 143 181 140 c 0
 183 135 185 132 189 129 c 0
 193 126 198 122 200 119 c 0
 202 117 206 113 209 111 c 0
 212 110 219 105 225 101 c 0
 235 95 235 95 260 94 c 0
 282 94 286 94 294 97 c 0
 299 98 306 100 309 101 c 1
 314 101 317 103 323 109 c 1
 329 113 334 116 339 118 c 0
 345 120 349 122 354 127 c 0
 360 133 361 137 365 149 c 0
 368 157 371 168 373 172 c 1
 374 177 375 182 375 184 c 0
 375 186 376 190 378 192 c 1
 379 195 380 199 381 202 c 0
 381 205 380 209 379 214 c 1
 376 220 375 226 375 234 c 0
 375 241 375 248 374 251 c 0
 373 254 371 258 369 260 c 0
 366 263 363 269 361 273 c 0
 360 277 356 282 354 285 c 0
 352 289 350 292 350 292 c 2
 350 293 348 296 345 298 c 0
 343 300 337 304 332 305 c 1
 328 307 323 309 321 310 c 0
 320 311 315 313 311 315 c 0
 306 317 298 319 293 320 c 0
 287 321 282 322 280 323 c 0
 278 325 269 326 257 326 c 0
 243 326 235 326 227 324 c 0
 217 322 215 322 210 324 c 0
 207 325 203 328 202 330 c 1
 200 331 198 335 196 338 c 0
 194 342 193 348 193 361 c 0
 192 375 191 383 189 389 c 0
 187 394 186 402 186 406 c 0
 186 410 186 413 187 414 c 0
 188 414 191 418 193 423 c 1
 196 427 199 432 201 434 c 0
 202 435 205 438 207 439 c 0
 210 440 215 441 219 441 c 0
 222 441 226 441 227 440 c 0
 228 439 232 437 237 436 c 1
 241 434 247 433 251 433 c 0
 255 433 259 434 263 437 c 0
 268 440 271 441 282 441 c 1
 289 442 296 443 299 444 c 0
 301 445 306 447 311 448 c 0
 318 450 320 451 332 462 c 0
 339 469 348 479 352 484 c 0
 356 490 363 498 368 502 c 0
 376 510 376 510 376 551 c 0
 376 574 375 594 374 596 c 0
 373 599 372 601 371 601 c 2
 361 613 l 2
 355 620 349 627 347 630 c 0
 344 633 340 635 336 636 c 0
 332 637 327 639 325 640 c 0
 323 641 321 642 320 643 c 0
 318 644 314 647 310 649 c 0
 305 652 301 653 294 653 c 2
 274 653 l 1
 265 654 261 654 258 652 c 0
 256 651 252 649 249 647 c 0
 246 645 241 644 239 643 c 0
 236 642 228 639 220 635 c 0
 213 632 205 627 203 625 c 0
 201 623 197 617 195 611 c 1
 192 606 188 599 185 595 c 0
 182 591 180 586 179 582 c 0
 179 578 177 573 176 571 c 0
 175 569 173 565 171 563 c 0
 169 561 166 558 164 557 c 0
 162 556 153 555 139 555 c 2
 110 555 l 1
 74 555 l 2
 45 555 45 555 39 561 c 0
 35 566 33 569 32 575 c 0
 30 581 30 584 32 590 c 0
 33 594 37 601 40 605 c 0
 42 609 46 617 48 624 c 1
 51 630 54 638 56 641 c 0
 59 644 62 648 63 651 c 0
 64 653 69 660 74 665 c 0
 79 671 85 678 87 681 c 0
 89 684 94 690 97 694 c 0
 101 698 105 701 105 701 c 2
 106 701 110 704 115 707 c 0
 119 710 128 715 133 717 c 0
 139 720 148 723 153 725 c 0
 159 727 165 729 167 730 c 1
 170 730 177 733 183 736 c 0
 194 741 194 741 217 742 c 0
 232 742 242 743 248 744 c 0
EndSplineSet
Validated: 1
EndChar

StartChar: uni0034
Encoding: 52 52 21
Width: 578
GlyphClass: 2
Flags: HW
LayerCount: 2
Fore
SplineSet
425 742 m 0
 427 743 432 743 435 744 c 1
 440 744 442 743 446 740 c 1
 453 730 l 2
 456 726 456 723 456 711 c 0
 456 701 456 696 458 690 c 0
 461 683 461 682 459 675 c 0
 457 671 456 660 455 649 c 0
 453 631 453 631 457 623 c 0
 460 617 461 615 460 608 c 0
 460 603 458 595 457 590 c 0
 455 585 455 581 455 574 c 0
 455 568 455 559 456 545 c 0
 457 525 458 500 458 489 c 0
 458 472 458 468 455 460 c 0
 452 452 452 451 453 445 c 1
 455 440 455 423 455 363 c 0
 455 287 455 287 459 283 c 0
 461 281 465 279 468 278 c 0
 472 277 477 275 479 275 c 0
 483 274 486 274 491 277 c 0
 496 280 500 281 519 282 c 1
 539 282 542 282 546 280 c 0
 549 279 553 275 556 271 c 0
 560 265 560 265 561 228 c 0
 561 191 561 191 556 185 c 0
 553 181 549 177 547 176 c 0
 544 174 539 173 533 173 c 0
 526 173 521 174 518 176 c 0
 515 177 509 178 503 179 c 0
 498 179 491 180 489 181 c 0
 487 183 484 184 483 184 c 0
 482 184 477 182 472 179 c 0
 467 177 461 174 460 172 c 1
 458 171 455 166 454 161 c 0
 452 156 452 151 452 148 c 0
 453 145 454 139 455 134 c 0
 455 130 456 116 456 103 c 0
 456 87 457 80 458 76 c 0
 460 72 461 66 461 58 c 0
 461 51 460 41 458 36 c 0
 457 31 455 25 453 23 c 0
 451 20 448 17 446 16 c 0
 444 15 439 13 435 11 c 0
 431 10 424 9 418 9 c 0
 412 9 407 10 404 11 c 0
 401 13 395 14 382 14 c 0
 369 14 362 14 355 12 c 0
 347 10 346 10 339 12 c 1
 336 14 330 17 328 20 c 1
 324 23 323 26 322 31 c 0
 321 35 320 40 319 43 c 0
 317 46 317 50 317 53 c 0
 317 56 318 62 319 66 c 0
 322 73 322 78 322 110 c 0
 322 141 322 148 320 156 c 0
 318 162 316 169 316 171 c 0
 315 173 313 176 311 178 c 0
 309 180 305 182 302 183 c 0
 299 184 289 184 275 184 c 1
 263 183 253 182 252 181 c 0
 251 180 246 179 242 179 c 0
 238 179 233 177 230 176 c 0
 227 174 223 173 220 173 c 0
 218 173 212 175 207 176 c 0
 200 178 193 179 173 179 c 2
 138 179 l 1
 132 178 125 178 120 179 c 0
 116 180 110 181 106 182 c 0
 100 184 98 184 91 182 c 0
 87 180 79 179 73 179 c 0
 68 179 59 178 54 178 c 0
 49 177 43 178 40 178 c 0
 37 179 33 181 32 182 c 0
 30 184 27 187 26 189 c 0
 25 191 23 197 20 203 c 1
 18 210 17 217 17 222 c 0
 17 227 18 233 19 236 c 0
 21 239 22 243 21 251 c 0
 21 258 20 265 19 268 c 0
 18 271 17 278 17 284 c 0
 17 292 17 296 20 301 c 0
 23 306 27 312 31 316 c 0
 35 320 39 327 43 337 c 0
 48 348 50 352 57 360 c 1
 62 364 69 374 73 380 c 0
 77 387 83 395 85 399 c 0
 87 402 91 408 94 411 c 1
 96 415 99 419 100 420 c 0
 101 420 103 425 106 430 c 0
 108 435 113 442 116 447 c 1
 120 451 127 458 131 463 c 0
 137 469 139 472 140 477 c 0
 140 482 142 485 147 490 c 0
 150 493 154 497 157 499 c 0
 159 500 162 505 164 509 c 0
 166 513 168 516 168 517 c 0
 168 518 169 522 171 526 c 0
 173 530 177 535 179 539 c 1
 182 542 185 547 186 550 c 0
 187 553 192 559 196 563 c 0
 200 567 206 575 209 580 c 0
 212 585 216 593 218 598 c 0
 221 604 224 609 230 614 c 0
 235 619 240 625 242 631 c 0
 244 636 248 641 253 645 c 0
 257 649 261 654 263 656 c 1
 264 659 267 663 268 665 c 0
 270 668 275 675 279 683 c 0
 283 690 287 698 289 700 c 0
 290 702 292 704 292 705 c 2
 292 705 294 709 297 713 c 0
 300 717 302 721 302 721 c 2
 302 722 304 724 307 726 c 0
 309 728 314 731 317 733 c 0
 321 735 326 737 330 738 c 0
 335 739 351 740 379 740 c 1
 402 741 422 741 425 742 c 0
326 568 m 0
 322 570 318 572 315 572 c 0
 311 572 309 570 299 560 c 0
 293 553 287 547 287 545 c 1
 280 538 l 2
 278 535 275 530 274 528 c 0
 273 525 272 520 272 517 c 0
 272 514 271 510 269 507 c 0
 267 504 263 498 260 493 c 0
 257 488 254 484 253 484 c 1
 253 483 249 476 245 468 c 0
 241 460 236 451 235 449 c 0
 233 447 231 443 229 440 c 0
 227 438 225 435 223 433 c 0
 222 432 217 429 214 426 c 1
 210 424 205 420 202 417 c 0
 200 415 197 409 195 405 c 0
 193 401 191 395 190 391 c 0
 189 388 186 382 184 380 c 0
 181 377 176 372 173 368 c 0
 169 364 163 356 159 350 c 1
 154 345 150 340 150 339 c 2
 150 339 148 334 145 330 c 0
 142 325 137 319 134 315 c 0
 129 310 127 305 126 301 c 0
 126 298 124 293 123 290 c 0
 122 288 122 286 122 285 c 0
 122 284 122 283 123 281 c 0
 124 279 128 276 132 275 c 1
 136 272 139 272 146 272 c 1
 150 273 159 274 164 276 c 0
 173 279 177 279 186 278 c 0
 194 278 198 278 203 280 c 0
 208 281 215 282 229 282 c 0
 245 282 248 282 253 279 c 0
 256 278 259 276 260 275 c 0
 260 274 263 273 265 273 c 0
 267 273 271 274 273 275 c 0
 277 276 280 276 285 275 c 0
 291 274 295 274 305 275 c 1
 312 277 319 278 320 279 c 0
 321 279 324 283 327 286 c 0
 330 290 332 295 332 299 c 0
 333 303 332 307 331 310 c 0
 329 313 328 318 328 325 c 0
 328 331 327 342 325 350 c 0
 324 357 322 368 322 373 c 0
 322 379 323 386 325 389 c 0
 326 392 328 397 330 400 c 0
 333 404 333 404 331 413 c 1
 329 417 328 425 327 429 c 0
 326 435 326 444 327 459 c 0
 328 471 328 488 328 497 c 0
 328 507 329 514 330 518 c 1
 332 521 333 529 333 540 c 0
 333 549 333 558 332 560 c 0
 332 562 329 566 326 568 c 0
EndSplineSet
Validated: 1
EndChar

StartChar: uni0035
Encoding: 53 53 22
Width: 572
GlyphClass: 2
Flags: HW
LayerCount: 2
Fore
SplineSet
97 742 m 0
 104 742 112 743 116 743 c 0
 120 742 126 741 128 739 c 0
 133 736 137 736 159 735 c 0
 178 735 189 735 202 737 c 0
 212 739 224 740 230 740 c 0
 237 741 241 740 245 738 c 0
 250 736 256 736 302 736 c 0
 312 736 321 736 328 736 c 0
 348 736 360 737 368 738 c 0
 376 739 390 740 398 740 c 0
 408 741 415 740 417 739 c 0
 419 738 425 737 431 736 c 0
 441 735 444 735 451 738 c 1
 456 739 461 741 461 741 c 2
 462 741 468 738 474 736 c 0
 480 733 486 728 489 725 c 0
 494 720 494 720 494 703 c 0
 494 691 493 684 492 680 c 0
 490 676 490 672 490 666 c 0
 491 660 491 656 489 653 c 0
 488 650 487 648 486 648 c 2
 484 646 l 1
 484 644 481 641 477 640 c 1
 471 636 470 636 455 637 c 0
 446 637 436 638 432 639 c 0
 426 641 426 641 418 637 c 0
 413 634 410 633 406 634 c 0
 403 634 396 636 392 639 c 1
 383 642 382 643 352 643 c 0
 341 643 334 644 329 644 c 0
 320 644 315 643 309 641 c 0
 302 639 293 638 286 638 c 0
 279 638 272 639 267 640 c 1
 260 643 255 643 230 643 c 0
 202 643 200 643 194 639 c 0
 191 637 186 633 183 630 c 0
 181 627 177 621 176 618 c 0
 174 615 172 606 172 598 c 0
 171 590 171 574 171 563 c 0
 171 551 173 540 174 536 c 0
 176 529 176 528 173 520 c 0
 171 515 168 508 168 506 c 0
 167 503 166 496 165 490 c 0
 165 484 164 478 163 477 c 0
 162 476 161 473 160 469 c 0
 159 464 158 462 160 457 c 0
 161 453 163 449 164 447 c 0
 166 445 170 442 174 440 c 0
 178 438 183 436 185 436 c 0
 187 436 194 439 201 443 c 0
 208 446 217 452 222 456 c 0
 226 460 233 466 238 469 c 0
 244 473 247 474 259 475 c 0
 266 476 275 476 277 476 c 0
 280 475 287 477 300 481 c 0
 310 485 320 488 323 488 c 0
 325 488 330 487 334 486 c 0
 338 485 345 483 350 483 c 1
 354 482 362 480 367 478 c 0
 371 476 378 473 381 473 c 1
 383 472 390 469 396 466 c 0
 402 464 410 461 414 460 c 0
 418 460 423 458 426 456 c 0
 428 454 432 449 434 446 c 0
 437 442 441 437 444 436 c 0
 447 434 451 432 455 431 c 0
 459 430 463 428 471 420 c 0
 480 412 484 406 491 393 c 0
 496 384 501 373 503 369 c 0
 504 365 506 359 506 355 c 1
 507 352 508 347 510 346 c 1
 511 344 513 341 514 339 c 0
 516 337 517 331 518 323 c 0
 518 316 519 309 521 306 c 0
 522 303 524 297 524 291 c 0
 524 286 526 279 527 276 c 0
 528 273 529 268 529 265 c 0
 529 262 528 257 527 253 c 0
 526 250 524 239 524 229 c 0
 523 219 522 209 521 207 c 0
 520 205 519 198 519 192 c 0
 518 186 517 180 516 178 c 0
 515 177 513 172 511 167 c 0
 509 162 507 155 506 152 c 0
 506 149 504 143 502 139 c 0
 500 135 499 131 498 131 c 1
 498 130 496 127 493 124 c 0
 491 121 489 116 489 113 c 1
 488 111 486 105 484 101 c 0
 482 97 478 91 475 89 c 1
 473 86 470 84 470 84 c 2
 469 84 466 82 462 79 c 0
 459 76 455 73 454 71 c 0
 453 68 451 65 448 63 c 0
 446 62 441 57 436 53 c 0
 431 50 425 44 422 42 c 1
 420 39 417 37 416 37 c 2
 416 37 413 35 411 33 c 0
 408 31 403 28 399 26 c 0
 395 25 391 23 389 22 c 0
 388 21 379 17 370 12 c 0
 353 3 353 3 331 3 c 1
 314 2 308 2 304 0 c 0
 301 -2 297 -3 295 -3 c 0
 292 -3 287 -4 283 -6 c 0
 279 -7 277 -7 275 -7 c 0
 273 -7 270 -7 266 -5 c 2
 250 -1 l 2
 245 1 236 2 216 2 c 0
 190 2 190 2 177 8 c 0
 170 12 159 16 154 19 c 0
 149 22 142 25 140 27 c 0
 137 29 133 31 130 31 c 0
 127 32 122 34 119 36 c 0
 116 38 111 43 107 47 c 0
 104 51 100 54 99 54 c 0
 98 54 89 62 79 72 c 0
 70 81 60 92 58 95 c 0
 56 98 52 105 50 111 c 0
 49 116 45 123 43 125 c 0
 41 128 37 134 35 138 c 0
 33 143 32 149 32 152 c 0
 32 156 33 160 34 163 c 0
 35 165 39 169 43 173 c 0
 46 176 51 179 52 180 c 0
 54 181 60 182 66 182 c 0
 71 182 78 181 83 180 c 1
 89 177 90 177 97 180 c 0
 101 181 107 182 110 182 c 0
 114 182 120 181 123 180 c 0
 129 178 130 178 136 180 c 0
 140 181 144 182 145 182 c 0
 146 182 151 180 156 178 c 0
 161 176 167 172 168 170 c 0
 170 168 173 164 175 161 c 0
 176 158 178 154 178 152 c 0
 178 150 179 147 181 144 c 0
 183 141 186 137 189 134 c 0
 192 132 196 127 199 123 c 0
 202 119 205 115 206 114 c 0
 206 113 209 109 212 106 c 0
 216 102 221 98 224 97 c 0
 227 95 232 94 235 94 c 0
 238 94 244 95 248 96 c 0
 254 97 259 97 268 96 c 0
 278 94 281 94 288 96 c 0
 292 97 301 99 307 100 c 0
 313 101 320 103 325 105 c 0
 330 107 336 111 339 114 c 0
 342 117 347 121 349 123 c 0
 350 124 354 128 356 131 c 0
 358 135 360 139 361 140 c 2
 375 167 l 2
 387 192 387 192 387 205 c 0
 387 212 388 221 389 225 c 0
 390 228 390 233 390 235 c 0
 389 237 391 243 393 248 c 0
 397 257 397 258 395 264 c 0
 394 267 393 270 392 271 c 0
 392 272 388 280 385 289 c 0
 380 302 379 307 379 315 c 0
 379 320 378 326 377 329 c 0
 377 331 373 335 370 339 c 0
 367 342 363 347 361 351 c 0
 359 354 354 359 351 361 c 0
 347 363 342 367 339 370 c 0
 337 372 332 376 329 377 c 0
 326 379 320 382 316 384 c 0
 311 387 303 389 295 390 c 0
 288 390 278 391 272 391 c 1
 267 390 260 389 257 388 c 0
 254 386 249 385 245 384 c 1
 240 384 235 382 230 379 c 0
 226 376 220 373 217 372 c 0
 214 371 210 368 207 365 c 0
 204 362 201 358 201 357 c 0
 200 356 199 353 197 351 c 0
 196 349 193 344 190 341 c 1
 188 337 184 331 182 327 c 0
 179 322 176 318 173 316 c 0
 169 314 162 314 112 314 c 0
 59 315 55 315 51 317 c 0
 49 319 46 322 45 324 c 0
 43 327 42 332 42 345 c 1
 41 355 42 364 43 369 c 0
 45 375 45 379 44 392 c 0
 43 401 42 410 42 412 c 0
 41 415 42 420 43 424 c 0
 43 428 45 436 46 441 c 0
 48 449 49 463 49 516 c 0
 50 576 50 582 53 589 c 0
 55 596 55 600 55 611 c 0
 55 618 54 626 53 628 c 0
 52 632 53 636 55 648 c 1
 59 662 59 663 57 673 c 0
 56 679 55 687 54 691 c 0
 53 695 53 703 54 712 c 1
 54 725 55 727 59 731 c 0
 61 733 65 735 68 736 c 0
 71 736 76 738 79 739 c 0
 82 740 90 741 97 742 c 0
EndSplineSet
Validated: 1
EndChar

StartChar: uni0036
Encoding: 54 54 23
Width: 574
GlyphClass: 2
Flags: HW
LayerCount: 2
Fore
SplineSet
272 736 m 0
 282 741 282 741 321 741 c 0
 355 741 359 740 366 738 c 0
 372 736 378 735 386 735 c 0
 397 735 398 735 412 728 c 0
 419 724 428 719 430 717 c 0
 432 715 437 713 441 712 c 0
 445 712 452 709 456 707 c 0
 461 704 466 701 468 700 c 1
 469 698 472 696 474 695 c 2
 480 692 l 2
 481 691 484 688 486 685 c 1
 489 683 492 680 493 678 c 0
 494 677 497 671 500 665 c 0
 503 660 508 651 510 646 c 0
 512 641 515 633 518 628 c 0
 520 623 525 615 528 610 c 0
 532 604 534 599 534 596 c 0
 534 593 534 589 533 587 c 0
 532 585 530 581 527 578 c 0
 525 575 521 572 519 570 c 0
 515 568 511 567 464 567 c 0
 414 567 414 567 405 572 c 0
 400 575 395 579 394 580 c 2
 389 590 l 2
 388 593 386 600 385 604 c 1
 385 609 383 613 382 615 c 0
 380 617 377 619 374 621 c 0
 371 622 367 624 365 625 c 0
 363 626 360 627 359 628 c 0
 357 629 354 631 351 633 c 0
 347 636 344 637 331 637 c 1
 323 638 314 639 311 640 c 0
 308 641 299 642 291 643 c 1
 277 643 277 643 267 636 c 0
 261 632 253 628 248 626 c 0
 242 624 236 621 233 619 c 0
 231 618 225 613 221 609 c 0
 216 604 214 601 212 595 c 0
 211 591 208 582 206 575 c 0
 205 568 202 556 201 549 c 0
 200 542 198 531 197 526 c 0
 196 521 194 515 193 512 c 0
 192 510 189 504 187 499 c 0
 184 491 184 488 184 462 c 0
 184 436 184 433 187 430 c 1
 189 426 192 425 199 424 c 0
 207 422 207 422 219 428 c 0
 225 431 232 434 234 435 c 0
 235 436 240 440 244 443 c 0
 248 446 253 450 255 451 c 0
 257 452 260 453 262 453 c 0
 264 454 273 458 282 462 c 0
 297 470 297 470 316 471 c 0
 327 472 340 472 345 472 c 0
 350 472 362 472 372 471 c 0
 389 470 390 470 395 465 c 1
 399 463 408 459 417 455 c 1
 427 452 437 447 444 443 c 0
 449 439 457 434 459 431 c 1
 471 423 l 2
 475 421 483 414 488 408 c 0
 494 402 500 395 502 391 c 0
 503 388 506 383 509 379 c 0
 511 376 514 371 515 369 c 0
 517 367 519 360 520 354 c 0
 522 348 525 338 528 332 c 0
 531 326 534 320 534 319 c 0
 535 317 536 310 536 303 c 0
 536 294 537 287 539 280 c 0
 540 275 542 269 542 267 c 0
 542 264 543 257 545 252 c 1
 546 246 548 238 548 234 c 0
 548 229 547 224 546 222 c 0
 544 220 543 215 542 212 c 1
 542 208 540 202 538 198 c 0
 536 194 534 185 532 179 c 0
 531 173 530 164 530 160 c 0
 530 153 529 149 526 143 c 0
 523 138 521 133 520 131 c 0
 520 129 517 124 515 121 c 0
 512 118 508 111 505 107 c 0
 502 102 497 94 495 89 c 0
 492 84 489 79 486 78 c 1
 484 76 477 70 470 64 c 1
 464 57 454 49 449 46 c 0
 444 42 439 39 439 38 c 1
 438 38 436 36 433 34 c 0
 431 32 428 31 428 31 c 2
 427 31 421 28 413 24 c 0
 406 20 398 16 396 13 c 1
 393 11 388 8 384 6 c 0
 380 5 373 3 368 2 c 0
 363 2 357 0 354 -1 c 0
 351 -2 344 -3 337 -3 c 0
 328 -3 322 -4 315 -6 c 0
 311 -8 308 -9 304 -9 c 0
 302 -9 300 -8 297 -8 c 0
 292 -8 280 -7 269 -7 c 0
 259 -7 244 -6 237 -5 c 1
 229 -5 221 -3 214 0 c 0
 208 3 196 7 188 10 c 0
 181 12 171 16 168 19 c 1
 164 21 158 25 154 26 c 0
 150 28 142 32 136 36 c 0
 130 39 122 45 119 49 c 0
 116 52 110 59 106 65 c 0
 103 70 98 76 96 79 c 0
 94 82 89 90 86 97 c 0
 82 104 77 115 75 122 c 0
 73 129 70 135 69 137 c 0
 68 138 67 140 66 142 c 0
 66 144 64 147 63 149 c 0
 62 150 61 153 60 156 c 0
 60 159 59 168 57 177 c 0
 56 185 55 194 54 195 c 0
 53 197 51 202 50 207 c 0
 49 212 46 218 44 221 c 0
 42 224 40 228 40 230 c 0
 39 232 40 237 41 240 c 0
 42 243 43 248 43 250 c 0
 43 251 42 255 41 257 c 0
 39 261 39 270 38 306 c 0
 38 330 38 357 39 365 c 0
 40 373 42 384 43 388 c 0
 44 393 45 399 45 401 c 0
 45 403 43 408 42 413 c 0
 39 421 39 421 42 428 c 0
 44 433 45 439 45 450 c 0
 45 463 45 465 49 472 c 0
 51 477 52 481 52 484 c 0
 51 487 52 491 53 493 c 0
 53 495 55 500 55 503 c 0
 56 507 58 518 59 528 c 0
 61 538 63 548 64 549 c 0
 65 550 66 555 68 561 c 0
 69 566 71 573 72 575 c 0
 74 578 78 584 82 589 c 0
 85 593 90 601 92 605 c 0
 95 610 96 614 96 616 c 0
 96 617 99 624 103 632 c 0
 107 640 111 648 112 651 c 0
 114 654 119 659 126 664 c 0
 134 670 139 675 143 680 c 0
 146 685 150 690 153 693 c 0
 155 695 167 701 178 707 c 0
 194 715 201 717 207 718 c 0
 212 718 218 720 219 721 c 0
 221 722 225 724 228 726 c 0
 232 728 238 730 248 730 c 0
 258 731 265 733 272 736 c 0
316 376 m 0
 314 377 311 378 309 378 c 0
 307 377 304 377 301 375 c 0
 299 374 293 373 288 373 c 0
 283 373 276 372 271 371 c 0
 267 370 260 368 257 367 c 1
 253 367 246 364 242 361 c 0
 238 358 230 352 225 347 c 0
 220 343 215 337 214 335 c 0
 213 333 211 329 209 327 c 0
 208 325 205 320 204 316 c 0
 202 312 199 305 196 300 c 0
 194 296 190 287 188 282 c 0
 186 277 185 271 185 268 c 0
 185 266 186 261 187 257 c 0
 189 251 189 249 188 244 c 1
 186 240 186 235 187 228 c 0
 187 222 188 205 189 191 c 0
 190 165 190 165 195 156 c 0
 198 150 201 144 201 142 c 0
 202 139 206 134 212 128 c 0
 218 123 227 115 232 111 c 0
 238 107 247 102 254 100 c 0
 260 98 268 95 272 95 c 1
 275 94 282 92 286 91 c 0
 290 90 294 89 297 89 c 0
 298 89 299 89 300 89 c 0
 303 89 308 91 310 92 c 0
 312 93 318 94 323 94 c 0
 328 94 334 95 336 96 c 0
 339 97 344 100 347 103 c 0
 349 106 353 109 355 110 c 0
 357 111 364 117 370 123 c 0
 377 129 385 138 388 143 c 1
 392 147 395 154 396 157 c 0
 397 161 399 166 400 169 c 0
 402 172 403 181 404 192 c 0
 405 201 406 214 407 219 c 0
 408 224 409 230 409 239 c 0
 409 242 409 246 409 251 c 0
 409 272 408 273 403 285 c 0
 400 292 397 301 397 305 c 0
 396 309 395 313 393 315 c 0
 392 317 389 321 387 325 c 0
 384 330 375 340 366 349 c 0
 352 362 348 366 343 367 c 0
 341 367 337 368 337 369 c 0
 336 370 331 371 327 372 c 0
 322 374 317 375 316 376 c 0
EndSplineSet
Validated: 1
EndChar

StartChar: uni0037
Encoding: 55 55 24
Width: 577
GlyphClass: 2
Flags: HW
LayerCount: 2
Fore
SplineSet
58 724 m 1
 73 724 l 2
 82 724 86 724 91 721 c 1
 95 720 102 718 107 718 c 0
 114 717 118 718 125 720 c 0
 134 723 136 723 163 723 c 0
 179 723 196 722 202 721 c 0
 207 720 215 718 220 717 c 0
 227 716 232 716 239 717 c 0
 244 718 250 720 253 721 c 0
 256 722 262 723 266 723 c 0
 271 723 278 722 282 721 c 0
 287 720 289 720 294 722 c 0
 297 723 304 723 311 723 c 0
 318 723 328 722 334 721 c 0
 341 719 352 718 380 718 c 0
 410 718 418 719 423 721 c 0
 427 722 433 723 436 723 c 0
 440 723 447 722 452 720 c 0
 459 718 463 717 469 718 c 0
 473 718 479 720 482 721 c 0
 486 722 494 723 501 723 c 0
 512 723 513 723 519 718 c 0
 522 715 525 711 527 706 c 0
 529 700 530 693 530 660 c 0
 530 633 530 620 529 619 c 0
 528 617 525 612 523 607 c 0
 521 601 519 595 519 593 c 0
 519 591 518 587 516 584 c 0
 515 581 513 573 512 568 c 0
 511 562 509 555 508 553 c 0
 506 550 504 547 504 545 c 1
 503 544 501 541 500 540 c 0
 498 538 496 533 494 529 c 0
 491 524 490 519 490 516 c 0
 490 514 489 511 487 509 c 0
 486 507 484 501 483 495 c 0
 482 489 479 481 476 476 c 0
 474 472 469 460 465 451 c 1
 462 441 459 433 459 433 c 2
 459 432 457 428 454 424 c 0
 451 420 449 416 449 415 c 2
 449 415 446 409 443 402 c 0
 439 395 437 389 437 387 c 0
 437 386 436 382 435 379 c 0
 433 376 431 373 430 371 c 0
 428 369 425 363 423 356 c 0
 421 350 416 341 414 337 c 0
 411 333 409 328 409 327 c 2
 409 327 407 322 405 318 c 0
 403 314 400 306 399 301 c 0
 397 295 394 288 393 284 c 1
 391 281 390 276 389 273 c 0
 389 270 388 267 387 265 c 0
 386 264 384 257 382 251 c 2
 373 229 l 2
 370 224 366 216 364 211 c 0
 362 206 360 200 360 196 c 0
 359 192 358 189 357 189 c 1
 357 188 355 185 354 180 c 0
 353 176 351 171 350 168 c 0
 349 166 347 162 346 161 c 0
 345 159 343 154 340 149 c 0
 338 145 336 141 335 141 c 2
 335 141 332 137 330 131 c 1
 327 126 323 118 320 113 c 0
 317 109 314 103 313 99 c 0
 313 96 312 90 312 86 c 0
 312 81 311 78 311 77 c 1
 310 77 308 73 307 68 c 0
 306 63 302 55 299 50 c 0
 296 45 292 38 289 35 c 1
 287 31 285 24 284 19 c 0
 283 14 281 8 280 6 c 0
 278 4 273 1 268 -1 c 0
 261 -4 259 -5 252 -5 c 0
 248 -5 243 -4 236 -4 c 0
 229 -4 224 -3 220 -3 c 0
 213 -3 210 -4 204 -6 c 0
 195 -8 189 -9 170 -9 c 0
 149 -9 147 -9 139 -5 c 0
 135 -3 130 0 129 2 c 0
 128 4 126 8 126 11 c 0
 125 14 126 17 128 22 c 0
 130 26 132 30 133 31 c 0
 134 32 136 36 137 40 c 0
 138 44 140 50 141 54 c 1
 143 57 148 63 152 68 c 0
 158 75 160 79 161 83 c 0
 162 86 163 92 164 95 c 0
 166 99 168 106 170 110 c 0
 172 114 176 121 179 125 c 1
 181 130 184 136 185 140 c 0
 186 144 189 151 192 157 c 0
 195 162 197 167 197 168 c 0
 197 169 200 175 203 181 c 0
 206 187 209 193 211 195 c 0
 212 197 214 203 214 208 c 0
 215 213 216 219 217 221 c 0
 218 224 219 228 220 231 c 0
 221 235 223 239 228 244 c 0
 232 249 238 258 242 265 c 0
 247 274 249 280 250 286 c 0
 250 291 252 298 254 303 c 0
 256 307 258 313 259 315 c 0
 260 317 262 319 262 319 c 1
 262 319 265 322 267 326 c 0
 270 330 274 338 276 344 c 0
 278 350 280 356 280 358 c 0
 280 359 282 365 285 371 c 0
 287 377 291 384 293 386 c 0
 294 388 296 392 296 395 c 0
 297 399 298 401 299 402 c 2
 299 402 301 406 302 410 c 0
 303 415 305 421 308 423 c 1
 310 426 313 432 315 437 c 0
 317 441 319 448 319 452 c 0
 320 456 322 461 323 463 c 0
 325 465 327 468 328 470 c 0
 329 471 332 476 334 481 c 0
 336 486 340 495 343 502 c 0
 346 508 349 517 350 520 c 0
 351 524 353 530 354 535 c 0
 356 540 359 545 363 549 c 0
 367 553 372 561 375 566 c 0
 378 572 382 580 385 584 c 0
 388 588 390 593 390 595 c 0
 390 597 388 600 384 604 c 0
 381 607 373 612 368 615 c 0
 361 618 355 619 349 620 c 1
 341 620 337 620 330 617 c 1
 322 615 317 614 292 614 c 0
 266 614 261 615 254 617 c 0
 247 620 245 620 239 619 c 0
 236 618 233 616 232 616 c 0
 231 615 220 614 208 614 c 0
 191 614 185 615 182 616 c 0
 179 618 176 619 175 619 c 0
 174 619 171 618 169 617 c 0
 167 616 160 614 154 613 c 0
 149 613 140 613 130 613 c 0
 125 613 119 613 114 613 c 0
 91 613 85 613 81 611 c 0
 77 610 72 608 69 608 c 0
 65 608 60 610 58 611 c 0
 56 612 52 616 49 619 c 1
 47 623 43 630 41 636 c 0
 39 645 38 649 39 659 c 0
 39 666 40 673 41 674 c 0
 42 676 42 679 41 684 c 1
 39 688 38 694 38 697 c 0
 38 700 39 704 41 707 c 0
 42 710 46 715 49 718 c 0
 52 721 56 723 58 724 c 1
EndSplineSet
Validated: 1
EndChar

StartChar: uni0038
Encoding: 56 56 25
Width: 567
GlyphClass: 2
Flags: HW
LayerCount: 2
Fore
SplineSet
324 738 m 0
 326 739 329 739 332 739 c 0
 336 739 340 738 344 735 c 0
 350 731 354 730 361 729 c 0
 367 728 375 727 381 725 c 0
 386 724 392 722 395 720 c 0
 398 719 405 716 411 714 c 0
 417 712 424 710 427 709 c 0
 429 708 437 702 445 696 c 0
 453 690 463 684 467 681 c 0
 471 679 476 676 478 674 c 0
 481 672 484 670 486 668 c 0
 488 666 490 663 491 660 c 1
 493 658 494 652 495 648 c 0
 496 642 498 638 503 633 c 0
 506 630 508 626 508 626 c 2
 508 625 510 620 513 616 c 1
 515 611 519 605 521 601 c 0
 523 597 526 592 528 589 c 0
 530 584 530 579 530 567 c 0
 530 558 531 547 532 542 c 0
 534 534 534 533 530 528 c 0
 527 523 526 520 525 513 c 0
 525 508 524 502 523 500 c 0
 522 499 520 494 519 491 c 0
 517 487 514 482 511 478 c 0
 509 475 504 468 501 462 c 0
 499 456 495 448 493 446 c 0
 491 443 487 439 484 438 c 0
 481 436 475 431 471 427 c 1
 466 424 460 419 456 417 c 0
 452 416 446 414 442 413 c 0
 437 412 432 411 428 410 c 0
 425 409 419 409 415 409 c 0
 412 409 406 408 403 406 c 1
 399 405 398 403 397 398 c 0
 396 394 394 390 394 389 c 0
 393 388 392 385 392 383 c 0
 392 380 395 377 401 372 c 0
 406 368 412 364 413 363 c 0
 415 362 420 360 425 358 c 0
 429 356 435 354 438 353 c 0
 441 353 444 352 445 351 c 0
 446 350 451 348 456 346 c 0
 462 343 466 340 470 334 c 1
 474 330 480 325 484 322 c 0
 488 319 493 315 495 313 c 0
 497 310 503 304 508 300 c 0
 512 296 517 291 518 289 c 0
 519 287 521 280 523 274 c 0
 525 268 527 259 528 254 c 0
 528 250 531 241 533 235 c 0
 535 229 537 219 538 214 c 0
 538 210 538 206 538 202 c 0
 538 200 538 198 538 196 c 0
 537 192 536 185 536 180 c 0
 536 175 535 168 533 163 c 0
 532 159 529 151 527 145 c 0
 526 140 523 131 522 126 c 0
 520 121 517 113 515 109 c 0
 513 105 508 97 503 92 c 0
 498 86 493 80 492 79 c 0
 491 77 489 74 487 71 c 0
 485 69 476 62 468 55 c 1
 459 49 451 42 449 40 c 0
 448 38 443 34 438 30 c 0
 433 27 428 23 427 23 c 0
 425 22 421 21 417 20 c 0
 413 19 406 17 401 15 c 0
 397 13 392 11 390 10 c 0
 388 9 384 7 379 6 c 1
 375 4 368 3 364 3 c 0
 360 3 354 1 349 0 c 1
 345 -2 340 -3 337 -3 c 0
 335 -3 328 -4 322 -6 c 0
 316 -8 309 -9 305 -9 c 0
 301 -9 296 -8 292 -7 c 1
 289 -5 284 -5 282 -5 c 0
 280 -6 274 -8 270 -11 c 1
 265 -13 259 -15 256 -15 c 0
 254 -15 250 -14 246 -13 c 0
 243 -12 239 -10 237 -9 c 1
 236 -7 232 -6 230 -5 c 0
 228 -4 223 -3 218 -3 c 0
 213 -3 207 -2 198 2 c 0
 191 5 183 8 177 8 c 1
 172 9 164 10 159 12 c 1
 153 13 147 15 145 15 c 0
 142 16 137 20 131 25 c 1
 126 31 120 36 116 39 c 0
 112 41 104 48 97 55 c 0
 90 62 85 68 85 69 c 2
 85 69 81 74 76 78 c 0
 71 82 67 86 67 87 c 0
 67 88 66 90 64 92 c 0
 63 93 58 102 53 111 c 0
 49 120 43 134 40 142 c 0
 37 151 34 162 33 167 c 0
 32 173 32 180 32 184 c 0
 32 188 32 198 33 206 c 0
 34 214 36 223 36 225 c 0
 37 228 38 235 39 241 c 0
 39 247 41 254 42 257 c 0
 43 260 46 266 48 270 c 0
 50 275 55 282 60 287 c 0
 64 292 69 296 69 297 c 1
 70 297 71 300 73 303 c 0
 75 306 77 311 79 314 c 0
 81 318 87 326 93 332 c 0
 100 339 108 345 113 348 c 0
 118 350 124 353 126 353 c 0
 129 354 133 355 135 355 c 0
 137 355 142 356 146 357 c 0
 150 358 156 359 158 360 c 0
 161 361 165 363 168 365 c 1
 170 368 172 372 173 375 c 0
 174 379 174 382 173 386 c 0
 172 390 170 393 165 396 c 1
 162 399 154 402 149 404 c 1
 143 405 136 409 132 411 c 0
 128 414 120 418 114 421 c 0
 104 425 100 429 85 443 c 2
 65 463 l 2
 64 465 61 469 60 472 c 0
 59 476 56 483 54 488 c 0
 53 493 50 501 49 505 c 0
 48 509 46 518 45 525 c 0
 44 532 43 541 42 545 c 0
 40 551 40 553 41 557 c 1
 43 559 44 563 45 566 c 0
 45 569 46 572 47 572 c 1
 47 573 50 579 52 585 c 0
 54 591 56 600 57 604 c 0
 57 607 59 613 60 615 c 0
 61 617 63 621 65 623 c 0
 67 625 69 629 70 631 c 1
 72 632 75 637 78 640 c 0
 81 643 85 650 88 655 c 0
 91 660 95 667 98 670 c 0
 101 674 104 677 105 677 c 1
 105 678 110 681 114 685 c 1
 119 688 126 694 131 697 c 0
 135 700 140 703 142 704 c 0
 144 704 149 706 153 706 c 0
 157 707 162 708 164 710 c 0
 165 711 168 713 170 715 c 0
 172 716 176 717 179 718 c 0
 182 719 188 721 193 724 c 0
 200 727 204 728 217 729 c 0
 225 730 234 731 237 732 c 0
 242 734 254 735 282 736 c 0
 303 736 322 737 324 738 c 0
297 643 m 0
 289 643 280 644 276 644 c 0
 275 644 273 644 272 644 c 0
 269 644 266 644 263 643 c 0
 259 641 254 639 250 637 c 0
 247 635 240 632 236 630 c 0
 232 629 226 626 223 625 c 0
 220 624 215 620 212 617 c 0
 208 614 203 610 200 607 c 0
 197 605 192 599 190 593 c 1
 187 588 184 578 182 571 c 0
 178 559 178 557 179 546 c 0
 180 539 181 533 182 532 c 0
 182 531 183 526 184 520 c 0
 184 515 186 506 187 500 c 0
 188 494 191 484 194 479 c 0
 198 471 202 466 210 458 c 0
 217 452 225 446 228 444 c 0
 232 442 237 441 241 441 c 0
 244 441 251 440 255 438 c 1
 260 437 268 434 272 433 c 0
 279 431 286 430 299 430 c 0
 315 430 318 431 325 434 c 0
 329 436 334 439 335 440 c 0
 337 441 344 445 351 449 c 0
 358 453 365 457 367 459 c 0
 369 461 372 465 375 469 c 0
 378 474 382 480 385 483 c 0
 388 486 391 491 392 494 c 0
 393 497 394 503 394 508 c 0
 395 514 397 521 398 524 c 0
 400 528 402 533 402 536 c 0
 403 539 401 547 396 561 c 0
 392 573 388 585 386 589 c 0
 384 593 380 599 377 603 c 0
 374 607 371 611 370 611 c 0
 369 612 363 616 358 622 c 0
 352 628 346 633 344 634 c 0
 341 635 336 637 331 637 c 0
 326 638 320 639 317 640 c 0
 314 641 306 642 297 643 c 0
315 323 m 0
 312 325 305 325 289 326 c 1
 268 326 266 326 256 323 c 0
 251 321 245 319 244 319 c 0
 242 319 237 317 231 315 c 0
 226 313 218 309 215 307 c 0
 212 305 207 300 204 297 c 0
 201 294 196 287 193 281 c 1
 189 276 186 269 185 266 c 0
 184 263 182 257 179 254 c 1
 177 250 174 245 173 242 c 0
 172 238 171 225 171 201 c 0
 171 167 171 167 175 156 c 0
 178 149 182 141 186 137 c 0
 190 133 195 125 199 120 c 0
 202 115 207 108 211 106 c 1
 214 103 219 98 223 96 c 1
 226 93 232 90 236 89 c 0
 240 88 246 87 249 86 c 0
 254 84 264 83 288 83 c 0
 319 83 322 83 331 86 c 0
 337 88 345 92 349 95 c 2
 360 106 l 2
 362 108 365 113 368 115 c 0
 370 117 373 119 374 120 c 1
 376 120 381 125 386 131 c 0
 391 136 396 143 397 145 c 0
 397 147 398 152 398 157 c 0
 398 162 399 169 401 172 c 1
 402 177 403 185 403 203 c 0
 403 221 403 230 401 233 c 0
 400 235 399 242 398 247 c 0
 397 253 395 261 393 265 c 0
 391 269 386 276 383 280 c 1
 379 283 372 289 368 292 c 0
 363 295 357 301 353 305 c 1
 350 310 345 314 341 316 c 0
 338 318 332 319 327 320 c 0
 323 320 318 322 315 323 c 0
EndSplineSet
Validated: 1
EndChar

StartChar: uni0039
Encoding: 57 57 26
Width: 573
GlyphClass: 2
Flags: HW
LayerCount: 2
Fore
SplineSet
226 739 m 0
 228 740 234 741 241 741 c 0
 248 741 256 740 261 738 c 1
 267 737 274 736 287 736 c 2
 312 736 l 1
 317 737 324 737 328 736 c 0
 332 736 340 735 346 733 c 0
 352 731 359 729 362 729 c 0
 364 729 370 728 375 727 c 0
 380 726 386 725 388 725 c 0
 391 725 394 723 398 720 c 0
 401 717 406 713 410 711 c 0
 414 709 419 706 421 702 c 0
 423 699 431 692 438 687 c 0
 445 682 451 676 453 674 c 1
 454 671 461 664 467 658 c 0
 473 651 481 642 485 637 c 0
 492 628 492 626 493 616 c 0
 494 609 496 601 498 595 c 1
 501 590 503 585 504 584 c 2
 504 584 505 580 505 578 c 0
 505 575 506 570 507 567 c 0
 508 564 512 557 515 551 c 1
 522 542 523 540 523 532 c 0
 523 528 523 518 524 511 c 0
 525 503 526 496 527 494 c 0
 528 492 529 478 529 463 c 0
 529 442 530 434 532 429 c 0
 533 426 534 419 534 415 c 0
 534 410 533 405 532 402 c 0
 530 399 529 392 529 378 c 0
 528 362 529 356 531 349 c 0
 533 341 533 339 531 331 c 0
 530 326 529 316 528 308 c 1
 528 297 528 291 526 285 c 0
 524 280 523 273 523 265 c 0
 523 257 522 249 520 243 c 0
 518 237 515 231 514 228 c 0
 513 225 512 220 511 216 c 0
 511 212 510 207 508 204 c 0
 507 201 506 194 505 187 c 1
 505 178 504 172 502 168 c 0
 500 164 498 157 497 152 c 0
 497 147 495 141 493 138 c 0
 492 135 488 128 486 123 c 2
 476 102 l 2
 473 96 467 87 463 82 c 0
 459 77 453 69 450 64 c 0
 447 59 442 54 439 52 c 0
 436 50 432 48 432 48 c 2
 431 48 427 46 423 42 c 0
 419 39 412 35 406 33 c 0
 401 31 396 28 394 27 c 1
 393 25 391 23 390 22 c 0
 389 21 383 18 377 15 c 2
 359 6 l 2
 352 2 350 1 340 1 c 0
 333 1 324 0 320 -1 c 0
 316 -2 308 -3 301 -3 c 0
 293 -3 287 -4 281 -6 c 0
 277 -8 272 -9 270 -9 c 0
 269 -9 264 -8 261 -6 c 0
 255 -4 250 -3 214 -3 c 0
 177 -3 173 -3 169 -1 c 0
 167 1 164 3 162 5 c 0
 161 6 157 7 154 8 c 0
 151 8 145 11 140 13 c 0
 135 14 126 19 121 22 c 0
 116 25 108 29 104 31 c 0
 100 34 93 39 88 44 c 0
 83 49 75 57 71 62 c 0
 66 67 60 75 58 80 c 0
 56 85 54 90 54 91 c 0
 54 92 51 97 49 102 c 0
 46 109 44 115 43 121 c 0
 43 125 41 131 40 134 c 0
 38 137 38 143 38 151 c 0
 38 163 38 164 42 168 c 0
 44 170 48 172 52 173 c 0
 55 174 62 175 67 175 c 2
 88 175 l 2
 98 175 101 174 108 170 c 0
 112 168 117 166 118 166 c 0
 120 166 123 167 126 169 c 0
 129 171 132 173 134 174 c 0
 136 175 142 176 148 176 c 0
 157 176 158 176 167 170 c 0
 172 167 178 162 180 160 c 0
 183 158 185 152 187 148 c 0
 188 144 189 140 189 139 c 0
 189 138 191 134 194 131 c 0
 197 127 199 122 200 120 c 0
 200 118 201 116 202 115 c 0
 202 114 206 111 210 108 c 0
 214 105 222 100 226 98 c 0
 235 95 237 95 261 95 c 0
 284 95 287 95 293 98 c 0
 297 100 304 103 309 105 c 0
 314 107 318 109 319 109 c 2
 319 109 324 111 330 113 c 1
 335 116 342 119 346 121 c 0
 351 123 352 125 354 131 c 0
 355 135 357 140 359 142 c 1
 360 145 364 150 367 153 c 0
 370 157 374 161 375 164 c 0
 377 167 378 173 378 181 c 1
 379 188 380 195 380 197 c 0
 381 199 383 202 385 204 c 0
 386 206 388 210 389 214 c 0
 390 218 390 221 387 227 c 1
 385 234 384 238 385 252 c 0
 385 261 387 272 388 276 c 0
 390 282 390 290 390 304 c 0
 390 314 390 325 389 327 c 0
 388 329 386 331 383 332 c 0
 380 333 376 334 374 334 c 0
 372 334 367 332 364 329 c 0
 361 327 358 325 357 325 c 2
 357 325 352 322 348 319 c 0
 344 315 339 312 338 310 c 1
 336 309 334 307 332 305 c 0
 330 304 322 301 315 298 c 0
 305 293 301 292 288 291 c 0
 279 290 271 289 268 287 c 0
 263 285 262 285 257 286 c 1
 253 288 249 288 247 287 c 1
 244 287 233 286 221 285 c 0
 209 285 197 285 196 286 c 1
 194 286 190 288 187 290 c 0
 183 293 177 295 173 296 c 0
 168 297 159 300 152 302 c 1
 146 305 139 308 138 309 c 0
 137 310 134 312 131 313 c 0
 128 315 121 318 116 321 c 0
 111 323 103 329 98 334 c 0
 93 339 89 344 89 344 c 2
 89 345 87 348 85 351 c 0
 83 354 80 358 79 359 c 0
 77 361 76 363 74 364 c 1
 73 366 70 370 67 373 c 0
 64 377 60 382 58 385 c 0
 57 388 53 394 51 400 c 1
 48 405 46 410 45 412 c 0
 44 413 43 417 43 421 c 0
 42 425 41 432 40 437 c 0
 38 442 36 450 35 456 c 1
 33 461 31 469 29 475 c 0
 26 483 26 488 26 509 c 0
 26 530 26 535 29 543 c 0
 31 549 34 559 37 565 c 0
 40 573 42 581 43 588 c 0
 43 595 45 601 47 606 c 0
 49 609 54 617 57 622 c 2
 64 633 l 2
 64 634 71 642 79 650 c 0
 88 659 95 667 95 668 c 0
 95 669 101 677 109 685 c 0
 117 692 127 701 131 703 c 0
 135 705 140 708 142 708 c 0
 145 709 150 711 154 712 c 0
 157 713 162 716 163 717 c 0
 165 719 168 720 171 721 c 0
 173 722 178 723 181 724 c 1
 185 724 192 727 198 730 c 0
 204 732 212 735 215 736 c 1
 219 736 224 737 226 739 c 0
314 640 m 0
 312 641 306 642 301 643 c 1
 295 643 287 643 281 641 c 0
 275 640 262 639 251 638 c 0
 235 637 231 636 223 633 c 0
 218 631 212 628 211 627 c 0
 210 626 207 622 203 617 c 0
 200 613 195 606 193 603 c 0
 191 599 187 594 185 592 c 0
 183 589 179 584 177 581 c 0
 175 578 172 572 171 568 c 0
 170 564 168 556 166 551 c 0
 163 542 163 539 164 524 c 0
 164 509 164 505 162 502 c 0
 160 499 160 493 160 488 c 0
 160 482 161 475 163 469 c 0
 165 463 169 456 172 452 c 0
 174 449 179 442 181 437 c 0
 183 432 186 426 187 424 c 0
 188 422 191 418 192 416 c 0
 194 414 196 413 197 413 c 0
 198 413 200 411 201 410 c 2
 209 402 l 2
 212 400 218 396 224 394 c 1
 229 391 237 389 241 388 c 0
 246 387 252 386 255 385 c 0
 258 384 266 384 272 384 c 0
 279 384 286 384 288 385 c 0
 291 386 297 387 302 388 c 0
 307 389 313 390 315 391 c 0
 318 393 322 394 325 395 c 0
 327 395 334 399 340 402 c 1
 345 406 351 410 353 412 c 0
 354 414 357 417 359 420 c 0
 360 423 364 430 367 435 c 0
 370 440 374 447 375 450 c 0
 377 453 379 459 380 465 c 0
 381 471 382 476 383 477 c 2
 385 491 l 1
 385 499 387 511 388 518 c 0
 389 524 389 529 389 533 c 0
 389 537 385 545 383 547 c 0
 380 552 379 557 379 560 c 0
 379 562 377 571 376 579 c 0
 374 588 372 597 370 599 c 1
 369 602 366 607 363 610 c 0
 360 613 355 618 351 619 c 1
 348 621 342 624 337 626 c 0
 333 628 326 631 323 634 c 0
 320 636 316 639 314 640 c 0
EndSplineSet
Validated: 1
EndChar

StartChar: uni003A
Encoding: 58 58 27
Width: 243
GlyphClass: 2
Flags: HW
LayerCount: 2
Fore
SplineSet
80 468 m 0
 84 472 88 475 90 475 c 0
 92 475 97 474 100 473 c 0
 104 472 110 471 120 471 c 0
 124 471 129 471 134 471 c 0
 158 471 160 471 166 468 c 0
 169 466 173 463 174 460 c 1
 177 456 177 453 176 437 c 0
 175 426 174 415 173 412 c 0
 171 408 171 404 171 401 c 0
 172 398 173 393 174 390 c 0
 175 384 175 383 173 378 c 0
 172 376 167 370 164 366 c 0
 157 359 157 359 148 360 c 1
 108 360 l 2
 77 360 77 360 74 364 c 0
 72 367 72 372 71 388 c 0
 71 399 70 412 69 417 c 1
 69 429 l 1
 70 431 71 439 72 447 c 0
 73 460 73 460 80 468 c 0
91 125 m 0
 93 125 98 126 104 126 c 0
 110 126 118 125 126 125 c 0
 153 125 156 124 162 121 c 0
 166 119 170 116 172 114 c 0
 174 111 175 108 175 100 c 0
 175 95 174 88 174 86 c 0
 173 82 173 78 175 70 c 0
 176 64 177 59 177 53 c 0
 177 51 177 49 177 47 c 0
 177 41 175 34 174 31 c 0
 173 28 169 24 165 20 c 0
 158 14 158 14 145 15 c 0
 138 16 129 16 126 16 c 0
 123 16 113 16 105 15 c 0
 98 14 93 13 90 13 c 0
 88 13 86 14 84 14 c 0
 81 15 76 18 74 21 c 0
 71 25 69 28 68 38 c 0
 67 43 66 46 66 49 c 0
 66 52 67 54 68 56 c 0
 70 60 71 69 72 85 c 0
 72 101 73 111 75 114 c 0
 76 117 78 120 81 121 c 1
 83 123 87 124 91 125 c 0
EndSplineSet
Validated: 1
EndChar

StartChar: uni003B
Encoding: 59 59 28
Width: 202
GlyphClass: 2
Flags: HW
LayerCount: 2
Fore
SplineSet
119 458 m 1
 120 458 123 459 127 459 c 0
 131 459 137 457 141 456 c 1
 144 454 149 451 151 449 c 0
 153 446 156 442 157 439 c 0
 158 437 160 430 162 425 c 1
 163 417 163 415 161 409 c 0
 160 404 159 400 160 395 c 0
 160 391 162 386 163 383 c 1
 165 381 166 377 166 374 c 0
 166 372 164 365 161 360 c 0
 158 354 154 349 152 346 c 1
 147 343 146 343 111 343 c 0
 76 343 76 343 72 347 c 0
 70 348 68 353 67 357 c 0
 66 361 64 364 64 365 c 0
 63 367 62 372 62 378 c 0
 63 384 63 399 63 412 c 0
 62 433 63 436 65 440 c 0
 67 443 71 447 77 449 c 0
 85 453 90 454 103 455 c 0
 112 456 119 457 119 458 c 1
111 103 m 0
 115 104 119 106 120 106 c 0
 121 106 125 105 128 104 c 0
 133 102 138 102 145 102 c 0
 155 103 157 103 161 100 c 0
 164 98 168 94 169 92 c 0
 170 89 171 84 171 81 c 0
 171 78 171 74 169 72 c 0
 168 70 166 66 164 64 c 0
 162 62 161 58 160 55 c 0
 160 52 158 46 157 43 c 0
 155 39 151 32 147 26 c 0
 143 21 138 13 136 9 c 0
 134 4 131 -2 131 -4 c 0
 130 -7 128 -12 127 -16 c 1
 120 -27 l 2
 118 -31 116 -34 116 -35 c 0
 115 -37 114 -41 112 -44 c 0
 110 -48 107 -53 106 -55 c 0
 104 -58 102 -60 102 -61 c 0
 102 -62 101 -65 99 -69 c 0
 97 -73 95 -77 93 -79 c 0
 92 -81 90 -86 90 -90 c 0
 89 -96 88 -98 84 -101 c 0
 81 -103 77 -106 75 -108 c 0
 73 -109 71 -111 69 -113 c 0
 67 -114 62 -115 52 -115 c 0
 44 -115 37 -114 37 -113 c 1
 36 -113 32 -111 28 -110 c 0
 24 -109 19 -108 17 -106 c 0
 15 -105 13 -102 12 -100 c 0
 10 -97 9 -92 9 -88 c 0
 9 -84 10 -79 12 -76 c 0
 13 -74 15 -67 17 -63 c 0
 19 -58 21 -53 22 -52 c 0
 23 -50 26 -44 28 -38 c 0
 31 -30 32 -23 32 -15 c 0
 33 -6 34 -2 38 8 c 0
 41 15 44 25 45 29 c 1
 45 34 47 39 47 41 c 0
 48 43 49 48 50 52 c 0
 50 56 52 63 53 67 c 0
 54 71 56 75 57 76 c 0
 58 78 60 81 61 84 c 0
 62 87 63 90 64 90 c 0
 65 90 66 91 66 92 c 0
 66 94 70 96 74 98 c 0
 77 100 83 102 87 103 c 0
 91 103 96 103 99 102 c 0
 103 101 107 102 111 103 c 0
EndSplineSet
Validated: 1
EndChar

StartChar: uni003C
Encoding: 60 60 29
Width: 539
GlyphClass: 2
Flags: HW
LayerCount: 2
Fore
SplineSet
489 565 m 0
 492 566 498 567 501 567 c 0
 506 567 508 566 511 564 c 1
 513 561 515 557 515 553 c 0
 515 551 516 547 516 540 c 0
 516 533 515 524 515 515 c 0
 514 492 513 483 512 479 c 1
 510 476 508 472 506 470 c 0
 505 468 499 464 493 461 c 0
 487 458 482 455 481 454 c 2
 481 454 476 451 470 449 c 0
 465 447 458 445 454 444 c 0
 450 443 443 441 439 439 c 0
 435 437 426 434 420 432 c 0
 414 431 405 428 401 426 c 0
 396 424 389 421 386 420 c 0
 383 418 377 415 373 414 c 0
 369 413 362 410 358 407 c 0
 351 403 348 402 343 402 c 0
 339 402 333 402 330 401 c 0
 327 400 321 397 316 395 c 1
 312 392 304 389 298 387 c 0
 293 386 286 384 282 383 c 1
 279 381 268 378 258 375 c 0
 248 373 237 369 233 368 c 0
 229 367 222 364 217 361 c 0
 212 359 203 356 198 355 c 0
 193 353 186 350 182 348 c 0
 179 346 176 342 175 339 c 0
 174 336 174 331 174 328 c 0
 175 325 177 322 185 316 c 0
 193 309 196 307 206 305 c 0
 212 304 221 303 226 302 c 1
 235 302 237 301 244 296 c 0
 249 293 256 289 264 287 c 0
 270 285 278 283 282 283 c 1
 285 282 289 281 291 280 c 0
 293 279 298 278 301 277 c 0
 304 276 314 273 322 269 c 0
 329 265 338 261 340 261 c 0
 343 260 347 259 351 257 c 0
 354 256 359 253 363 252 c 0
 367 250 372 248 375 248 c 0
 378 247 384 245 388 244 c 0
 393 242 397 240 398 239 c 0
 399 239 403 237 407 236 c 0
 411 236 419 233 425 230 c 0
 430 227 437 225 440 224 c 0
 444 223 453 221 461 218 c 0
 469 215 476 213 478 213 c 0
 480 213 484 212 487 210 c 1
 491 209 497 203 501 199 c 0
 506 194 510 187 512 184 c 0
 515 178 515 177 512 170 c 1
 511 165 510 159 511 152 c 0
 511 146 512 140 513 138 c 0
 514 137 515 131 515 126 c 0
 515 119 514 114 511 109 c 0
 510 106 507 101 505 100 c 0
 503 98 500 97 498 97 c 0
 496 97 491 98 487 100 c 0
 482 102 476 104 473 105 c 1
 471 107 465 108 461 108 c 0
 457 109 452 110 449 111 c 0
 447 112 442 113 439 114 c 0
 436 114 430 118 424 123 c 0
 417 129 413 131 408 131 c 1
 404 132 399 133 397 133 c 0
 395 133 390 136 386 138 c 0
 383 140 378 143 375 143 c 0
 372 144 368 145 366 146 c 0
 364 147 362 148 360 148 c 0
 359 148 353 150 347 152 c 0
 340 154 332 158 328 161 c 0
 325 164 319 166 316 167 c 1
 312 167 307 169 304 170 c 0
 301 171 298 173 297 174 c 0
 296 175 289 178 283 180 c 0
 277 182 271 184 270 184 c 2
 270 184 266 185 263 186 c 0
 259 188 252 191 246 193 c 0
 239 195 231 199 227 202 c 0
 223 205 218 207 215 208 c 0
 213 208 208 211 205 214 c 0
 201 217 196 219 193 220 c 0
 190 220 186 221 184 222 c 0
 183 222 177 223 171 224 c 0
 166 225 159 226 157 227 c 0
 155 228 152 230 150 231 c 0
 148 231 145 233 143 234 c 0
 142 235 139 237 137 239 c 0
 134 241 129 242 125 243 c 0
 122 244 116 245 112 246 c 0
 109 247 104 248 102 248 c 0
 99 248 93 250 89 252 c 0
 85 253 80 256 78 257 c 0
 76 259 72 260 69 261 c 1
 65 261 60 263 57 265 c 0
 55 266 50 269 46 271 c 1
 37 280 l 1
 36 283 33 289 32 295 c 1
 30 300 28 310 26 315 c 0
 25 320 24 324 24 326 c 0
 24 328 25 329 25 330 c 0
 26 332 27 339 27 345 c 0
 27 351 26 359 25 363 c 0
 24 365 24 367 24 368 c 0
 24 370 25 372 26 376 c 0
 28 379 31 383 33 385 c 0
 35 388 41 391 53 396 c 0
 62 399 73 404 78 406 c 1
 82 409 90 411 94 412 c 1
 99 412 106 414 110 416 c 0
 114 418 122 422 127 423 c 0
 133 425 138 427 139 428 c 0
 140 428 144 429 148 430 c 0
 154 431 159 434 164 438 c 0
 168 441 173 444 175 445 c 0
 177 446 182 448 187 450 c 0
 191 451 198 453 201 454 c 1
 207 454 209 456 215 462 c 0
 220 467 224 469 228 470 c 0
 231 470 239 472 246 474 c 0
 254 476 261 479 264 481 c 0
 266 482 275 485 282 487 c 1
 290 488 301 492 306 494 c 0
 311 497 316 499 316 499 c 2
 316 500 318 501 320 503 c 0
 322 504 326 506 329 507 c 0
 332 509 335 510 336 511 c 0
 337 512 341 514 345 515 c 0
 350 516 356 518 360 518 c 0
 364 519 369 520 372 521 c 0
 374 522 378 523 379 523 c 0
 380 522 383 523 386 523 c 0
 389 524 393 526 395 528 c 0
 397 530 400 532 402 533 c 0
 404 534 408 537 413 539 c 0
 418 541 423 542 428 542 c 0
 432 542 438 543 440 544 c 0
 442 546 445 547 447 548 c 0
 449 549 454 552 458 555 c 0
 463 559 467 560 474 561 c 0
 479 561 486 563 489 565 c 0
EndSplineSet
Validated: 1
EndChar

StartChar: uni003D
Encoding: 61 61 30
Width: 538
GlyphClass: 2
Flags: HW
LayerCount: 2
Fore
SplineSet
166 510 m 0
 167 511 171 511 174 511 c 0
 177 511 183 510 188 508 c 0
 196 506 199 505 243 505 c 0
 268 505 297 506 307 506 c 2
 392 506 l 1
 429 507 462 507 464 507 c 0
 466 508 471 509 474 510 c 0
 478 511 481 511 485 509 c 1
 488 509 493 506 495 504 c 2
 504 495 l 2
 507 491 509 486 510 481 c 0
 511 476 512 471 513 468 c 0
 514 466 515 462 515 459 c 0
 515 455 514 451 513 449 c 0
 512 446 511 438 511 430 c 0
 511 415 511 414 506 410 c 0
 504 408 500 405 497 405 c 0
 495 405 489 404 484 403 c 0
 479 402 472 400 469 399 c 0
 466 398 461 397 459 397 c 0
 457 397 452 398 447 400 c 0
 440 402 434 402 390 402 c 0
 363 402 317 402 288 403 c 0
 260 403 233 403 230 402 c 1
 226 402 219 401 214 401 c 0
 208 401 204 402 201 403 c 1
 199 405 196 405 191 405 c 1
 188 404 169 403 151 403 c 0
 132 402 114 401 110 401 c 0
 107 401 91 402 74 402 c 0
 52 403 44 404 40 406 c 0
 37 407 33 410 32 412 c 0
 30 414 28 417 27 420 c 0
 26 424 26 427 27 435 c 1
 29 440 30 449 30 456 c 0
 30 463 29 472 27 476 c 0
 26 480 25 485 26 487 c 0
 26 489 29 493 31 496 c 0
 34 499 38 502 42 503 c 0
 47 505 54 506 83 506 c 0
 91 506 97 506 102 506 c 0
 115 506 121 506 125 505 c 0
 130 503 136 503 138 503 c 0
 140 504 147 505 152 506 c 0
 158 507 164 509 166 510 c 0
105 289 m 0
 108 291 111 292 111 292 c 1
 111 292 117 291 125 290 c 1
 132 288 140 286 142 285 c 0
 144 284 152 283 158 283 c 0
 164 283 173 284 178 286 c 0
 183 287 198 288 224 288 c 0
 234 288 246 289 257 289 c 0
 268 289 277 288 283 288 c 0
 290 288 296 287 303 287 c 0
 310 287 316 288 323 288 c 0
 337 289 345 289 350 288 c 0
 352 288 359 287 369 287 c 0
 379 287 393 288 410 288 c 0
 429 288 450 288 464 288 c 0
 471 288 476 288 479 288 c 0
 495 287 495 287 502 281 c 0
 506 277 510 273 510 272 c 0
 510 272 511 267 511 261 c 0
 511 255 510 246 510 237 c 0
 509 207 509 203 506 197 c 0
 504 194 501 190 500 188 c 0
 498 186 494 183 491 182 c 0
 489 182 488 181 486 181 c 0
 484 181 481 182 476 183 c 0
 468 185 453 185 307 185 c 2
 95 185 l 2
 58 185 41 185 38 187 c 0
 36 188 33 190 31 193 c 0
 29 196 26 200 25 203 c 0
 24 205 24 206 24 207 c 0
 24 209 25 211 26 215 c 0
 28 221 28 226 28 245 c 0
 28 261 28 269 29 271 c 0
 30 273 34 277 37 279 c 0
 40 282 44 284 46 284 c 0
 47 284 53 285 58 286 c 0
 66 288 69 288 75 287 c 0
 79 286 86 285 90 285 c 0
 95 285 100 286 105 289 c 0
EndSplineSet
Validated: 1
EndChar

StartChar: uni003E
Encoding: 62 62 31
Width: 534
GlyphClass: 2
Flags: HW
LayerCount: 2
Fore
SplineSet
36 595 m 0
 38 597 43 598 45 598 c 0
 48 598 52 596 55 594 c 0
 58 592 65 589 70 588 c 0
 75 586 81 584 83 582 c 0
 85 581 90 578 94 577 c 0
 97 576 102 575 104 573 c 0
 106 572 109 570 111 569 c 0
 112 568 116 566 120 564 c 0
 124 562 131 560 136 559 c 0
 141 558 148 556 151 555 c 0
 155 553 163 550 168 547 c 1
 174 545 181 542 185 542 c 1
 188 541 196 539 203 536 c 0
 210 534 218 530 221 528 c 0
 223 526 230 523 235 522 c 0
 240 520 246 519 248 519 c 0
 250 519 253 518 256 516 c 0
 259 514 263 513 266 512 c 0
 269 512 273 510 276 508 c 0
 278 507 282 505 283 504 c 0
 285 503 290 501 296 499 c 0
 301 497 306 494 307 493 c 0
 308 492 312 490 315 490 c 0
 319 489 326 487 332 486 c 0
 338 484 346 482 348 480 c 1
 351 479 354 476 355 475 c 0
 356 475 360 472 365 470 c 0
 370 467 378 465 383 464 c 0
 388 464 394 462 397 461 c 0
 400 460 403 458 404 457 c 0
 404 456 410 454 417 452 c 0
 423 450 431 448 433 448 c 0
 435 448 440 447 444 445 c 0
 447 443 452 441 453 440 c 0
 454 439 460 437 465 435 c 0
 471 433 479 430 484 428 c 0
 488 427 493 424 496 421 c 0
 499 418 502 413 505 409 c 0
 509 402 509 402 508 388 c 0
 507 380 507 372 507 370 c 0
 507 368 508 364 509 361 c 1
 511 359 512 354 512 350 c 0
 512 347 511 341 509 338 c 1
 508 334 507 328 506 323 c 0
 506 318 505 313 503 311 c 0
 502 309 499 306 497 305 c 0
 495 303 492 301 490 300 c 0
 488 299 483 296 479 294 c 0
 476 293 471 291 468 290 c 0
 465 289 461 288 459 286 c 0
 457 285 452 283 448 282 c 0
 444 280 438 279 435 279 c 0
 432 279 425 277 418 275 c 0
 411 273 403 269 400 266 c 0
 397 264 389 259 382 256 c 1
 376 252 366 248 361 247 c 0
 356 245 350 243 347 242 c 0
 344 242 338 240 332 239 c 1
 327 237 319 235 315 233 c 1
 310 232 304 229 300 227 c 0
 297 226 294 225 293 225 c 0
 292 225 288 222 283 219 c 0
 278 216 272 213 270 211 c 1
 267 210 261 208 257 207 c 0
 252 206 248 205 247 204 c 0
 246 203 242 201 237 199 c 0
 232 198 225 196 221 195 c 0
 217 195 213 193 212 192 c 0
 211 191 207 189 204 188 c 1
 202 186 196 185 192 184 c 0
 188 183 182 180 178 177 c 0
 172 173 170 172 159 172 c 0
 147 171 146 171 135 164 c 2
 119 153 l 2
 116 151 110 150 106 149 c 0
 101 148 95 147 92 145 c 1
 88 144 83 141 80 138 c 0
 77 136 69 132 63 130 c 0
 57 128 50 126 49 126 c 0
 47 126 43 128 39 129 c 1
 36 131 31 134 29 137 c 0
 27 139 25 143 24 145 c 1
 24 157 l 1
 25 161 26 174 26 184 c 0
 26 203 26 203 32 216 c 0
 35 223 40 231 42 233 c 0
 44 235 48 238 52 239 c 1
 55 241 60 242 62 242 c 0
 65 242 72 245 79 248 c 0
 85 251 94 255 99 257 c 0
 104 259 113 263 119 265 c 0
 125 268 131 270 133 270 c 0
 135 270 139 271 143 273 c 0
 147 274 154 276 159 276 c 0
 164 277 177 281 188 285 c 0
 199 289 211 294 215 295 c 0
 219 296 226 298 230 299 c 0
 234 301 240 304 243 305 c 0
 247 307 253 310 258 313 c 0
 263 315 272 318 277 320 c 0
 283 322 292 324 296 324 c 0
 301 325 307 326 309 327 c 0
 311 328 314 331 317 332 c 1
 319 334 324 336 328 338 c 0
 331 340 337 341 341 341 c 0
 345 341 350 342 352 342 c 0
 354 343 360 347 364 350 c 0
 368 353 372 357 373 359 c 0
 375 362 375 364 372 369 c 0
 370 372 367 376 365 377 c 0
 363 379 356 381 350 383 c 0
 344 384 339 385 338 386 c 0
 337 387 332 388 328 389 c 0
 324 389 314 393 305 396 c 0
 296 400 287 403 286 403 c 0
 285 403 282 404 280 405 c 0
 277 406 272 407 267 408 c 0
 261 409 253 411 243 417 c 1
 234 421 224 425 221 425 c 0
 217 426 213 427 212 428 c 2
 212 428 207 430 202 431 c 0
 197 432 188 436 181 440 c 2
 165 448 l 2
 162 449 158 450 155 450 c 0
 152 450 146 452 142 454 c 0
 137 456 124 462 113 465 c 0
 102 469 90 474 86 476 c 0
 82 478 78 479 76 479 c 0
 75 479 71 480 68 481 c 0
 65 482 59 484 54 485 c 1
 40 492 l 1
 37 495 33 499 31 502 c 0
 29 505 27 512 26 520 c 0
 25 527 25 536 25 539 c 2
 25 561 l 2
 25 572 26 578 28 584 c 0
 30 590 33 593 36 595 c 0
EndSplineSet
Validated: 1
EndChar

StartChar: uni003F
Encoding: 63 63 32
Width: 454
GlyphClass: 2
Flags: HW
LayerCount: 2
Fore
SplineSet
161 697 m 0
 166 698 172 699 174 699 c 0
 175 699 175 699 176 699 c 0
 179 699 183 698 187 697 c 0
 192 696 202 694 209 692 c 0
 215 691 230 689 242 688 c 0
 253 687 266 686 270 685 c 0
 274 684 278 682 280 681 c 0
 282 680 291 676 300 673 c 0
 309 669 319 664 323 663 c 0
 327 661 332 658 335 656 c 0
 337 655 341 652 343 650 c 0
 345 649 348 645 349 643 c 0
 351 640 354 636 357 634 c 0
 359 632 362 630 363 630 c 2
 363 630 366 629 369 626 c 0
 371 624 377 617 382 610 c 0
 386 603 390 597 390 596 c 0
 390 595 392 592 394 589 c 0
 396 586 399 579 400 575 c 0
 401 570 404 560 407 551 c 0
 410 543 412 534 412 532 c 0
 412 530 411 524 409 520 c 0
 407 514 406 507 406 499 c 0
 406 489 405 486 401 476 c 1
 397 469 395 462 395 457 c 0
 394 450 393 449 386 441 c 1
 381 437 374 428 369 422 c 0
 365 416 357 406 351 399 c 0
 346 392 338 383 334 379 c 1
 329 376 323 371 319 368 c 0
 314 365 305 358 298 350 c 0
 291 343 284 335 282 332 c 0
 279 328 275 322 272 319 c 0
 268 315 264 310 263 308 c 0
 261 306 257 303 254 301 c 1
 250 300 244 295 240 291 c 0
 234 285 232 282 231 276 c 0
 230 271 228 265 227 263 c 0
 225 259 225 252 224 224 c 1
 224 189 l 1
 224 189 222 186 219 183 c 0
 217 180 212 177 210 175 c 0
 206 173 201 173 183 173 c 0
 162 173 161 173 153 177 c 0
 149 179 144 183 142 186 c 0
 139 190 139 192 138 213 c 1
 138 253 l 2
 138 266 139 274 141 283 c 1
 144 291 146 296 151 302 c 0
 154 307 158 312 160 315 c 0
 162 317 165 322 166 326 c 1
 168 329 171 334 174 337 c 0
 176 340 182 345 186 347 c 0
 191 350 195 353 198 358 c 0
 200 362 208 371 215 378 c 0
 222 386 232 399 238 407 c 1
 243 416 250 425 253 428 c 1
 255 432 259 437 260 439 c 0
 262 442 265 449 268 454 c 0
 270 459 275 468 277 474 c 1
 282 483 283 485 282 492 c 0
 281 497 281 501 283 505 c 0
 284 508 285 513 285 516 c 0
 285 520 284 527 283 532 c 0
 282 537 282 544 282 547 c 0
 283 553 282 555 279 559 c 0
 276 563 271 568 267 573 c 1
 262 577 259 581 259 581 c 2
 259 582 257 584 256 587 c 1
 250 593 l 2
 249 594 242 598 235 601 c 0
 224 607 222 608 208 609 c 0
 197 609 192 610 185 613 c 0
 180 615 172 618 163 619 c 0
 155 620 145 620 141 620 c 0
 136 619 131 618 128 617 c 0
 125 615 117 614 111 614 c 0
 104 613 95 612 91 611 c 0
 87 609 81 608 79 608 c 0
 76 608 69 607 64 606 c 0
 55 604 54 604 51 606 c 0
 48 607 45 610 44 613 c 0
 42 617 42 621 42 634 c 0
 42 649 43 651 48 663 c 0
 51 670 55 677 57 679 c 0
 59 681 64 683 66 685 c 0
 70 687 76 688 93 688 c 1
 105 689 116 690 118 691 c 0
 121 692 129 693 137 693 c 0
 146 693 156 695 161 697 c 0
149 113 m 0
 152 114 156 114 159 114 c 0
 162 113 175 113 188 112 c 0
 207 111 212 111 218 108 c 0
 221 107 225 103 227 101 c 0
 229 98 230 93 230 88 c 0
 230 84 229 78 227 75 c 0
 226 72 225 65 224 60 c 1
 224 54 224 47 225 42 c 0
 227 37 227 31 227 30 c 0
 227 28 225 25 222 24 c 1
 219 21 215 21 188 20 c 0
 162 20 158 20 152 22 c 0
 149 24 144 26 142 28 c 1
 139 29 136 32 135 34 c 0
 134 36 132 43 131 50 c 0
 131 54 130 58 130 62 c 0
 130 66 131 69 131 72 c 0
 132 77 133 86 133 91 c 0
 133 96 134 102 135 104 c 0
 136 106 138 108 141 110 c 0
 143 111 147 113 149 113 c 0
EndSplineSet
Validated: 1
EndChar

StartChar: uni0040
Encoding: 64 64 33
Width: 1020
GlyphClass: 2
Flags: HW
LayerCount: 2
Fore
SplineSet
452 750 m 0
 456 752 463 752 507 752 c 0
 547 752 559 752 564 750 c 0
 567 749 577 748 586 747 c 0
 595 747 605 745 608 744 c 0
 611 743 618 741 623 741 c 0
 629 740 637 738 643 737 c 0
 649 735 656 733 659 731 c 1
 663 730 667 728 668 727 c 1
 670 727 677 724 684 722 c 1
 690 719 698 716 701 715 c 0
 704 714 709 711 712 708 c 0
 715 706 720 703 722 701 c 0
 724 699 728 695 732 693 c 0
 736 691 745 683 752 676 c 0
 759 669 769 661 773 658 c 0
 778 655 794 640 809 625 c 0
 833 600 836 596 838 590 c 0
 840 586 843 577 847 570 c 0
 850 563 853 557 853 556 c 0
 853 555 854 554 855 553 c 0
 856 552 858 548 860 543 c 1
 863 539 866 531 867 525 c 1
 869 520 872 514 872 513 c 0
 873 512 876 507 878 503 c 0
 880 498 883 489 885 483 c 0
 886 477 888 471 889 470 c 0
 889 469 890 464 891 458 c 0
 892 453 893 446 895 443 c 0
 897 439 897 432 897 375 c 0
 896 318 896 312 894 304 c 0
 892 299 891 293 891 291 c 0
 891 288 889 279 886 270 c 0
 884 261 881 250 880 247 c 1
 880 243 877 236 875 230 c 0
 873 225 870 216 867 210 c 0
 865 205 861 196 858 192 c 0
 855 187 852 181 852 179 c 0
 851 176 849 171 847 167 c 0
 845 163 841 156 838 151 c 0
 835 146 825 134 815 124 c 0
 799 107 796 106 782 99 c 0
 769 92 765 91 757 91 c 1
 752 90 745 89 742 88 c 0
 738 86 734 85 724 85 c 0
 716 85 709 86 706 88 c 1
 702 89 695 90 684 91 c 1
 672 91 665 92 656 95 c 0
 649 97 638 102 632 106 c 0
 625 110 619 113 619 113 c 2
 618 113 612 118 606 124 c 0
 598 132 593 138 591 143 c 0
 589 147 586 156 583 163 c 0
 580 172 578 175 576 176 c 0
 574 177 571 177 568 177 c 1
 566 176 561 173 558 169 c 1
 554 166 551 162 551 162 c 2
 551 161 549 160 546 158 c 0
 543 157 536 156 531 155 c 0
 526 155 520 153 518 152 c 0
 514 150 507 150 469 150 c 0
 424 150 424 150 417 153 c 0
 413 155 407 159 404 161 c 0
 401 164 396 166 394 167 c 1
 391 167 388 169 385 170 c 0
 383 171 378 175 375 178 c 1
 373 182 368 189 365 195 c 0
 363 201 360 207 359 208 c 0
 358 208 357 210 357 211 c 0
 357 212 356 214 355 216 c 0
 353 218 350 224 348 229 c 0
 346 234 343 240 343 242 c 1
 342 243 340 250 338 256 c 0
 336 264 335 272 335 283 c 0
 335 294 336 299 338 303 c 0
 339 305 340 313 341 321 c 0
 342 329 344 338 346 345 c 0
 348 350 351 357 353 359 c 0
 354 361 356 364 357 367 c 0
 358 370 360 372 360 372 c 2
 361 372 362 373 362 375 c 0
 363 377 366 381 369 384 c 0
 373 388 377 391 379 393 c 2
 383 395 l 1
 394 402 l 2
 399 405 408 411 413 414 c 0
 418 417 424 420 426 421 c 0
 428 422 433 424 438 426 c 0
 442 428 449 429 454 429 c 0
 459 429 466 430 471 431 c 0
 476 432 483 434 487 436 c 0
 494 440 496 440 525 441 c 0
 555 442 555 442 564 447 c 0
 569 450 574 455 577 458 c 0
 581 464 581 465 581 479 c 0
 581 491 581 495 577 504 c 0
 574 511 570 517 563 525 c 0
 556 532 553 535 548 536 c 0
 545 537 533 538 520 538 c 0
 497 537 497 537 484 524 c 0
 477 517 469 506 466 500 c 0
 463 494 458 488 455 485 c 0
 452 483 448 480 446 480 c 0
 444 479 438 478 433 476 c 0
 425 474 419 473 401 473 c 0
 382 473 378 474 373 476 c 0
 370 478 368 480 368 481 c 0
 368 482 367 484 365 485 c 0
 363 487 363 491 364 513 c 0
 365 533 365 542 367 545 c 0
 368 548 373 554 378 559 c 0
 383 564 387 569 387 570 c 0
 387 571 390 573 394 576 c 0
 397 578 404 582 407 586 c 1
 411 589 416 593 418 593 c 0
 420 593 430 594 441 594 c 0
 458 594 462 595 468 598 c 0
 472 600 477 601 480 601 c 0
 482 601 488 602 491 603 c 0
 495 605 502 606 510 606 c 0
 518 606 524 606 529 608 c 0
 535 611 537 611 548 609 c 0
 554 608 566 607 575 606 c 0
 584 606 592 604 595 603 c 0
 598 602 604 600 608 600 c 0
 612 600 616 599 617 598 c 0
 617 597 622 596 627 594 c 1
 634 593 637 591 640 587 c 0
 643 584 650 576 656 570 c 0
 665 560 667 557 668 552 c 0
 669 549 669 546 668 545 c 1
 668 545 670 538 673 530 c 0
 678 515 678 515 679 486 c 0
 680 462 680 455 682 451 c 0
 684 448 685 443 685 435 c 0
 685 426 684 420 682 414 c 0
 679 406 679 406 682 396 c 0
 684 391 685 384 685 381 c 0
 685 377 684 371 682 366 c 0
 680 359 680 352 679 298 c 1
 679 241 679 237 682 229 c 0
 684 224 685 217 686 213 c 0
 687 209 688 204 689 202 c 0
 690 200 691 194 692 191 c 1
 692 186 694 182 697 178 c 1
 700 176 704 173 707 172 c 0
 712 170 714 170 719 172 c 0
 723 173 728 178 739 188 c 1
 747 197 755 206 757 209 c 0
 759 211 761 215 762 217 c 0
 762 219 764 222 765 223 c 0
 766 225 769 232 772 241 c 0
 775 249 779 261 781 267 c 1
 784 272 786 281 787 287 c 0
 788 292 790 299 792 303 c 0
 793 307 795 314 796 318 c 0
 799 324 799 331 799 361 c 0
 799 391 799 399 797 403 c 0
 795 407 794 413 793 417 c 0
 793 421 791 426 790 428 c 0
 789 430 788 435 787 440 c 0
 787 445 785 453 783 458 c 0
 780 463 777 470 775 473 c 0
 773 477 770 483 768 488 c 0
 766 492 764 498 764 501 c 0
 763 504 760 510 757 515 c 0
 754 519 749 526 745 530 c 0
 742 534 739 538 739 539 c 2
 739 539 738 542 735 545 c 0
 733 548 726 556 720 562 c 2
 706 576 l 2
 706 577 704 580 702 583 c 0
 701 585 696 590 691 594 c 2
 673 605 l 2
 668 607 663 610 661 611 c 0
 660 612 656 615 653 618 c 0
 650 621 642 626 635 629 c 0
 628 633 619 638 613 642 c 0
 608 645 602 648 598 649 c 0
 595 649 590 651 588 652 c 0
 585 653 579 655 573 655 c 0
 566 656 560 657 557 659 c 0
 554 661 551 662 551 663 c 0
 551 664 548 665 544 666 c 0
 539 667 531 667 521 667 c 1
 512 666 503 665 501 664 c 0
 498 663 486 662 470 661 c 1
 448 661 444 660 437 657 c 0
 433 655 429 653 428 653 c 0
 427 652 424 650 421 648 c 0
 417 646 413 643 411 643 c 0
 408 642 403 640 399 638 c 0
 395 636 389 632 386 630 c 0
 383 627 377 624 374 622 c 0
 371 620 364 616 359 613 c 0
 355 611 346 607 341 604 c 0
 336 601 327 595 321 589 c 0
 315 583 304 572 296 565 c 1
 289 557 281 547 278 542 c 0
 275 537 271 530 270 528 c 0
 268 525 266 520 265 518 c 0
 264 516 260 510 255 506 c 0
 249 500 246 496 245 492 c 0
 245 488 243 483 242 481 c 0
 240 478 239 472 238 467 c 0
 238 463 236 457 235 455 c 0
 233 452 232 449 231 449 c 0
 230 449 229 445 228 440 c 0
 227 436 225 430 224 428 c 0
 223 426 221 419 221 414 c 0
 220 409 219 403 218 401 c 0
 217 400 216 396 216 393 c 0
 216 389 217 385 218 383 c 0
 219 380 220 366 221 342 c 0
 222 307 222 306 226 296 c 0
 228 290 231 284 232 283 c 0
 233 282 235 277 237 272 c 0
 239 267 243 261 245 258 c 0
 247 255 250 249 251 245 c 0
 252 240 255 234 258 230 c 0
 260 227 264 221 266 217 c 0
 268 213 271 207 273 205 c 0
 274 203 276 200 277 198 c 0
 277 197 279 195 280 193 c 0
 281 191 290 181 299 171 c 0
 310 160 321 150 326 146 c 1
 332 143 338 137 341 134 c 0
 344 131 351 125 358 121 c 0
 364 117 372 112 375 111 c 0
 377 110 383 108 388 107 c 0
 392 106 398 104 400 103 c 0
 402 102 406 99 408 98 c 0
 410 96 415 95 420 94 c 0
 425 93 432 91 436 90 c 0
 440 88 448 85 454 83 c 0
 459 81 466 78 470 78 c 1
 473 77 478 77 481 77 c 0
 484 78 490 80 494 84 c 0
 497 87 505 91 509 94 c 0
 514 97 521 100 525 102 c 0
 531 105 533 106 554 106 c 0
 574 106 576 105 581 102 c 0
 584 101 588 96 591 92 c 0
 595 88 598 82 600 79 c 0
 602 74 603 69 603 52 c 0
 603 31 603 31 595 22 c 0
 591 17 583 9 578 5 c 0
 573 1 566 -3 561 -5 c 0
 556 -7 546 -8 538 -9 c 1
 529 -9 522 -11 519 -12 c 0
 516 -14 511 -15 505 -15 c 0
 500 -15 493 -14 490 -12 c 0
 485 -10 479 -10 454 -10 c 0
 428 -10 423 -9 419 -7 c 0
 417 -6 411 -4 407 -4 c 0
 403 -3 398 -2 398 -2 c 2
 397 -1 393 0 389 1 c 0
 385 2 379 4 377 6 c 1
 374 7 371 9 370 10 c 0
 368 11 363 13 357 15 c 0
 352 17 347 19 346 19 c 2
 346 19 339 22 331 26 c 0
 323 30 313 35 309 38 c 0
 304 41 298 45 295 48 c 0
 292 50 286 54 282 56 c 0
 277 59 272 63 268 66 c 0
 265 69 260 73 257 74 c 0
 254 76 243 86 233 96 c 0
 221 109 213 119 209 127 c 1
 205 132 200 141 197 145 c 0
 194 149 186 160 180 169 c 0
 174 178 167 190 165 195 c 0
 163 201 159 207 158 210 c 0
 156 213 154 219 152 225 c 0
 151 230 149 235 149 236 c 0
 148 237 147 241 146 245 c 0
 145 250 143 254 142 256 c 0
 141 257 139 262 138 266 c 0
 137 270 135 278 135 284 c 1
 134 289 133 294 132 296 c 0
 131 298 130 311 129 331 c 1
 129 358 128 365 126 369 c 0
 124 373 124 377 124 389 c 0
 124 401 124 407 126 413 c 0
 129 420 129 425 129 437 c 0
 129 446 130 453 131 453 c 1
 131 454 133 458 134 462 c 0
 135 466 136 471 137 472 c 0
 138 474 140 480 141 486 c 1
 143 491 145 500 146 505 c 0
 147 510 149 518 151 522 c 0
 154 527 157 535 159 540 c 0
 161 544 163 549 163 549 c 2
 163 550 166 553 169 556 c 0
 172 560 175 566 178 572 c 1
 180 580 183 585 189 591 c 0
 193 595 198 602 200 606 c 0
 202 609 218 626 235 642 c 0
 255 662 270 676 278 681 c 1
 284 686 290 689 291 689 c 2
 300 696 l 2
 304 700 311 704 317 706 c 0
 322 708 331 713 337 717 c 0
 342 720 350 724 353 726 c 1
 357 727 363 729 366 730 c 1
 370 730 374 732 376 733 c 0
 378 734 383 735 386 736 c 0
 389 736 394 737 396 739 c 1
 399 740 404 741 409 741 c 0
 414 742 420 743 422 744 c 0
 424 745 431 747 437 747 c 0
 443 747 450 749 452 750 c 0
567 365 m 0
 563 367 559 367 546 367 c 0
 536 367 528 366 524 365 c 0
 521 364 514 362 510 361 c 0
 505 360 499 357 495 355 c 0
 492 353 488 351 487 350 c 0
 485 349 483 348 480 347 c 0
 478 346 472 341 468 336 c 1
 463 332 458 325 456 322 c 0
 454 318 451 313 449 310 c 0
 446 305 445 302 445 296 c 0
 445 289 446 285 449 278 c 0
 451 272 454 267 456 266 c 1
 457 264 459 262 460 261 c 0
 460 260 462 258 463 256 c 0
 464 254 468 250 473 247 c 0
 478 244 483 241 484 239 c 0
 485 238 489 236 493 236 c 0
 497 235 504 235 508 235 c 0
 512 236 517 237 519 238 c 2
 527 242 l 2
 530 244 535 247 539 251 c 1
 544 254 547 257 547 257 c 2
 547 258 550 262 555 267 c 0
 559 271 563 277 564 279 c 0
 564 281 567 285 569 288 c 0
 572 292 574 296 575 299 c 0
 576 302 578 307 579 310 c 0
 581 314 581 319 581 333 c 0
 581 351 581 351 577 357 c 0
 574 360 570 363 567 365 c 0
EndSplineSet
Validated: 1
EndChar

StartChar: uni0041
Encoding: 65 65 34
Width: 747
GlyphClass: 2
Flags: HW
LayerCount: 2
Fore
SplineSet
313 721 m 0
 314 722 318 722 321 722 c 1
 323 721 329 721 332 721 c 0
 336 721 342 721 346 722 c 1
 351 722 354 722 359 720 c 0
 365 718 366 718 372 720 c 0
 377 722 385 722 405 722 c 0
 423 722 432 722 434 721 c 0
 436 720 439 717 441 716 c 0
 443 714 445 711 446 709 c 0
 448 707 450 699 453 693 c 1
 455 686 458 678 459 676 c 0
 461 673 462 670 462 669 c 0
 462 668 463 665 465 662 c 0
 467 659 470 653 472 649 c 2
 479 632 l 2
 481 627 484 620 485 616 c 0
 486 612 487 608 488 607 c 0
 489 606 490 602 491 599 c 0
 492 595 494 589 496 586 c 0
 497 583 500 580 501 578 c 0
 502 577 504 571 506 566 c 0
 509 560 511 555 512 554 c 0
 512 553 513 549 514 546 c 1
 514 542 517 534 520 527 c 0
 523 521 526 514 527 512 c 0
 528 510 529 507 530 506 c 0
 531 505 533 501 534 498 c 0
 535 495 537 489 538 484 c 0
 539 479 542 470 545 464 c 0
 549 457 553 449 556 446 c 0
 559 442 560 439 561 433 c 0
 561 429 563 423 564 421 c 0
 565 418 568 413 569 409 c 0
 571 404 572 399 572 396 c 0
 572 393 573 388 573 385 c 0
 574 381 578 373 583 367 c 1
 587 360 592 353 593 350 c 0
 594 348 596 343 597 339 c 0
 598 336 600 331 602 329 c 0
 603 327 606 323 608 321 c 0
 610 320 613 315 614 311 c 1
 616 308 618 302 619 298 c 0
 620 295 623 286 626 279 c 0
 629 272 631 264 631 260 c 0
 631 257 631 252 632 248 c 0
 633 245 635 241 636 240 c 0
 637 239 640 233 642 226 c 0
 644 220 646 214 647 213 c 0
 647 212 648 209 649 206 c 0
 650 204 652 197 655 192 c 0
 657 188 661 181 663 177 c 1
 666 174 669 167 671 163 c 0
 672 159 673 154 673 152 c 0
 673 150 676 142 680 133 c 0
 684 123 688 113 690 110 c 2
 697 99 l 2
 700 95 701 92 702 84 c 0
 702 76 703 73 708 66 c 0
 711 62 715 53 717 47 c 0
 719 41 722 34 723 31 c 0
 725 28 725 22 726 16 c 0
 726 5 725 5 721 1 c 0
 717 -3 716 -3 697 -4 c 0
 686 -5 663 -5 647 -5 c 0
 616 -5 616 -5 611 -0 c 0
 608 2 602 6 598 8 c 0
 594 10 590 14 589 16 c 0
 588 17 586 21 586 24 c 0
 585 27 583 33 580 38 c 0
 577 43 575 50 574 53 c 0
 574 56 572 61 570 65 c 0
 569 68 567 72 567 73 c 0
 567 74 566 77 564 79 c 0
 562 82 560 85 559 87 c 0
 558 89 555 98 553 106 c 0
 550 115 547 124 545 126 c 1
 544 129 541 135 540 141 c 1
 537 149 535 152 528 159 c 0
 523 163 518 167 517 167 c 2
 470 167 l 1
 394 167 l 2
 367 167 363 167 359 169 c 0
 354 171 350 172 334 172 c 1
 323 171 311 171 307 170 c 0
 302 168 280 167 249 167 c 0
 199 166 199 166 191 162 c 0
 184 158 181 156 180 152 c 0
 179 150 178 145 178 141 c 0
 178 136 177 131 173 126 c 1
 171 121 168 115 167 112 c 1
 167 108 165 103 164 101 c 0
 162 98 160 94 159 93 c 0
 158 92 156 87 155 82 c 0
 154 77 151 69 149 65 c 0
 146 60 141 46 137 34 c 0
 133 20 129 11 126 7 c 0
 124 4 119 1 116 -1 c 1
 111 -2 104 -4 93 -4 c 1
 83 -5 72 -6 68 -7 c 0
 63 -9 57 -10 54 -10 c 0
 52 -10 46 -8 41 -7 c 1
 37 -5 30 -4 27 -4 c 0
 22 -4 20 -3 14 2 c 0
 11 5 7 10 6 12 c 0
 5 13 5 15 5 16 c 0
 5 19 6 22 9 31 c 0
 12 39 16 49 17 53 c 0
 18 57 21 62 22 64 c 2
 26 72 l 2
 27 75 28 79 28 81 c 0
 28 83 30 90 33 97 c 0
 36 104 41 113 44 116 c 1
 47 121 50 126 52 134 c 0
 53 140 55 148 56 152 c 0
 57 155 58 159 59 160 c 0
 60 162 61 165 62 168 c 0
 64 171 66 178 68 184 c 0
 71 190 73 198 74 200 c 0
 75 203 77 208 78 210 c 0
 80 213 82 217 83 219 c 0
 84 220 86 226 86 231 c 1
 87 235 88 241 89 242 c 1
 89 244 91 247 93 248 c 1
 94 250 98 257 102 264 c 0
 106 272 109 280 110 283 c 0
 110 286 112 292 113 296 c 0
 115 300 117 305 118 307 c 0
 118 309 121 314 123 319 c 0
 125 324 128 329 129 330 c 0
 130 330 132 336 134 342 c 0
 137 348 140 355 141 359 c 1
 143 362 145 368 145 372 c 0
 145 376 146 380 147 382 c 0
 148 384 150 389 152 395 c 1
 155 400 157 405 158 406 c 0
 159 408 160 409 160 410 c 2
 160 410 162 413 163 415 c 0
 165 418 167 425 168 431 c 0
 170 437 172 446 173 450 c 0
 174 454 176 459 177 461 c 0
 178 463 180 466 182 468 c 0
 184 471 186 475 186 479 c 0
 187 483 188 488 189 491 c 0
 190 494 192 496 193 497 c 0
 194 498 197 504 198 509 c 0
 200 515 203 521 204 523 c 0
 206 525 208 529 209 533 c 0
 210 536 213 544 216 550 c 0
 218 556 221 564 222 568 c 1
 222 574 224 578 227 582 c 0
 229 585 234 594 237 601 c 0
 240 609 244 618 246 621 c 0
 248 624 250 628 251 630 c 0
 251 632 252 634 253 635 c 0
 253 636 255 640 256 644 c 0
 257 648 259 654 261 658 c 0
 262 661 267 669 271 674 c 2
 285 696 l 1
 288 703 292 710 295 712 c 0
 297 714 301 717 305 718 c 0
 308 719 312 720 313 721 c 0
363 599 m 0
 362 600 360 600 358 600 c 0
 357 600 354 599 352 597 c 0
 350 595 348 591 347 588 c 1
 345 586 342 578 338 571 c 0
 335 564 332 555 331 551 c 0
 330 547 326 537 322 529 c 0
 317 519 315 512 314 506 c 0
 314 501 313 496 312 495 c 0
 311 493 309 489 307 484 c 0
 305 479 303 475 303 474 c 0
 303 473 302 472 301 471 c 0
 300 470 298 466 297 462 c 0
 296 458 294 452 292 449 c 2
 288 441 l 2
 286 439 285 435 285 431 c 0
 284 427 283 420 281 416 c 0
 280 412 277 405 274 400 c 0
 271 395 268 389 268 385 c 1
 267 382 265 377 264 374 c 0
 263 372 261 367 260 363 c 0
 260 359 257 350 254 344 c 0
 251 337 248 330 246 328 c 1
 245 325 244 320 243 316 c 0
 243 312 241 305 239 301 c 0
 237 297 235 291 235 289 c 0
 235 287 237 283 240 279 c 0
 243 276 247 272 249 271 c 0
 252 270 268 270 289 270 c 0
 320 270 325 270 332 273 c 0
 339 275 344 275 360 275 c 0
 376 275 381 275 390 272 c 0
 396 270 398 270 401 270 c 0
 404 270 406 270 412 272 c 0
 421 275 424 275 428 273 c 0
 431 272 439 272 447 272 c 0
 455 272 464 273 469 275 c 0
 473 276 479 279 480 281 c 0
 482 283 484 287 484 291 c 0
 484 293 485 295 485 296 c 0
 485 298 484 299 483 301 c 0
 482 304 479 308 478 310 c 0
 476 312 474 317 472 320 c 0
 471 322 469 328 469 332 c 0
 468 338 465 346 459 358 c 0
 454 368 450 377 450 378 c 0
 450 379 447 386 443 392 c 0
 439 399 436 405 435 406 c 0
 434 408 432 411 431 414 c 0
 429 418 428 424 427 429 c 0
 427 434 425 441 424 445 c 1
 422 448 420 453 419 456 c 0
 417 459 416 466 416 470 c 0
 415 475 413 483 411 488 c 0
 409 493 406 499 405 501 c 0
 404 504 403 507 403 508 c 0
 403 509 401 513 399 518 c 0
 397 522 395 527 394 529 c 0
 393 530 392 534 392 537 c 0
 391 541 389 547 387 551 c 0
 385 555 382 561 381 565 c 0
 379 570 375 578 372 585 c 0
 369 591 365 597 363 599 c 0
EndSplineSet
Validated: 1
EndChar

StartChar: uni0042
Encoding: 66 66 35
Width: 678
GlyphClass: 2
Flags: HW
LayerCount: 2
Fore
SplineSet
140 727 m 0
 142 728 157 729 189 729 c 0
 231 729 237 728 245 726 c 0
 249 724 257 723 261 723 c 0
 265 723 271 724 275 726 c 0
 279 728 282 729 291 729 c 0
 296 729 304 728 315 728 c 0
 333 728 351 728 355 727 c 0
 358 727 368 728 376 728 c 0
 389 729 392 729 396 727 c 0
 399 725 406 724 416 723 c 0
 427 722 433 721 439 718 c 0
 443 716 449 713 452 712 c 0
 455 711 461 710 465 710 c 0
 470 710 476 708 483 705 c 0
 488 703 494 701 495 701 c 0
 496 701 500 700 504 698 c 0
 507 697 512 695 514 694 c 1
 517 694 520 692 522 691 c 0
 524 690 532 682 540 675 c 0
 551 664 556 658 559 650 c 0
 563 642 566 639 572 635 c 0
 576 632 581 628 582 626 c 0
 584 624 585 619 586 615 c 1
 586 610 588 604 591 601 c 0
 593 598 596 591 598 585 c 0
 600 580 603 571 603 567 c 1
 605 560 605 552 603 536 c 1
 602 518 601 513 597 501 c 0
 594 493 591 487 591 486 c 0
 591 485 589 479 586 473 c 0
 583 467 579 460 577 458 c 0
 575 455 574 453 574 452 c 2
 574 452 572 449 571 446 c 1
 569 444 566 440 564 438 c 0
 563 436 556 431 550 426 c 0
 544 421 539 416 539 416 c 2
 538 415 535 413 533 411 c 0
 530 409 524 406 519 404 c 1
 515 401 509 397 505 395 c 0
 500 392 499 390 499 387 c 0
 499 384 500 381 501 380 c 2
 511 375 l 2
 514 373 518 371 519 370 c 2
 525 367 l 2
 527 367 530 365 531 365 c 0
 532 364 537 361 542 359 c 0
 547 356 560 348 570 341 c 0
 581 334 591 327 592 326 c 0
 594 324 598 319 601 314 c 1
 605 310 608 304 609 301 c 0
 610 298 612 294 614 292 c 0
 615 290 618 284 619 279 c 0
 621 274 623 269 625 267 c 0
 626 266 628 263 629 259 c 0
 630 256 632 248 633 242 c 1
 633 235 635 221 636 211 c 0
 636 204 637 199 637 196 c 0
 637 191 636 189 635 186 c 0
 633 182 632 174 632 167 c 1
 631 161 630 154 630 153 c 1
 629 153 628 149 627 145 c 2
 623 133 l 2
 621 130 620 126 619 125 c 0
 618 124 616 120 615 117 c 0
 614 114 609 106 604 100 c 1
 600 93 591 84 586 79 c 0
 581 73 571 65 565 60 c 0
 559 55 549 48 543 43 c 0
 537 38 529 33 525 31 c 0
 521 30 517 28 516 28 c 0
 515 27 511 26 507 26 c 0
 502 25 497 24 493 22 c 0
 490 21 484 18 480 17 c 0
 475 16 467 13 461 12 c 0
 454 10 442 9 429 8 c 0
 416 7 407 6 404 5 c 0
 401 3 386 3 324 2 c 1
 258 2 247 1 243 -1 c 0
 240 -2 235 -3 227 -3 c 0
 221 -3 213 -2 209 -1 c 0
 205 0 199 1 197 1 c 0
 195 1 191 0 188 -1 c 0
 184 -3 181 -3 174 -2 c 0
 169 -2 160 -1 154 -2 c 0
 148 -2 142 -1 140 0 c 0
 139 1 126 2 113 2 c 0
 90 3 88 3 85 6 c 0
 83 8 80 12 78 15 c 0
 76 20 75 23 76 36 c 0
 77 45 77 55 77 58 c 0
 77 61 77 72 76 83 c 0
 75 94 73 104 72 108 c 0
 70 112 70 117 70 135 c 1
 71 147 71 164 71 174 c 0
 71 184 71 204 70 220 c 0
 70 228 69 240 69 252 c 0
 69 264 70 279 70 293 c 0
 71 318 71 342 71 345 c 2
 71 358 l 2
 71 361 71 366 72 369 c 0
 72 372 73 377 73 382 c 0
 74 387 74 391 72 395 c 0
 70 400 70 406 70 418 c 0
 70 430 70 436 72 439 c 0
 73 442 74 446 74 450 c 0
 73 454 72 460 71 465 c 0
 70 472 70 474 72 481 c 0
 74 488 75 496 75 564 c 0
 75 632 75 639 78 649 c 0
 80 659 80 660 78 671 c 0
 77 676 75 687 75 695 c 0
 74 707 74 709 77 713 c 0
 79 716 82 720 84 721 c 0
 87 723 93 724 112 725 c 0
 126 725 138 726 140 727 c 0
247 634 m 0
 244 635 238 636 232 636 c 0
 227 636 222 636 220 635 c 0
 218 635 214 632 211 628 c 1
 207 625 205 621 204 618 c 0
 203 615 204 611 206 608 c 1
 207 604 208 601 207 599 c 1
 207 596 206 592 205 590 c 1
 205 587 205 583 206 580 c 0
 206 578 207 575 207 570 c 0
 207 565 206 558 206 548 c 0
 206 529 206 518 207 516 c 0
 207 514 208 498 209 481 c 0
 209 464 210 449 210 448 c 0
 210 447 212 445 214 444 c 0
 216 443 223 439 229 436 c 0
 241 430 241 430 262 429 c 0
 274 428 285 428 288 428 c 0
 290 428 311 428 333 429 c 0
 374 430 375 430 384 434 c 0
 389 436 395 439 397 439 c 1
 398 440 403 441 406 441 c 0
 410 442 417 444 421 446 c 0
 425 448 432 452 435 454 c 0
 438 457 442 461 445 463 c 1
 447 466 449 469 450 472 c 0
 450 474 451 476 452 477 c 0
 453 478 455 483 457 488 c 0
 459 492 462 501 463 507 c 0
 464 513 466 520 466 523 c 0
 466 526 465 533 464 540 c 0
 462 547 460 557 459 562 c 0
 458 568 457 575 456 577 c 0
 455 579 449 585 444 590 c 2
 432 602 l 2
 431 603 428 605 425 607 c 0
 422 609 419 611 417 611 c 0
 415 612 412 614 411 615 c 0
 409 616 406 618 403 619 c 0
 400 620 394 622 388 623 c 0
 382 624 369 625 358 626 c 0
 347 627 332 628 325 629 c 0
 319 630 299 631 283 631 c 0
 259 632 252 632 247 634 c 0
338 331 m 0
 331 330 319 330 312 330 c 0
 305 330 292 331 283 331 c 2
 249 331 l 1
 237 330 229 329 222 326 c 0
 216 324 210 321 207 319 c 1
 205 316 203 314 203 311 c 0
 203 308 204 305 206 303 c 1
 207 300 208 290 208 251 c 0
 208 215 207 202 206 197 c 0
 204 192 204 188 205 183 c 0
 206 179 207 161 208 144 c 0
 208 127 209 112 209 112 c 1
 214 107 l 2
 217 104 220 103 224 102 c 0
 228 102 235 101 241 100 c 0
 247 100 254 99 258 99 c 1
 261 100 284 100 308 100 c 0
 344 101 353 101 361 103 c 0
 370 106 372 106 379 104 c 0
 387 102 387 102 396 107 c 0
 401 109 408 112 412 113 c 0
 415 114 421 116 424 118 c 0
 427 120 431 122 434 124 c 0
 436 126 442 128 447 130 c 0
 452 131 458 135 462 137 c 0
 466 140 471 146 474 150 c 0
 477 154 480 159 482 160 c 0
 483 161 485 165 487 168 c 0
 488 171 491 178 492 182 c 0
 493 186 494 194 494 198 c 0
 494 203 495 209 497 213 c 0
 497 215 498 217 498 219 c 0
 498 221 497 222 497 224 c 0
 496 226 495 229 494 230 c 0
 494 231 493 235 493 239 c 0
 492 243 491 249 489 252 c 0
 488 254 487 259 486 263 c 0
 485 266 481 274 477 281 c 0
 471 292 469 293 461 297 c 0
 456 300 451 303 448 305 c 0
 446 306 442 309 441 310 c 0
 439 312 432 314 425 316 c 2
 396 323 l 2
 387 325 377 327 372 328 c 0
 367 329 360 330 357 330 c 0
 354 331 345 331 338 331 c 0
EndSplineSet
Validated: 1
EndChar

StartChar: uni0043
Encoding: 67 67 36
Width: 662
GlyphClass: 2
Flags: HW
LayerCount: 2
Fore
SplineSet
336 740 m 1
 342 743 346 743 352 743 c 1
 356 742 370 742 383 742 c 0
 399 741 407 741 408 740 c 0
 409 739 415 737 421 736 c 0
 427 736 436 735 440 735 c 0
 445 735 451 734 454 733 c 0
 458 732 464 730 468 730 c 0
 473 729 480 727 485 725 c 0
 490 722 497 719 501 718 c 0
 506 717 511 715 514 714 c 0
 517 712 522 709 525 706 c 1
 529 704 535 699 539 696 c 0
 545 692 550 689 554 689 c 0
 561 688 563 686 577 672 c 0
 593 656 593 655 603 634 c 0
 609 623 614 612 614 611 c 0
 614 610 617 606 620 602 c 0
 624 598 628 592 629 590 c 0
 630 587 631 583 631 580 c 0
 631 577 632 571 634 567 c 1
 635 561 636 552 636 540 c 0
 636 529 635 520 634 518 c 0
 633 517 631 514 629 512 c 0
 628 510 624 507 620 506 c 1
 615 503 611 503 589 503 c 0
 570 503 561 503 557 505 c 0
 553 507 548 507 543 506 c 0
 539 506 533 505 530 505 c 0
 525 504 522 505 516 508 c 0
 511 510 506 514 503 516 c 1
 501 519 496 526 493 534 c 1
 489 541 486 552 485 558 c 0
 484 563 481 571 480 574 c 0
 478 578 476 582 475 583 c 0
 474 585 471 590 468 594 c 1
 465 601 461 605 454 610 c 0
 449 614 443 618 439 620 c 2
 428 627 l 2
 425 628 418 632 411 635 c 0
 404 637 396 640 393 641 c 0
 390 642 380 643 372 643 c 0
 361 642 356 643 351 645 c 0
 347 647 342 648 340 648 c 0
 337 648 334 647 332 646 c 0
 331 645 326 642 322 640 c 0
 318 638 310 634 305 633 c 0
 299 631 293 628 292 627 c 0
 291 626 288 625 285 624 c 0
 283 623 279 621 276 620 c 0
 273 618 268 614 266 612 c 0
 264 610 258 606 254 603 c 0
 250 601 245 596 243 594 c 0
 240 591 238 587 237 586 c 1
 237 584 234 580 232 577 c 0
 230 574 227 567 225 562 c 0
 222 557 216 545 211 535 c 0
 206 525 202 514 201 512 c 1
 201 509 200 505 199 504 c 0
 198 502 197 496 196 490 c 0
 195 485 194 477 193 473 c 1
 191 470 190 458 189 447 c 0
 188 436 187 424 186 421 c 0
 185 418 184 396 183 372 c 1
 183 345 183 324 184 317 c 0
 185 311 187 297 187 287 c 0
 188 276 190 262 191 257 c 0
 191 252 194 244 196 240 c 0
 198 236 200 228 201 221 c 0
 202 213 203 209 205 205 c 0
 207 203 210 199 211 198 c 1
 211 196 213 194 213 192 c 1
 214 191 216 187 217 184 c 0
 219 181 220 177 220 177 c 2
 220 176 222 172 226 167 c 0
 229 162 232 158 232 157 c 2
 232 157 236 152 242 146 c 0
 248 140 252 135 252 133 c 2
 252 127 l 2
 252 125 253 123 254 122 c 0
 255 120 260 118 265 118 c 0
 270 117 276 115 279 114 c 0
 283 112 291 112 303 112 c 0
 317 112 324 111 335 108 c 0
 343 106 352 104 355 102 c 0
 358 101 362 99 365 97 c 0
 367 96 371 95 374 95 c 0
 379 95 381 96 388 103 c 0
 394 109 397 111 402 113 c 0
 406 114 413 116 417 117 c 0
 422 119 428 122 429 123 c 0
 431 125 433 126 434 126 c 0
 435 126 439 130 443 134 c 0
 448 138 455 145 460 149 c 0
 465 153 471 159 473 161 c 0
 475 163 479 169 482 174 c 0
 485 179 490 186 492 191 c 0
 496 198 497 202 497 214 c 0
 498 228 499 230 502 232 c 1
 503 234 509 235 513 236 c 1
 518 236 525 238 529 239 c 0
 533 240 545 241 555 242 c 0
 565 243 573 244 574 245 c 1
 574 245 578 245 581 244 c 0
 584 243 594 242 604 241 c 0
 618 240 622 240 625 237 c 0
 627 235 631 231 632 228 c 0
 635 223 636 220 635 214 c 0
 635 210 634 199 633 189 c 0
 632 179 630 169 628 164 c 0
 627 159 624 154 623 153 c 0
 622 152 620 147 618 143 c 0
 616 139 612 132 610 127 c 0
 608 123 602 114 596 108 c 0
 591 102 585 94 583 91 c 0
 581 88 573 79 565 71 c 0
 557 64 548 56 545 54 c 0
 542 52 538 48 535 46 c 0
 533 44 529 42 527 40 c 0
 525 39 521 38 518 37 c 0
 516 37 512 35 509 33 c 0
 507 31 501 27 496 25 c 0
 488 22 484 21 473 20 c 0
 462 20 457 18 450 15 c 0
 445 13 440 11 438 10 c 0
 436 9 433 8 431 8 c 0
 428 7 417 7 405 7 c 0
 388 7 382 7 377 5 c 0
 373 4 367 3 350 3 c 0
 344 3 336 3 326 3 c 0
 293 3 280 3 273 5 c 0
 267 6 262 8 260 10 c 0
 258 11 252 13 247 15 c 0
 242 16 232 21 225 24 c 0
 218 28 211 31 210 31 c 0
 209 31 205 32 201 34 c 0
 198 35 195 37 194 38 c 0
 194 39 187 43 180 47 c 0
 173 51 166 55 164 56 c 1
 163 58 158 62 153 66 c 0
 148 69 142 75 139 77 c 0
 136 79 131 86 128 91 c 0
 123 98 118 104 112 108 c 0
 105 113 103 116 98 125 c 0
 95 131 93 136 92 137 c 2
 86 143 l 2
 82 148 82 150 82 156 c 0
 82 160 80 167 79 170 c 0
 78 174 76 179 74 181 c 0
 73 183 70 189 67 194 c 0
 65 199 61 210 58 219 c 0
 55 227 53 235 52 236 c 0
 51 236 51 239 51 241 c 0
 51 244 49 249 48 254 c 1
 46 258 45 268 44 274 c 0
 44 280 42 288 42 292 c 1
 41 295 39 302 38 306 c 0
 37 312 37 323 37 339 c 0
 37 353 38 366 37 369 c 0
 37 372 36 377 35 380 c 0
 34 382 34 383 34 385 c 0
 34 387 34 390 36 394 c 1
 37 401 38 410 38 430 c 0
 38 451 39 458 41 465 c 0
 42 470 45 477 46 480 c 0
 47 483 49 492 51 500 c 0
 53 507 55 517 56 522 c 0
 56 527 58 534 60 538 c 0
 61 542 64 548 65 551 c 0
 66 553 67 556 67 556 c 2
 67 557 68 559 69 560 c 0
 70 561 73 566 75 572 c 0
 77 577 80 582 81 583 c 0
 82 585 84 589 84 592 c 0
 85 596 87 601 88 604 c 1
 90 606 92 611 94 614 c 0
 96 617 104 626 112 633 c 0
 119 640 128 650 132 655 c 0
 135 660 141 667 145 670 c 0
 149 674 156 679 160 682 c 0
 165 685 173 690 177 693 c 0
 182 697 187 700 189 700 c 0
 192 701 199 706 205 711 c 0
 212 716 220 721 223 722 c 0
 227 723 233 725 239 726 c 1
 244 728 249 729 250 729 c 0
 251 729 256 730 261 732 c 0
 265 733 272 735 276 735 c 0
 280 736 285 737 287 739 c 1
 290 740 296 741 303 741 c 0
 309 741 317 740 321 739 c 0
 327 737 328 738 336 740 c 1
EndSplineSet
Validated: 1
EndChar

StartChar: uni0044
Encoding: 68 68 37
Width: 761
GlyphClass: 2
Flags: HW
LayerCount: 2
Fore
SplineSet
100 719 m 0
 106 721 113 723 116 723 c 0
 119 723 123 722 125 721 c 0
 128 720 137 720 147 719 c 0
 157 719 171 718 179 718 c 0
 188 717 199 718 209 719 c 0
 215 719 221 720 226 720 c 0
 231 720 237 719 243 719 c 0
 256 718 265 718 273 719 c 0
 279 720 285 721 287 721 c 0
 288 721 292 722 295 722 c 0
 299 723 303 723 308 721 c 0
 313 719 320 718 326 718 c 0
 331 718 337 719 339 720 c 0
 341 721 347 721 359 719 c 0
 368 718 383 717 391 717 c 0
 399 717 409 716 414 715 c 0
 418 714 426 713 430 713 c 0
 435 713 442 712 446 710 c 0
 451 708 459 706 465 706 c 0
 471 706 480 704 484 703 c 0
 488 702 497 699 504 697 c 0
 512 695 522 691 527 689 c 2
 537 685 l 2
 538 685 540 684 542 682 c 0
 544 681 550 677 556 675 c 0
 562 672 569 668 572 666 c 0
 574 664 579 660 583 659 c 0
 587 657 596 649 604 640 c 1
 613 632 621 624 624 622 c 0
 626 620 630 616 633 612 c 0
 635 608 639 602 641 598 c 0
 643 594 648 588 652 584 c 0
 656 580 661 572 664 567 c 0
 667 561 671 554 673 551 c 0
 675 549 676 544 677 540 c 0
 678 536 680 532 684 528 c 0
 686 525 689 521 690 519 c 0
 690 517 691 512 692 508 c 0
 694 504 695 496 697 491 c 0
 698 486 700 477 701 472 c 0
 702 466 703 457 703 451 c 0
 703 444 704 437 705 431 c 1
 707 426 708 417 709 409 c 0
 709 402 710 394 711 391 c 0
 712 388 712 384 712 381 c 0
 712 379 712 368 713 358 c 1
 713 347 713 331 712 322 c 0
 712 313 710 301 709 296 c 0
 707 291 705 284 704 281 c 0
 703 277 702 273 702 271 c 0
 702 269 701 264 699 259 c 0
 697 254 696 247 696 243 c 0
 696 239 695 233 694 230 c 0
 693 227 691 221 690 216 c 0
 689 211 686 205 684 201 c 0
 681 197 678 191 678 189 c 0
 677 186 675 182 672 179 c 0
 670 176 665 167 661 160 c 1
 658 152 654 144 652 141 c 0
 651 139 648 135 646 133 c 0
 645 132 643 129 643 128 c 0
 643 127 642 123 640 120 c 1
 639 115 635 112 630 108 c 0
 625 105 620 100 617 97 c 0
 615 94 610 89 607 85 c 1
 603 82 599 79 598 79 c 2
 598 79 593 78 588 76 c 0
 584 74 577 70 574 68 c 0
 570 66 567 63 567 63 c 2
 566 63 563 60 559 58 c 0
 555 55 552 53 551 53 c 2
 551 53 548 51 546 49 c 1
 543 48 539 44 536 42 c 0
 533 40 527 37 523 35 c 1
 518 34 513 32 512 32 c 0
 511 32 503 30 496 28 c 0
 488 25 481 22 480 21 c 0
 479 20 475 18 472 17 c 0
 469 16 460 14 454 14 c 0
 447 13 437 12 432 10 c 0
 427 9 419 6 415 5 c 0
 408 3 399 2 373 2 c 0
 344 2 339 2 335 0 c 0
 332 -2 326 -3 323 -3 c 0
 319 -3 313 -2 309 -1 c 0
 306 0 301 1 297 1 c 0
 294 1 287 0 281 -2 c 0
 274 -4 266 -5 255 -5 c 0
 243 -5 237 -4 232 -2 c 0
 225 1 224 1 219 -1 c 0
 214 -3 206 -4 177 -4 c 2
 118 -4 l 1
 97 -5 94 -4 90 -2 c 0
 87 0 82 5 78 9 c 0
 73 14 70 19 69 21 c 0
 69 23 68 28 69 31 c 1
 69 35 71 40 72 44 c 0
 74 49 74 53 74 59 c 1
 73 64 72 72 71 77 c 0
 69 85 69 108 69 255 c 1
 70 348 70 429 70 436 c 1
 69 442 69 453 69 461 c 0
 69 468 70 483 72 494 c 0
 73 504 74 515 73 517 c 0
 73 519 72 524 70 527 c 1
 69 531 69 536 69 551 c 0
 69 557 69 565 69 575 c 0
 69 601 70 620 71 626 c 0
 73 633 73 636 71 643 c 0
 70 647 70 652 70 654 c 0
 70 656 70 661 71 664 c 0
 73 669 73 672 71 677 c 1
 70 683 70 686 72 692 c 0
 73 697 76 703 79 706 c 0
 81 709 85 712 87 713 c 0
 88 714 94 716 100 719 c 0
257 624 m 0
 252 625 244 626 237 626 c 0
 231 626 224 625 221 624 c 0
 218 624 215 622 214 621 c 0
 213 620 211 619 210 619 c 0
 209 619 207 617 205 615 c 0
 201 611 201 611 201 554 c 0
 201 522 200 480 200 461 c 0
 200 442 199 424 198 420 c 1
 198 415 198 412 199 411 c 0
 201 409 201 389 201 305 c 0
 201 235 201 196 202 186 c 0
 203 175 203 168 202 160 c 0
 201 150 201 148 204 141 c 0
 206 134 207 130 206 127 c 0
 205 124 205 118 206 113 c 0
 207 107 208 104 211 102 c 0
 213 100 216 97 218 97 c 0
 220 96 229 95 238 95 c 0
 249 95 257 96 263 97 c 1
 267 99 276 101 284 102 c 0
 291 103 307 105 319 106 c 0
 331 106 352 106 366 105 c 0
 380 105 393 104 396 104 c 0
 398 104 404 106 408 108 c 0
 412 110 418 112 423 113 c 0
 427 114 431 116 432 117 c 0
 433 118 434 119 435 119 c 2
 435 119 440 121 444 124 c 0
 449 127 454 131 456 132 c 0
 458 134 462 135 466 136 c 0
 469 136 476 139 480 141 c 0
 485 144 492 148 496 151 c 0
 500 153 507 159 512 163 c 0
 517 166 524 173 526 177 c 0
 529 181 533 188 535 192 c 0
 537 196 539 200 540 201 c 0
 541 202 543 207 545 211 c 0
 546 215 551 224 554 231 c 0
 558 239 561 247 562 249 c 0
 562 251 565 260 568 269 c 0
 573 284 573 284 573 320 c 1
 574 343 574 358 576 362 c 0
 576 364 577 366 577 368 c 0
 577 370 576 372 576 374 c 0
 575 378 574 391 573 404 c 0
 573 417 571 429 570 431 c 0
 569 434 568 440 567 444 c 0
 567 448 566 454 564 457 c 0
 563 460 562 466 562 471 c 0
 561 477 560 483 558 487 c 0
 556 490 552 496 549 499 c 0
 547 502 541 512 537 521 c 0
 532 531 526 539 523 543 c 1
 519 546 515 550 514 553 c 1
 512 555 508 560 505 564 c 0
 501 568 495 574 491 577 c 0
 487 581 482 583 479 584 c 0
 477 585 468 588 460 592 c 2
 438 603 l 2
 434 604 427 606 423 607 c 0
 418 608 411 608 407 608 c 0
 403 608 394 611 383 614 c 0
 366 620 366 620 346 620 c 0
 331 620 324 621 320 622 c 1
 317 624 310 625 303 625 c 0
 296 625 290 624 286 622 c 0
 282 621 278 620 272 621 c 0
 268 621 261 623 257 624 c 0
EndSplineSet
Validated: 1
EndChar

StartChar: uni0045
Encoding: 69 69 38
Width: 626
GlyphClass: 2
Flags: HW
LayerCount: 2
Fore
SplineSet
276 715 m 0
 279 717 282 717 290 717 c 1
 295 716 303 715 307 714 c 0
 314 712 322 711 352 711 c 0
 382 711 390 711 394 709 c 0
 397 708 403 707 407 707 c 0
 411 707 417 708 420 709 c 0
 423 710 431 712 439 713 c 0
 446 713 453 714 453 713 c 1
 454 713 463 713 472 712 c 1
 484 712 490 711 493 709 c 0
 496 708 499 707 501 707 c 0
 504 707 508 708 511 709 c 0
 514 711 521 711 528 711 c 0
 540 711 541 711 547 707 c 0
 551 704 555 700 557 698 c 0
 559 696 561 692 563 690 c 1
 564 687 565 681 565 668 c 0
 566 654 565 649 563 642 c 0
 561 637 559 630 557 626 c 0
 555 623 552 619 549 617 c 0
 547 616 541 613 537 612 c 0
 532 610 525 608 520 608 c 0
 516 608 507 607 502 606 c 0
 496 605 489 604 485 604 c 0
 481 605 476 606 473 607 c 0
 469 608 462 608 457 608 c 0
 451 608 445 609 442 611 c 0
 437 613 433 613 424 613 c 1
 417 612 411 611 410 610 c 0
 408 609 393 608 341 608 c 0
 281 608 275 609 266 611 c 0
 258 613 253 614 240 613 c 1
 225 613 223 612 219 609 c 0
 217 607 213 602 211 597 c 0
 207 590 207 589 208 574 c 0
 208 566 209 549 209 537 c 0
 210 525 211 514 211 513 c 0
 212 512 213 491 213 468 c 0
 214 425 214 425 218 420 c 0
 220 416 223 414 227 413 c 0
 230 412 239 412 255 412 c 0
 262 412 270 412 279 412 c 0
 304 413 327 413 331 413 c 0
 336 413 344 413 351 412 c 0
 361 411 364 412 372 414 c 0
 378 416 386 417 391 418 c 1
 397 418 402 417 404 416 c 0
 406 415 410 414 413 415 c 0
 416 416 427 416 438 417 c 0
 449 417 461 417 465 416 c 0
 469 415 475 414 477 414 c 0
 479 414 492 413 505 412 c 0
 528 411 528 411 533 407 c 0
 536 404 539 400 540 398 c 0
 542 394 543 388 543 366 c 0
 543 340 543 338 540 334 c 0
 538 331 534 327 530 324 c 0
 527 321 521 318 518 316 c 0
 513 314 503 314 398 314 c 0
 301 314 281 314 272 312 c 0
 266 311 261 311 258 311 c 1
 257 312 249 312 240 311 c 0
 231 310 224 308 221 306 c 0
 218 305 216 303 215 301 c 0
 215 300 214 287 213 272 c 0
 212 257 212 243 212 241 c 2
 212 181 l 1
 213 151 214 123 215 120 c 0
 216 117 218 114 222 111 c 0
 227 108 229 107 247 106 c 0
 259 106 268 105 271 103 c 0
 273 102 278 101 283 100 c 0
 288 100 293 100 299 103 c 1
 308 105 312 106 340 106 c 0
 364 106 373 105 378 104 c 1
 381 102 386 101 389 101 c 0
 392 101 396 102 399 104 c 0
 402 105 409 106 414 106 c 0
 420 106 427 105 432 103 c 0
 439 101 440 101 446 104 c 1
 453 106 457 106 492 106 c 0
 524 106 530 105 535 103 c 0
 538 102 546 100 555 100 c 1
 563 99 571 98 572 98 c 0
 573 97 575 95 576 93 c 0
 577 91 578 88 577 86 c 0
 576 83 576 79 575 76 c 1
 575 72 576 69 579 62 c 0
 583 54 584 52 584 40 c 0
 584 31 583 24 581 21 c 0
 580 18 578 14 576 12 c 0
 574 9 570 7 563 5 c 0
 554 3 543 3 369 2 c 0
 267 2 184 1 183 1 c 0
 182 1 173 2 163 2 c 0
 153 3 142 4 140 5 c 0
 136 7 131 7 122 6 c 0
 111 5 110 6 104 10 c 0
 101 12 97 15 96 17 c 0
 95 18 93 25 92 30 c 0
 91 36 89 41 88 42 c 0
 87 42 87 67 87 102 c 0
 87 137 86 168 85 177 c 0
 84 186 83 194 83 196 c 0
 84 198 84 214 85 231 c 1
 85 249 86 271 86 279 c 0
 86 290 85 296 83 300 c 0
 81 305 81 311 81 333 c 0
 81 354 81 361 83 366 c 0
 85 370 85 375 85 387 c 1
 84 395 83 407 83 414 c 0
 83 420 82 431 81 438 c 0
 80 445 80 461 80 475 c 0
 80 488 80 508 79 518 c 1
 79 531 79 540 77 544 c 0
 77 546 76 548 76 550 c 0
 76 552 77 556 77 560 c 0
 77 566 78 571 79 572 c 0
 79 573 80 587 80 604 c 1
 81 620 81 644 81 655 c 0
 81 673 81 679 84 688 c 0
 86 694 88 700 90 703 c 0
 92 705 96 708 99 709 c 0
 103 710 106 711 116 711 c 0
 120 711 124 711 130 711 c 0
 143 710 156 710 158 710 c 0
 160 710 187 710 217 711 c 0
 265 712 272 712 276 715 c 0
EndSplineSet
Validated: 1
EndChar

StartChar: uni0046
Encoding: 70 70 39
Width: 564
GlyphClass: 2
Flags: HW
LayerCount: 2
Fore
SplineSet
445 727 m 0
 447 728 452 728 457 728 c 0
 459 728 461 728 464 728 c 0
 471 728 483 727 491 727 c 0
 499 727 507 726 509 725 c 0
 511 724 517 723 521 723 c 0
 528 723 530 723 534 718 c 0
 537 715 539 711 540 709 c 0
 540 707 540 703 539 700 c 0
 539 697 540 689 542 682 c 0
 543 676 544 672 544 668 c 0
 544 665 543 662 543 659 c 0
 542 654 541 648 541 645 c 0
 541 642 540 639 537 636 c 0
 534 633 531 632 524 631 c 0
 519 631 512 629 509 628 c 0
 506 627 501 626 489 626 c 0
 480 626 468 627 449 627 c 0
 419 627 392 628 389 628 c 0
 385 628 370 627 355 626 c 0
 335 625 325 624 320 622 c 0
 314 620 312 620 308 621 c 0
 306 622 297 623 289 624 c 0
 278 625 273 624 270 623 c 0
 267 622 256 621 245 620 c 0
 228 619 224 619 221 616 c 0
 219 615 215 611 213 608 c 0
 211 605 210 602 210 594 c 0
 210 588 209 581 208 578 c 0
 206 573 206 570 208 556 c 0
 209 547 210 531 210 520 c 0
 210 507 209 498 208 493 c 0
 207 489 206 481 206 475 c 0
 206 469 207 459 208 453 c 1
 210 448 213 439 215 435 c 0
 217 430 220 426 222 425 c 0
 223 424 226 423 228 423 c 0
 230 423 236 422 241 421 c 0
 248 419 254 419 265 419 c 0
 277 420 282 421 292 425 c 0
 303 429 303 429 314 427 c 0
 321 425 330 423 335 421 c 0
 342 419 348 418 355 419 c 0
 360 419 368 420 372 421 c 0
 376 421 401 423 427 423 c 0
 453 424 477 425 481 426 c 0
 485 426 489 426 491 425 c 0
 492 424 498 423 504 422 c 0
 513 421 516 420 519 416 c 0
 521 414 524 410 526 408 c 1
 527 405 528 398 528 374 c 0
 528 357 527 342 526 340 c 0
 525 338 523 333 521 330 c 0
 519 327 515 324 513 322 c 0
 511 321 503 320 495 320 c 0
 487 319 474 319 466 320 c 0
 457 321 447 323 443 324 c 0
 437 326 435 326 425 325 c 0
 419 324 412 323 409 323 c 1
 407 322 402 321 398 321 c 1
 395 320 387 319 382 318 c 0
 376 317 368 318 362 319 c 0
 353 320 347 320 332 319 c 0
 315 317 311 317 303 319 c 0
 298 321 293 322 291 322 c 0
 289 322 283 320 278 318 c 0
 269 314 267 314 257 315 c 0
 251 316 243 317 238 317 c 0
 233 317 229 316 225 313 c 0
 221 311 218 308 216 303 c 0
 214 300 212 293 211 288 c 0
 211 286 210 282 210 276 c 0
 210 270 211 262 211 254 c 0
 211 240 212 226 212 223 c 0
 212 219 211 181 211 137 c 0
 211 94 211 51 212 43 c 0
 212 35 211 25 210 22 c 0
 209 17 206 13 201 9 c 1
 195 2 194 2 182 0 c 0
 173 -2 168 -2 162 0 c 0
 158 1 150 1 145 1 c 0
 139 1 133 0 130 -1 c 0
 127 -2 120 -3 115 -3 c 0
 110 -3 103 -2 98 0 c 0
 93 2 87 4 86 5 c 0
 84 7 82 10 80 13 c 1
 79 17 78 25 77 45 c 0
 76 60 76 76 76 81 c 1
 77 85 77 99 77 112 c 0
 77 125 76 139 75 143 c 0
 75 146 74 150 74 155 c 0
 74 160 75 166 75 175 c 0
 75 184 76 191 76 197 c 0
 76 203 75 207 75 211 c 0
 74 217 73 225 73 229 c 2
 73 258 l 1
 72 277 72 282 74 287 c 0
 76 293 76 295 75 301 c 0
 74 306 73 327 72 348 c 0
 71 369 71 388 70 390 c 1
 70 401 l 2
 70 405 71 434 71 465 c 0
 72 509 73 524 74 528 c 0
 75 531 76 538 76 543 c 0
 76 549 76 556 75 559 c 0
 74 563 74 567 75 576 c 0
 77 585 77 591 76 600 c 0
 75 607 74 614 74 616 c 1
 73 617 72 634 71 654 c 0
 71 662 71 668 71 673 c 0
 71 686 71 693 72 696 c 0
 73 700 76 705 79 708 c 1
 82 713 86 715 94 717 c 0
 103 720 107 721 122 720 c 0
 134 720 142 721 147 722 c 0
 151 723 159 725 164 725 c 0
 169 725 202 725 238 724 c 0
 251 724 262 724 271 724 c 0
 294 724 308 724 312 725 c 0
 316 725 322 727 326 727 c 0
 330 728 335 727 338 726 c 0
 342 725 346 723 347 722 c 0
 349 721 352 720 355 720 c 0
 358 720 362 721 365 722 c 0
 368 724 373 725 376 725 c 0
 379 725 384 725 386 726 c 0
 390 727 393 727 399 725 c 0
 404 724 409 723 411 724 c 1
 414 724 421 725 427 725 c 0
 433 725 441 726 445 727 c 0
EndSplineSet
Validated: 1
EndChar

StartChar: uni0047
Encoding: 71 71 40
Width: 739
GlyphClass: 2
Flags: HW
LayerCount: 2
Fore
SplineSet
320 733 m 0
 325 734 340 735 396 735 c 0
 462 735 466 735 474 732 c 0
 478 730 484 729 486 729 c 0
 489 729 493 728 494 728 c 0
 496 727 501 724 506 722 c 0
 512 719 518 718 527 718 c 1
 534 717 543 716 548 714 c 0
 552 713 559 710 562 708 c 0
 565 707 570 703 572 701 c 0
 575 699 583 695 589 692 c 0
 596 689 604 683 607 680 c 0
 611 677 618 669 622 663 c 0
 627 657 634 649 638 646 c 0
 641 643 645 638 647 636 c 1
 648 633 650 630 651 628 c 0
 652 626 654 623 655 622 c 0
 656 621 660 615 663 610 c 0
 666 603 669 596 669 590 c 1
 670 585 672 577 674 572 c 0
 676 566 678 562 678 561 c 0
 679 560 680 549 680 536 c 0
 680 513 680 513 672 505 c 0
 664 497 664 497 652 497 c 1
 645 496 620 496 597 496 c 0
 559 496 553 497 550 499 c 0
 548 500 545 504 542 507 c 0
 540 510 537 516 536 520 c 0
 535 523 534 530 534 534 c 0
 534 538 533 542 532 544 c 0
 532 546 530 551 530 555 c 0
 529 559 527 567 524 572 c 0
 522 577 517 584 515 586 c 0
 512 589 509 592 509 593 c 0
 509 594 506 598 502 601 c 0
 497 604 491 609 489 612 c 0
 486 615 479 619 474 621 c 0
 469 623 461 626 458 628 c 0
 452 631 449 631 432 632 c 0
 418 632 412 633 408 635 c 0
 404 637 398 637 382 638 c 1
 362 638 359 638 348 634 c 0
 341 632 332 629 329 628 c 0
 326 627 321 626 318 625 c 0
 316 625 307 622 300 619 c 0
 292 615 285 613 284 613 c 0
 283 613 278 610 273 606 c 0
 268 602 263 598 262 597 c 0
 261 595 257 592 254 590 c 0
 251 588 248 584 247 582 c 0
 246 580 242 574 238 570 c 0
 234 566 229 560 228 558 c 0
 226 555 223 549 221 544 c 0
 220 539 216 531 212 526 c 0
 208 520 206 515 204 507 c 0
 203 501 200 493 197 488 c 0
 194 482 193 478 192 469 c 0
 192 463 190 454 189 450 c 0
 186 444 186 438 186 418 c 0
 186 400 185 393 183 386 c 0
 181 380 181 373 181 341 c 0
 181 309 181 303 183 298 c 0
 185 295 186 288 186 278 c 0
 187 267 188 262 191 255 c 0
 193 250 195 245 196 244 c 0
 197 243 198 239 198 236 c 1
 199 234 201 228 203 223 c 0
 205 219 209 213 211 210 c 0
 213 207 216 202 216 199 c 0
 217 196 219 190 221 185 c 0
 223 181 228 173 232 168 c 0
 237 161 241 155 243 148 c 0
 245 143 248 137 250 135 c 0
 251 133 256 129 259 126 c 2
 267 120 l 2
 268 120 271 119 274 117 c 0
 277 114 282 113 289 112 c 0
 294 112 303 109 309 106 c 0
 315 104 323 101 327 101 c 0
 331 100 338 98 342 97 c 0
 347 95 352 93 353 92 c 2
 361 90 l 1
 373 86 l 1
 375 84 383 83 389 82 c 1
 398 82 403 80 408 78 c 0
 413 75 416 75 419 75 c 0
 422 76 428 77 433 78 c 0
 437 78 443 80 445 80 c 0
 447 81 454 84 461 86 c 0
 469 88 477 91 479 92 c 0
 482 93 491 94 499 95 c 0
 513 97 516 97 525 103 c 0
 531 106 536 110 538 112 c 0
 540 114 541 118 541 163 c 1
 542 189 542 213 543 215 c 0
 544 217 545 222 545 226 c 0
 545 229 544 234 543 235 c 0
 542 237 541 242 540 247 c 0
 539 254 538 258 534 263 c 0
 531 268 528 271 525 272 c 0
 522 273 508 274 494 274 c 0
 480 274 467 275 465 276 c 0
 463 277 456 278 450 278 c 0
 442 279 434 279 429 278 c 0
 424 277 417 276 415 277 c 1
 412 277 407 280 405 282 c 0
 403 284 399 288 398 291 c 0
 396 294 395 299 395 301 c 0
 395 303 393 308 392 313 c 0
 389 321 389 321 392 329 c 0
 393 333 395 340 395 344 c 0
 395 349 396 354 398 358 c 0
 399 362 402 366 404 368 c 0
 406 370 410 372 412 373 c 1
 415 373 417 374 417 375 c 0
 418 376 432 376 449 376 c 0
 472 376 481 376 485 374 c 0
 490 372 492 372 496 374 c 0
 498 375 517 376 557 376 c 0
 614 377 614 377 621 380 c 1
 627 384 629 384 639 383 c 0
 646 383 654 381 657 380 c 0
 660 378 664 375 666 373 c 0
 667 371 670 367 671 364 c 0
 674 359 674 353 674 319 c 0
 674 292 673 277 672 273 c 0
 671 268 671 266 672 260 c 1
 674 255 674 239 675 215 c 1
 675 175 l 2
 675 174 675 160 676 145 c 1
 676 109 l 2
 676 103 675 84 675 66 c 0
 674 39 673 32 671 27 c 0
 669 23 666 19 662 16 c 0
 659 14 652 11 646 9 c 0
 640 7 634 5 633 4 c 2
 633 4 628 2 622 1 c 1
 617 -1 609 -3 604 -4 c 0
 599 -5 593 -6 591 -7 c 0
 589 -8 583 -9 579 -9 c 0
 575 -9 569 -8 567 -7 c 0
 565 -6 561 -4 558 -4 c 1
 556 -3 549 -4 542 -6 c 0
 536 -8 529 -9 528 -9 c 0
 526 -9 521 -10 517 -11 c 0
 512 -12 502 -14 495 -15 c 0
 487 -16 478 -17 475 -18 c 0
 471 -20 463 -21 445 -21 c 0
 423 -21 420 -21 415 -19 c 0
 409 -16 404 -16 370 -15 c 0
 337 -15 330 -15 326 -13 c 0
 323 -11 316 -10 311 -9 c 0
 305 -8 300 -7 298 -6 c 0
 296 -5 289 -4 283 -4 c 0
 277 -3 269 -2 266 0 c 0
 263 1 259 3 258 4 c 0
 257 5 251 7 246 8 c 0
 241 9 234 12 230 14 c 0
 227 16 220 19 215 21 c 0
 210 23 202 26 198 29 c 1
 193 31 188 33 186 34 c 0
 184 35 182 37 180 38 c 1
 179 40 175 42 171 44 c 0
 167 46 162 50 159 53 c 0
 156 56 151 60 148 62 c 0
 146 64 142 68 141 71 c 1
 139 73 136 77 134 79 c 0
 132 82 128 87 125 90 c 1
 123 94 117 101 113 105 c 0
 108 109 101 115 98 118 c 0
 94 123 91 127 90 133 c 0
 88 139 85 144 81 148 c 0
 77 152 73 158 70 163 c 0
 68 167 66 174 65 177 c 1
 65 181 63 187 61 190 c 0
 59 194 58 199 58 203 c 0
 58 207 56 214 54 219 c 0
 52 224 50 230 49 231 c 0
 48 233 47 243 45 253 c 0
 44 263 43 275 43 281 c 2
 43 298 l 2
 43 303 43 314 42 323 c 0
 41 331 39 342 38 345 c 0
 37 348 36 350 36 352 c 0
 36 354 37 355 38 359 c 0
 39 364 41 376 42 391 c 0
 43 403 44 417 45 420 c 0
 46 424 47 431 47 436 c 0
 48 443 49 449 53 457 c 0
 57 465 58 469 58 477 c 0
 58 483 59 491 60 496 c 0
 61 501 64 507 65 511 c 1
 67 514 69 520 71 525 c 0
 73 529 77 536 80 540 c 0
 83 545 86 550 87 553 c 0
 87 556 90 563 93 569 c 0
 96 576 100 584 101 586 c 0
 102 589 105 595 109 598 c 1
 112 602 117 608 119 612 c 0
 121 616 127 624 133 629 c 0
 138 634 146 641 150 645 c 0
 153 648 159 655 162 659 c 1
 164 664 169 669 172 671 c 0
 174 673 179 676 182 677 c 0
 185 678 191 681 194 682 c 0
 197 684 204 687 209 690 c 0
 214 694 223 699 230 702 c 0
 237 705 245 709 248 710 c 0
 251 712 254 713 255 713 c 0
 256 713 260 715 264 717 c 0
 268 719 279 723 287 725 c 0
 296 727 305 729 309 730 c 0
 312 730 317 732 320 733 c 0
EndSplineSet
Validated: 1
EndChar

StartChar: uni0048
Encoding: 72 72 41
Width: 743
GlyphClass: 2
Flags: HW
LayerCount: 2
Fore
SplineSet
566 727 m 0
 568 728 571 729 574 729 c 0
 576 729 587 728 597 726 c 0
 608 724 622 723 630 723 c 0
 641 723 645 722 649 720 c 0
 654 718 656 715 660 707 c 0
 663 701 666 695 666 693 c 0
 666 692 667 687 668 683 c 0
 669 679 670 673 670 671 c 0
 670 668 669 663 668 660 c 0
 666 657 665 651 665 647 c 0
 665 642 666 637 667 634 c 0
 670 629 670 623 670 580 c 0
 670 531 670 531 665 524 c 0
 661 518 660 515 661 512 c 0
 661 509 662 506 664 505 c 0
 665 504 666 501 667 498 c 0
 668 494 668 491 666 485 c 0
 665 480 664 470 664 459 c 0
 664 450 664 432 665 420 c 0
 666 407 668 395 668 392 c 0
 669 388 669 384 668 378 c 0
 667 372 667 369 668 364 c 0
 669 360 670 350 670 342 c 0
 670 330 669 325 667 321 c 0
 665 318 665 314 665 303 c 0
 665 296 666 288 667 286 c 0
 669 283 670 265 670 226 c 1
 671 195 671 162 671 153 c 0
 671 151 671 146 671 140 c 0
 671 126 671 105 670 84 c 0
 669 36 669 29 666 20 c 0
 664 14 662 8 660 7 c 0
 658 5 654 3 647 3 c 1
 642 2 636 1 633 -1 c 0
 630 -2 625 -3 619 -3 c 0
 613 -3 606 -2 602 -1 c 0
 596 1 588 1 574 1 c 0
 555 1 555 1 541 7 c 0
 533 11 525 16 524 17 c 0
 522 20 521 24 520 30 c 0
 519 35 518 42 518 45 c 0
 517 50 517 52 521 57 c 0
 524 62 525 65 526 80 c 0
 527 90 528 110 528 126 c 1
 529 141 529 157 529 162 c 2
 529 177 l 1
 529 202 l 1
 529 234 l 2
 529 242 530 252 530 256 c 0
 531 261 531 266 530 272 c 0
 529 276 528 285 528 291 c 0
 527 297 526 304 525 306 c 2
 517 314 l 2
 515 316 510 319 508 319 c 0
 506 320 482 320 455 320 c 0
 413 320 405 321 399 323 c 0
 395 324 386 325 371 326 c 1
 352 326 349 326 340 323 c 0
 331 321 326 320 304 320 c 0
 283 320 278 321 271 323 c 0
 264 326 260 326 252 326 c 1
 245 325 238 324 232 321 c 0
 226 319 221 315 218 312 c 0
 215 308 213 304 212 301 c 1
 212 297 211 277 211 256 c 0
 210 234 210 215 210 212 c 0
 210 210 210 190 211 168 c 0
 211 146 212 105 212 76 c 0
 212 28 212 24 209 20 c 0
 208 18 204 14 201 12 c 0
 197 10 192 7 189 5 c 0
 184 3 178 3 142 3 c 0
 109 3 101 3 96 5 c 0
 93 6 89 9 86 10 c 1
 84 12 81 16 80 19 c 0
 79 22 77 32 76 43 c 1
 74 53 73 65 73 70 c 0
 73 75 74 81 75 84 c 0
 76 87 76 90 75 94 c 0
 73 98 72 112 72 128 c 0
 72 144 71 158 71 161 c 0
 71 163 72 177 72 191 c 0
 73 205 74 220 75 224 c 0
 76 230 76 234 75 238 c 0
 73 243 73 265 72 329 c 0
 72 376 72 418 71 422 c 0
 70 428 71 434 72 438 c 0
 73 444 73 447 71 456 c 0
 70 462 69 464 69 467 c 0
 69 469 69 471 70 473 c 0
 72 478 72 502 73 589 c 0
 73 667 74 701 75 705 c 0
 76 709 78 713 81 715 c 0
 85 718 90 719 99 721 c 0
 108 723 120 723 148 723 c 0
 180 723 186 722 192 719 c 0
 196 718 201 715 202 714 c 0
 203 713 206 707 207 702 c 0
 209 696 210 690 211 687 c 0
 211 685 211 678 209 672 c 0
 207 663 207 661 208 651 c 1
 210 643 210 639 208 630 c 0
 207 623 207 613 207 606 c 0
 207 600 208 593 209 590 c 0
 210 587 211 569 211 511 c 0
 212 437 212 437 215 433 c 1
 219 430 219 430 299 430 c 1
 354 429 382 429 388 428 c 0
 394 426 398 426 401 427 c 0
 404 429 420 429 444 429 c 0
 474 429 483 429 487 427 c 0
 490 426 494 425 496 425 c 0
 498 425 504 427 509 429 c 0
 516 432 520 435 525 442 c 0
 531 450 531 450 531 505 c 0
 531 517 531 527 531 535 c 0
 531 557 530 564 529 568 c 0
 528 572 527 579 526 584 c 0
 526 589 526 596 527 599 c 0
 528 602 528 611 527 622 c 1
 527 634 527 642 528 646 c 0
 529 651 529 653 527 658 c 0
 525 661 524 668 524 674 c 0
 524 679 523 687 522 690 c 0
 520 696 520 697 522 704 c 1
 524 707 526 712 527 713 c 0
 528 715 533 717 538 718 c 0
 542 719 546 721 547 722 c 0
 548 722 552 723 555 724 c 1
 559 724 564 726 566 727 c 0
EndSplineSet
Validated: 1
EndChar

StartChar: uni0049
Encoding: 73 73 42
Width: 269
GlyphClass: 2
Flags: HW
LayerCount: 2
Fore
SplineSet
93 735 m 0
 94 735 97 735 101 735 c 0
 109 735 120 735 132 735 c 0
 152 735 164 734 167 733 c 0
 169 732 173 730 176 730 c 0
 180 729 185 727 188 726 c 0
 191 724 195 721 198 718 c 0
 201 714 202 711 202 707 c 0
 202 705 203 699 205 694 c 0
 207 688 208 681 208 674 c 0
 208 665 208 661 206 657 c 0
 203 653 203 648 203 631 c 2
 203 488 l 2
 203 466 203 442 203 418 c 0
 203 371 203 325 203 300 c 0
 203 263 204 221 204 206 c 1
 205 192 205 178 206 175 c 0
 207 173 207 166 207 159 c 1
 206 153 206 142 207 134 c 1
 207 106 l 2
 207 97 207 80 206 67 c 0
 205 54 205 43 205 42 c 0
 205 41 205 37 206 33 c 0
 206 29 205 23 204 20 c 0
 203 17 201 13 199 10 c 0
 198 8 194 5 192 4 c 0
 189 3 180 1 171 1 c 1
 163 0 152 -1 148 -1 c 0
 144 -2 130 -3 118 -3 c 0
 104 -3 93 -2 90 -1 c 0
 86 0 81 2 79 4 c 0
 76 6 72 9 71 12 c 0
 70 15 67 19 66 22 c 0
 65 26 64 31 64 34 c 0
 64 38 65 42 66 45 c 0
 67 47 68 51 68 52 c 0
 68 54 67 58 66 61 c 0
 64 65 64 71 64 90 c 1
 65 103 66 120 67 128 c 0
 69 140 68 143 66 152 c 0
 65 159 64 168 64 193 c 0
 64 218 64 226 66 231 c 0
 68 237 68 239 66 247 c 0
 64 255 64 267 64 322 c 2
 64 431 l 2
 64 460 65 477 66 480 c 0
 67 484 67 486 66 490 c 0
 65 494 64 512 64 537 c 0
 64 572 63 580 61 587 c 0
 59 592 58 599 58 606 c 0
 58 612 59 619 61 625 c 0
 64 633 64 637 64 663 c 0
 64 679 64 695 63 699 c 0
 62 705 63 708 65 712 c 0
 66 715 71 721 77 726 c 0
 85 734 87 735 93 735 c 0
EndSplineSet
Validated: 1
EndChar

StartChar: uni004A
Encoding: 74 74 43
Width: 488
GlyphClass: 2
Flags: HW
LayerCount: 2
Fore
SplineSet
304 725 m 0
 306 725 310 726 312 726 c 0
 315 726 321 724 325 722 c 0
 333 719 335 718 361 718 c 0
 388 717 388 717 394 713 c 0
 397 710 401 708 403 707 c 0
 404 706 408 703 409 701 c 0
 411 698 413 694 413 693 c 0
 413 691 413 689 414 689 c 0
 415 688 417 685 419 682 c 0
 421 678 423 674 423 671 c 0
 423 668 422 662 420 658 c 0
 418 651 418 649 420 644 c 0
 421 639 422 623 422 594 c 0
 422 580 423 569 423 561 c 0
 423 553 422 549 422 547 c 0
 421 545 420 540 420 536 c 0
 420 533 420 526 421 521 c 0
 423 513 423 511 420 504 c 0
 417 495 417 495 420 487 c 0
 423 479 422 476 423 370 c 0
 424 269 424 260 426 256 c 0
 428 254 429 250 429 248 c 0
 429 246 427 241 425 237 c 0
 422 231 422 228 423 208 c 0
 423 190 422 184 421 179 c 1
 419 175 418 168 418 162 c 1
 417 157 416 148 414 142 c 0
 413 137 410 129 409 125 c 0
 408 120 404 113 401 108 c 0
 397 102 395 96 394 92 c 0
 393 88 392 82 390 79 c 0
 389 76 384 70 380 65 c 0
 375 60 371 56 371 55 c 0
 371 54 370 51 368 48 c 1
 365 46 362 43 360 42 c 0
 358 41 352 36 348 32 c 0
 344 27 336 21 332 19 c 0
 327 17 321 14 318 14 c 1
 316 13 311 12 309 11 c 0
 307 10 300 7 295 5 c 0
 290 3 282 1 278 -1 c 1
 273 -2 261 -3 244 -4 c 0
 227 -4 215 -6 211 -7 c 0
 207 -8 199 -9 191 -9 c 0
 184 -9 177 -8 177 -8 c 2
 176 -7 170 -5 163 -3 c 1
 157 0 149 2 145 2 c 0
 141 3 136 4 132 5 c 0
 129 6 123 7 120 7 c 0
 116 7 113 8 109 12 c 0
 106 15 101 18 98 20 c 0
 96 22 93 23 92 23 c 0
 91 23 86 28 80 34 c 0
 74 39 68 44 67 44 c 0
 66 44 60 50 53 57 c 0
 45 64 38 73 36 77 c 0
 34 81 31 88 31 92 c 0
 30 96 28 100 28 101 c 1
 27 101 24 107 22 114 c 0
 19 121 17 129 16 135 c 0
 16 140 14 148 13 151 c 0
 12 155 10 159 10 160 c 1
 9 160 8 172 8 186 c 0
 8 204 8 212 9 213 c 0
 10 214 12 219 13 223 c 0
 14 228 16 231 17 232 c 0
 19 233 26 233 38 232 c 0
 57 231 57 231 65 236 c 0
 70 240 73 241 76 240 c 0
 79 240 82 239 85 239 c 0
 88 238 90 238 92 240 c 0
 94 242 95 244 95 245 c 0
 95 246 97 248 99 249 c 0
 102 251 105 253 107 253 c 0
 109 253 112 252 114 250 c 1
 117 249 121 247 123 245 c 0
 126 243 130 240 131 238 c 1
 133 237 136 232 138 229 c 0
 139 226 141 218 142 212 c 0
 143 204 143 197 142 190 c 0
 141 185 141 176 141 171 c 0
 142 166 144 157 146 150 c 0
 149 142 152 136 155 133 c 0
 157 130 163 126 168 124 c 0
 173 122 179 119 181 117 c 0
 183 115 188 112 192 111 c 0
 196 109 200 107 203 107 c 1
 205 106 210 107 216 109 c 0
 223 112 227 112 233 112 c 0
 238 112 242 111 243 110 c 0
 243 109 246 109 249 109 c 0
 253 109 255 110 259 116 c 1
 264 121 266 125 267 130 c 0
 268 134 269 141 270 145 c 0
 271 149 273 155 275 159 c 0
 277 165 277 170 277 186 c 2
 277 217 l 1
 277 269 l 2
 277 299 277 311 275 315 c 0
 274 318 273 327 273 342 c 0
 273 359 274 366 275 370 c 0
 276 373 278 380 278 387 c 0
 278 395 278 402 276 408 c 0
 274 416 274 419 276 422 c 0
 277 425 277 435 277 444 c 0
 278 453 277 464 276 468 c 0
 275 472 274 478 274 483 c 1
 273 487 274 493 275 499 c 0
 276 505 277 508 276 510 c 0
 275 511 274 519 275 527 c 1
 275 539 274 543 272 546 c 0
 270 549 270 552 271 562 c 0
 271 569 273 579 274 583 c 0
 275 587 276 605 277 622 c 0
 278 635 278 644 278 650 c 0
 278 656 278 659 277 663 c 0
 276 670 276 674 277 680 c 0
 278 685 280 693 282 698 c 0
 285 705 287 710 293 715 c 1
 297 720 302 724 304 725 c 0
EndSplineSet
Validated: 1
EndChar

StartChar: uni004B
Encoding: 75 75 44
Width: 669
GlyphClass: 2
Flags: HW
LayerCount: 2
Fore
SplineSet
508 727 m 0
 511 728 520 729 528 729 c 0
 538 729 543 728 546 727 c 0
 549 725 554 724 559 724 c 1
 563 723 568 722 569 721 c 0
 570 720 576 719 583 719 c 0
 590 719 600 719 606 718 c 0
 611 718 617 717 618 716 c 1
 620 716 622 714 623 713 c 0
 625 710 624 708 622 702 c 0
 620 699 619 693 619 689 c 0
 619 684 618 682 612 676 c 0
 608 673 602 666 598 661 c 0
 594 656 586 649 580 644 c 0
 574 640 565 632 560 626 c 0
 555 621 551 616 551 615 c 2
 547 609 l 2
 544 606 538 598 532 592 c 0
 527 586 519 578 516 575 c 0
 512 571 508 566 506 564 c 0
 504 561 500 557 497 555 c 0
 494 553 487 546 482 540 c 0
 477 534 468 522 462 514 c 0
 456 507 451 499 450 498 c 0
 450 497 448 494 446 491 c 0
 444 488 438 480 432 474 c 0
 426 467 412 454 402 443 c 1
 391 433 379 421 376 418 c 1
 371 415 368 411 367 407 c 1
 367 396 l 1
 368 393 370 389 372 386 c 0
 373 384 375 382 375 381 c 2
 375 381 379 374 385 367 c 0
 391 360 399 352 403 348 c 0
 407 345 414 338 418 332 c 0
 422 327 426 322 426 321 c 0
 427 320 432 313 438 306 c 0
 444 299 453 290 457 285 c 0
 461 281 469 271 474 263 c 0
 479 255 484 248 485 248 c 0
 486 248 489 245 493 240 c 0
 496 236 503 229 507 226 c 0
 512 222 518 216 520 214 c 0
 523 211 528 205 530 201 c 0
 532 197 536 191 539 188 c 2
 545 184 l 2
 546 184 549 181 552 179 c 0
 555 176 558 171 560 167 c 0
 562 164 564 159 566 157 c 0
 567 155 569 152 569 151 c 0
 570 150 571 148 572 146 c 0
 573 144 576 140 579 137 c 0
 582 133 587 126 589 122 c 0
 593 116 595 114 600 113 c 0
 604 112 608 110 611 109 c 0
 614 108 617 104 622 95 c 1
 625 87 632 78 636 73 c 0
 641 68 647 61 650 57 c 0
 652 54 657 49 659 47 c 0
 661 45 665 39 667 35 c 0
 669 31 670 26 670 24 c 0
 670 22 669 19 669 17 c 0
 668 15 666 13 664 12 c 0
 663 11 659 8 655 7 c 0
 649 4 644 3 625 2 c 0
 612 1 599 1 595 1 c 0
 592 1 577 2 563 2 c 0
 546 3 535 5 531 6 c 1
 528 8 523 9 521 9 c 0
 518 9 514 10 512 11 c 0
 510 13 505 17 502 20 c 0
 499 24 494 29 492 33 c 1
 489 36 486 41 483 43 c 1
 476 54 l 2
 474 58 467 66 460 73 c 0
 453 80 446 88 443 91 c 0
 441 94 436 100 432 104 c 1
 429 109 425 114 425 115 c 0
 424 117 420 122 416 126 c 1
 413 131 407 137 405 140 c 2
 395 154 l 2
 392 159 383 168 376 175 c 0
 368 183 363 189 362 192 c 0
 362 194 361 198 360 200 c 0
 359 202 348 214 336 227 c 0
 325 239 312 253 308 258 c 0
 304 262 299 270 297 274 c 0
 296 278 293 283 292 284 c 0
 291 286 285 295 278 304 c 0
 271 314 264 322 260 324 c 0
 257 326 253 328 251 329 c 0
 249 330 245 333 244 335 c 0
 242 338 238 341 235 343 c 0
 232 345 228 347 225 348 c 0
 221 349 219 349 216 347 c 0
 214 346 211 344 210 342 c 0
 209 340 208 334 208 322 c 1
 209 313 209 301 209 296 c 2
 209 279 l 2
 209 275 208 263 207 252 c 0
 206 239 206 232 207 229 c 0
 208 226 209 215 210 205 c 0
 211 194 212 168 213 146 c 1
 213 113 213 106 211 100 c 0
 210 96 209 91 209 88 c 0
 209 86 210 81 211 79 c 0
 213 75 214 69 214 42 c 0
 214 16 214 10 212 8 c 0
 211 7 208 5 207 4 c 0
 205 3 188 2 151 2 c 0
 98 2 98 2 93 7 c 0
 90 9 86 14 84 18 c 0
 81 23 81 26 81 42 c 0
 81 57 80 62 78 68 c 0
 75 76 75 78 76 84 c 0
 77 88 77 99 77 113 c 0
 77 126 76 147 76 160 c 2
 76 188 l 2
 76 190 76 205 75 222 c 0
 74 243 74 253 72 256 c 0
 71 258 70 266 70 284 c 0
 70 290 70 295 70 299 c 0
 70 309 71 312 72 318 c 0
 75 326 75 327 73 337 c 0
 72 345 72 349 73 355 c 0
 74 361 74 365 73 370 c 0
 72 373 71 376 70 377 c 0
 70 378 69 398 69 421 c 0
 69 458 69 464 71 468 c 0
 72 471 73 475 73 478 c 0
 73 481 72 484 71 487 c 0
 70 490 69 504 68 550 c 0
 68 582 67 612 67 616 c 0
 67 619 68 638 68 656 c 0
 69 687 70 690 73 701 c 1
 76 708 79 713 81 715 c 0
 83 716 88 718 93 720 c 1
 100 721 102 721 110 720 c 1
 116 718 125 718 141 718 c 1
 156 719 166 720 169 721 c 0
 172 722 177 723 180 723 c 0
 184 723 187 722 193 715 c 1
 198 711 203 704 204 701 c 0
 207 695 207 691 207 646 c 0
 207 605 207 596 205 591 c 0
 204 588 203 581 203 574 c 0
 203 566 204 559 205 556 c 0
 207 552 207 544 207 517 c 0
 207 495 208 475 209 463 c 1
 211 452 212 441 213 438 c 0
 214 435 216 431 217 430 c 0
 219 429 220 429 225 431 c 0
 228 432 233 435 236 437 c 0
 240 440 243 444 243 447 c 1
 244 449 249 456 258 465 c 0
 266 472 273 480 273 481 c 0
 274 483 277 488 280 493 c 0
 283 497 288 503 290 507 c 0
 292 510 295 514 298 516 c 2
 310 528 l 2
 314 532 320 540 324 544 c 1
 327 549 331 554 332 556 c 0
 332 557 335 560 337 561 c 0
 339 563 342 564 344 565 c 0
 346 566 349 567 350 568 c 0
 352 570 355 575 358 580 c 0
 361 585 368 594 373 601 c 0
 379 608 384 615 385 616 c 0
 385 617 386 619 387 619 c 1
 387 620 390 623 392 626 c 0
 395 629 398 634 400 637 c 0
 403 640 416 655 430 669 c 0
 444 684 456 698 458 700 c 1
 459 703 464 708 467 712 c 0
 471 716 477 720 480 722 c 1
 484 723 490 725 494 725 c 0
 498 725 505 726 508 727 c 0
EndSplineSet
Validated: 1
EndChar

StartChar: uni004C
Encoding: 76 76 45
Width: 597
GlyphClass: 2
Flags: HW
LayerCount: 2
Fore
SplineSet
115 721 m 0
 118 722 122 723 123 723 c 0
 125 723 127 722 129 722 c 1
 130 721 139 720 151 720 c 0
 161 720 173 719 177 719 c 1
 180 718 186 715 189 714 c 0
 193 712 197 709 198 707 c 0
 200 705 203 701 204 699 c 2
 211 689 l 2
 212 686 214 681 214 679 c 0
 214 676 215 671 216 668 c 0
 217 665 218 657 218 652 c 0
 218 645 217 638 215 633 c 0
 213 627 212 621 212 603 c 0
 212 587 213 578 215 571 c 0
 216 565 217 559 216 550 c 0
 216 544 215 536 215 533 c 0
 214 530 214 512 213 495 c 1
 213 466 213 461 216 454 c 0
 217 450 218 447 218 440 c 0
 218 435 217 428 217 417 c 0
 217 401 216 383 216 378 c 1
 217 374 216 366 215 361 c 0
 214 355 214 351 216 344 c 0
 217 337 218 328 218 312 c 0
 218 295 218 288 216 285 c 0
 215 283 214 278 213 275 c 0
 212 270 213 264 215 256 c 0
 217 247 219 236 219 222 c 1
 220 210 220 191 220 178 c 1
 219 166 219 150 219 142 c 0
 219 129 219 126 222 123 c 0
 223 122 226 119 228 119 c 1
 229 118 233 116 235 115 c 0
 239 113 249 112 326 112 c 0
 378 112 414 112 417 113 c 0
 420 114 431 115 443 116 c 0
 460 117 464 117 468 115 c 0
 471 113 476 113 482 113 c 2
 506 113 l 1
 516 112 520 112 527 114 c 0
 531 115 539 117 544 117 c 0
 553 118 554 117 559 113 c 0
 562 111 566 108 568 107 c 0
 570 106 573 104 574 102 c 0
 576 99 577 95 577 65 c 0
 577 33 577 31 574 24 c 0
 572 20 569 15 567 12 c 0
 565 10 561 7 558 5 c 0
 553 3 549 3 527 3 c 1
 513 4 499 4 497 4 c 0
 495 4 487 4 480 3 c 0
 472 2 460 0 453 -1 c 0
 445 -2 434 -3 428 -3 c 0
 422 -3 412 -2 405 -0 c 0
 396 2 390 3 385 2 c 0
 381 2 375 0 372 -1 c 0
 367 -3 362 -3 344 -2 c 0
 332 -2 312 -1 299 -0 c 0
 286 0 275 1 274 2 c 0
 273 2 268 2 264 -0 c 0
 259 -2 252 -2 235 -2 c 2
 206 -2 l 1
 175 -2 l 2
 166 -2 161 -3 156 -3 c 0
 150 -3 146 -2 141 -1 c 0
 134 2 132 2 125 -0 c 0
 121 -1 115 -2 111 -3 c 0
 107 -3 104 -2 100 -0 c 0
 96 1 92 5 89 7 c 1
 87 10 84 14 82 16 c 0
 80 20 80 26 79 65 c 0
 79 103 78 111 76 115 c 0
 74 118 74 121 75 127 c 0
 75 131 76 136 76 139 c 0
 76 141 75 149 75 157 c 0
 74 167 74 172 76 177 c 0
 78 182 78 185 77 189 c 0
 76 193 76 199 76 204 c 0
 76 210 75 224 75 236 c 0
 74 252 74 259 76 264 c 0
 77 267 78 278 78 288 c 0
 78 298 79 314 79 323 c 2
 79 362 l 1
 79 478 l 2
 79 534 78 571 77 574 c 0
 76 576 76 580 77 586 c 0
 78 590 79 594 79 595 c 0
 79 596 79 600 78 606 c 0
 76 613 76 616 77 620 c 0
 78 624 78 634 78 647 c 1
 77 658 76 669 76 670 c 0
 75 672 74 677 74 681 c 0
 74 687 75 692 77 696 c 0
 78 699 82 705 85 708 c 0
 88 711 93 714 96 716 c 0
 99 717 104 719 106 719 c 0
 109 719 113 720 115 721 c 0
EndSplineSet
Validated: 1
EndChar

StartChar: uni004D
Encoding: 77 77 46
Width: 840
GlyphClass: 2
Flags: HW
LayerCount: 2
Fore
SplineSet
88 724 m 0
 90 724 108 724 128 723 c 1
 149 723 171 722 178 722 c 0
 184 722 193 722 197 721 c 0
 201 721 208 722 214 723 c 0
 219 724 230 725 238 725 c 0
 249 725 254 724 256 722 c 0
 258 721 262 718 264 716 c 0
 267 714 269 708 272 699 c 0
 275 692 278 681 279 676 c 0
 280 671 283 662 285 657 c 0
 287 652 290 645 292 641 c 0
 293 638 295 634 295 632 c 0
 295 631 297 624 300 617 c 0
 303 607 305 600 306 591 c 0
 307 583 308 578 310 575 c 0
 312 573 314 568 315 564 c 0
 316 561 318 553 319 547 c 0
 320 539 322 534 325 529 c 1
 328 526 330 521 330 517 c 0
 331 513 333 506 336 502 c 0
 339 497 340 492 340 488 c 0
 340 485 341 479 343 476 c 0
 345 472 347 467 348 463 c 0
 348 459 350 456 350 455 c 0
 351 454 352 450 353 446 c 0
 353 442 355 437 356 434 c 0
 357 432 358 427 358 422 c 1
 359 418 361 412 362 409 c 0
 364 406 366 399 367 394 c 0
 368 389 370 382 370 378 c 1
 371 375 372 371 373 368 c 0
 374 366 376 360 378 356 c 0
 379 352 381 344 381 338 c 0
 382 332 385 322 387 315 c 0
 389 309 393 298 396 292 c 0
 399 285 402 272 404 262 c 0
 406 251 408 241 409 239 c 0
 410 236 411 231 412 228 c 0
 414 221 415 221 420 221 c 0
 425 221 427 222 431 227 c 0
 433 231 436 236 436 239 c 0
 437 242 439 249 441 253 c 0
 443 258 445 264 445 267 c 0
 445 269 446 273 447 275 c 0
 448 277 450 281 452 284 c 1
 453 288 455 293 455 297 c 0
 455 300 456 307 457 311 c 0
 458 316 461 325 464 332 c 0
 466 339 469 350 471 356 c 0
 473 362 475 370 476 375 c 0
 477 379 478 384 478 385 c 0
 478 386 481 392 483 397 c 0
 486 403 489 412 490 416 c 0
 491 420 492 428 492 432 c 0
 493 436 495 444 497 448 c 0
 499 452 501 459 502 464 c 0
 502 469 504 475 505 479 c 0
 507 483 508 487 509 488 c 2
 511 492 l 2
 511 493 512 497 514 500 c 1
 515 504 517 511 518 515 c 0
 519 519 520 524 522 527 c 0
 523 529 525 534 527 538 c 0
 528 542 530 547 530 549 c 0
 530 550 532 558 536 566 c 1
 539 575 542 585 543 589 c 0
 543 593 545 600 546 604 c 0
 548 608 550 613 550 614 c 1
 551 614 552 618 553 622 c 0
 554 625 556 630 557 633 c 0
 558 636 560 641 561 645 c 0
 561 649 563 657 565 663 c 0
 566 669 569 677 571 681 c 0
 572 684 576 692 580 697 c 0
 583 702 588 708 591 711 c 0
 594 713 600 717 606 719 c 0
 615 722 618 722 651 722 c 1
 671 723 689 723 693 724 c 0
 696 724 711 724 727 723 c 0
 750 722 757 721 761 719 c 0
 766 717 768 715 772 706 c 0
 776 698 777 695 777 687 c 2
 777 647 l 1
 777 607 l 1
 776 602 776 578 776 553 c 0
 776 529 777 489 777 464 c 0
 778 434 778 418 780 415 c 1
 781 411 781 406 781 398 c 1
 780 391 779 378 778 370 c 0
 777 364 776 357 776 350 c 0
 776 345 777 341 777 336 c 0
 777 326 777 303 776 284 c 0
 776 273 775 265 775 258 c 0
 775 248 776 242 777 235 c 1
 777 227 779 214 780 208 c 0
 780 204 781 199 781 193 c 0
 781 187 780 179 780 170 c 0
 780 162 779 154 779 145 c 0
 779 136 780 127 780 119 c 0
 780 105 781 85 781 74 c 0
 781 60 780 54 779 51 c 0
 778 49 777 44 777 39 c 0
 777 33 775 27 773 23 c 1
 772 18 768 12 765 8 c 0
 762 4 758 1 755 0 c 0
 753 -1 747 -2 742 -2 c 0
 735 -3 731 -3 727 -1 c 0
 723 1 721 1 714 0 c 1
 708 -2 705 -2 700 0 c 1
 697 0 690 2 685 2 c 0
 680 3 674 4 671 6 c 0
 669 8 665 12 663 15 c 0
 660 19 659 21 659 29 c 0
 659 33 660 38 660 46 c 0
 660 52 660 57 660 61 c 0
 660 71 660 77 659 83 c 0
 657 92 657 96 658 100 c 0
 659 103 659 140 660 188 c 1
 660 250 661 273 662 277 c 0
 664 281 664 283 662 290 c 0
 661 295 661 302 661 311 c 1
 662 318 662 328 662 333 c 2
 662 428 l 2
 662 496 662 517 664 529 c 0
 665 538 666 546 665 549 c 0
 664 551 663 556 662 558 c 0
 661 561 661 566 661 568 c 0
 661 571 660 575 659 577 c 0
 658 579 657 581 656 580 c 2
 651 575 l 2
 649 572 647 569 647 568 c 2
 647 568 645 564 642 560 c 0
 639 556 636 550 634 547 c 1
 633 543 631 535 631 530 c 0
 630 524 628 518 627 515 c 1
 625 513 624 508 623 505 c 0
 623 502 620 492 616 484 c 1
 613 475 610 466 608 463 c 0
 607 461 606 455 605 451 c 0
 605 447 604 442 603 442 c 1
 603 441 601 436 599 430 c 0
 597 424 594 418 593 416 c 0
 591 414 589 408 588 403 c 0
 586 397 585 390 584 386 c 0
 583 382 581 375 580 372 c 0
 579 368 577 362 576 357 c 0
 575 353 572 343 569 335 c 0
 566 327 564 320 563 319 c 0
 562 318 560 314 558 310 c 0
 556 307 554 300 553 296 c 0
 552 292 551 287 550 285 c 0
 549 283 547 278 547 274 c 0
 546 270 545 265 544 262 c 0
 542 259 542 254 542 250 c 0
 542 245 540 240 539 236 c 0
 537 232 535 227 535 224 c 1
 534 222 533 217 532 214 c 0
 530 211 528 205 527 202 c 0
 525 198 524 195 524 194 c 2
 524 194 523 190 521 187 c 0
 520 184 518 179 517 176 c 0
 517 173 514 165 511 158 c 0
 509 151 506 141 505 137 c 0
 504 132 502 123 499 117 c 0
 497 111 494 105 494 102 c 1
 493 100 491 96 488 93 c 0
 484 89 483 86 482 78 c 0
 482 73 481 64 481 59 c 0
 481 53 480 48 478 44 c 0
 476 40 474 37 474 37 c 2
 473 36 472 34 472 32 c 0
 471 30 469 25 468 22 c 0
 466 17 463 13 459 11 c 0
 455 8 448 4 443 2 c 0
 434 -3 432 -3 418 -3 c 0
 410 -3 400 -2 395 -1 c 0
 390 0 384 1 380 1 c 0
 376 1 371 3 367 5 c 0
 362 7 359 10 357 15 c 0
 355 18 352 25 350 29 c 0
 348 34 346 39 345 42 c 0
 344 44 343 51 343 57 c 1
 342 62 341 69 340 72 c 0
 339 75 336 81 335 87 c 0
 334 92 332 103 331 111 c 0
 330 120 328 127 327 129 c 1
 325 130 323 135 321 140 c 0
 320 144 318 150 317 153 c 0
 317 156 315 161 314 163 c 0
 312 166 310 172 309 178 c 0
 308 183 306 192 305 197 c 0
 303 202 302 209 301 212 c 0
 301 215 299 220 298 224 c 1
 296 227 295 232 295 233 c 0
 295 235 292 244 289 254 c 0
 285 264 280 279 278 287 c 1
 275 294 272 305 270 310 c 0
 269 315 267 323 267 327 c 0
 266 331 264 337 263 340 c 0
 262 343 259 350 258 355 c 0
 256 360 255 367 254 370 c 1
 254 374 252 379 251 381 c 0
 250 384 248 389 248 392 c 0
 247 395 245 399 245 399 c 2
 244 399 242 403 240 406 c 1
 239 410 237 416 237 419 c 0
 237 422 235 431 233 438 c 0
 230 446 228 453 227 453 c 0
 226 454 225 457 225 460 c 0
 225 463 224 468 223 471 c 0
 222 474 220 481 219 486 c 1
 217 490 216 496 215 497 c 0
 214 499 212 505 211 510 c 0
 210 515 209 523 208 527 c 0
 207 531 205 537 203 539 c 1
 202 542 198 551 194 558 c 0
 190 566 187 573 187 574 c 0
 187 575 186 577 184 579 c 0
 183 581 181 582 179 582 c 0
 178 582 176 580 175 578 c 0
 174 576 174 571 175 566 c 0
 175 561 176 556 176 553 c 0
 176 551 175 540 175 528 c 1
 174 517 173 505 173 503 c 0
 172 501 171 495 171 490 c 2
 171 477 l 1
 171 455 l 2
 171 446 171 434 170 428 c 0
 168 421 168 417 170 410 c 1
 170 406 171 393 171 383 c 0
 171 377 172 371 172 364 c 0
 172 357 171 351 171 346 c 0
 171 336 172 325 172 321 c 0
 173 316 173 309 172 299 c 0
 171 292 169 284 169 283 c 0
 168 282 167 280 166 278 c 0
 166 276 166 272 168 269 c 1
 169 265 170 259 170 246 c 0
 170 235 170 225 172 217 c 0
 174 206 174 206 171 192 c 0
 168 180 168 177 170 170 c 0
 171 166 171 161 171 158 c 1
 170 156 169 135 169 113 c 0
 168 89 167 69 167 66 c 0
 166 62 165 56 166 50 c 0
 166 45 166 37 165 32 c 0
 164 27 162 20 161 16 c 0
 160 13 157 9 156 7 c 0
 154 5 150 3 147 2 c 1
 143 2 138 0 135 -1 c 0
 132 -2 125 -3 120 -4 c 0
 115 -4 103 -4 94 -3 c 0
 80 -2 78 -2 71 3 c 0
 67 6 64 10 64 10 c 2
 64 11 63 13 62 14 c 0
 61 15 59 20 57 24 c 1
 56 29 55 38 55 54 c 0
 55 67 55 95 54 117 c 0
 54 139 53 166 53 178 c 0
 54 191 55 204 56 208 c 0
 57 213 57 219 56 231 c 0
 55 239 55 249 55 252 c 2
 55 297 l 2
 55 328 55 337 57 342 c 0
 59 348 59 350 57 355 c 0
 56 359 55 368 54 375 c 0
 53 387 54 390 57 400 c 0
 60 411 60 412 60 481 c 0
 60 520 61 560 62 570 c 0
 62 580 63 593 63 597 c 0
 63 602 63 608 62 611 c 1
 62 621 l 1
 62 649 l 2
 62 661 62 676 63 683 c 0
 63 689 64 696 64 699 c 1
 65 701 66 705 67 708 c 0
 68 710 69 713 71 715 c 0
 72 716 76 719 79 720 c 0
 82 722 86 723 88 724 c 0
EndSplineSet
Validated: 1
EndChar

StartChar: uni004E
Encoding: 78 78 47
Width: 747
GlyphClass: 2
Flags: HW
LayerCount: 2
Fore
SplineSet
94 725 m 0
 99 727 106 728 108 728 c 0
 110 728 114 727 118 726 c 0
 122 725 133 725 148 725 c 1
 161 726 174 727 177 727 c 0
 180 728 188 729 194 729 c 0
 202 729 208 728 210 727 c 0
 213 726 217 725 219 725 c 0
 222 725 226 725 228 726 c 0
 231 728 234 728 243 725 c 0
 249 724 256 722 258 720 c 0
 259 719 263 714 265 709 c 0
 267 704 270 697 272 693 c 0
 273 690 277 683 281 680 c 0
 285 676 289 668 292 663 c 0
 294 658 296 653 296 652 c 0
 296 651 298 647 301 643 c 0
 304 639 308 631 311 624 c 0
 313 618 316 610 318 606 c 0
 320 603 321 599 321 599 c 1
 321 599 324 594 327 590 c 0
 330 585 333 581 333 580 c 0
 333 579 336 575 339 571 c 0
 342 568 346 561 348 557 c 0
 349 554 354 544 358 537 c 1
 361 529 366 521 367 519 c 0
 368 516 372 511 374 508 c 0
 377 505 381 496 384 489 c 0
 386 482 389 474 389 472 c 0
 390 469 393 464 396 461 c 0
 399 458 403 452 407 446 c 0
 410 441 414 434 416 429 c 2
 422 417 l 2
 423 415 428 406 432 398 c 0
 437 389 441 380 442 379 c 0
 443 378 445 375 446 373 c 0
 447 371 448 367 449 363 c 0
 450 359 451 356 452 355 c 0
 453 354 454 351 454 348 c 0
 455 345 458 339 461 335 c 0
 463 331 467 326 469 323 c 0
 471 320 473 316 473 313 c 1
 474 311 476 305 478 302 c 0
 480 298 483 294 484 292 c 0
 485 290 488 286 490 283 c 0
 492 280 495 274 497 271 c 0
 499 268 501 263 502 260 c 0
 503 257 506 251 509 247 c 0
 513 242 518 234 520 228 c 0
 523 222 527 213 529 209 c 0
 531 205 534 199 536 194 c 0
 537 190 541 183 544 179 c 1
 546 174 550 169 552 168 c 0
 555 166 557 166 559 167 c 0
 561 168 562 170 562 171 c 0
 563 172 563 177 563 181 c 0
 563 186 564 196 565 203 c 0
 567 213 567 227 567 250 c 0
 567 268 566 285 565 288 c 0
 564 292 564 296 564 299 c 1
 565 301 565 315 565 330 c 0
 565 348 565 360 564 364 c 0
 563 366 562 371 562 378 c 0
 562 383 563 390 563 399 c 0
 563 415 564 430 564 432 c 0
 564 434 563 441 562 447 c 0
 561 454 560 462 560 466 c 0
 560 469 561 480 562 489 c 0
 562 498 562 508 561 513 c 0
 560 518 560 529 561 544 c 0
 562 563 561 568 559 575 c 0
 558 579 557 586 557 589 c 2
 557 601 l 2
 557 602 557 605 557 609 c 0
 557 619 557 636 556 655 c 0
 556 666 556 675 556 682 c 0
 556 699 556 705 557 708 c 0
 558 710 561 714 563 716 c 0
 565 718 569 721 572 722 c 0
 574 723 581 725 586 726 c 0
 591 727 610 728 627 728 c 0
 638 728 646 729 651 729 c 0
 659 729 661 728 663 727 c 0
 666 726 670 722 672 719 c 1
 675 717 677 713 677 712 c 2
 677 651 l 1
 678 604 678 592 680 589 c 0
 681 586 682 577 682 546 c 0
 682 532 683 524 683 517 c 0
 683 506 682 502 680 497 c 0
 677 489 677 486 678 470 c 0
 679 459 680 450 681 449 c 0
 682 448 683 429 683 374 c 0
 683 306 683 302 680 297 c 0
 678 293 678 289 678 274 c 0
 678 260 678 255 680 252 c 0
 682 249 683 244 683 237 c 0
 683 232 682 224 680 219 c 0
 677 212 677 209 678 196 c 0
 679 187 680 179 681 178 c 0
 682 176 683 164 683 152 c 0
 683 134 682 126 680 122 c 0
 679 118 678 111 678 103 c 1
 679 96 680 87 681 83 c 0
 682 78 683 68 683 52 c 0
 683 30 682 28 679 19 c 0
 677 14 674 8 673 6 c 0
 671 4 667 2 664 0 c 0
 659 -3 657 -3 586 -3 c 0
 514 -3 514 -3 504 1 c 1
 497 5 492 8 487 15 c 0
 483 19 476 30 472 37 c 0
 468 45 462 54 459 59 c 0
 456 63 453 68 452 71 c 1
 450 73 446 84 443 95 c 0
 437 115 437 115 427 125 c 0
 419 132 416 137 412 145 c 0
 410 150 405 160 402 167 c 0
 399 173 394 184 392 190 c 0
 390 197 387 205 385 209 c 0
 383 213 381 216 380 217 c 0
 379 217 378 219 377 221 c 0
 376 223 374 227 372 230 c 0
 370 233 368 237 367 238 c 0
 367 239 365 242 363 245 c 0
 361 247 358 252 357 256 c 1
 355 259 352 263 351 264 c 0
 350 265 349 267 347 269 c 0
 346 271 344 276 343 281 c 0
 342 285 340 291 339 294 c 0
 337 297 334 301 332 303 c 0
 329 306 326 310 325 313 c 0
 324 316 322 322 319 326 c 0
 316 331 312 339 309 345 c 0
 306 351 303 359 302 363 c 0
 301 367 300 371 299 371 c 0
 298 371 297 374 297 378 c 0
 296 382 294 386 288 392 c 0
 283 398 280 403 279 407 c 0
 279 410 276 417 273 422 c 1
 271 428 268 435 267 438 c 0
 266 441 263 445 260 448 c 0
 258 451 254 456 252 458 c 1
 251 461 249 463 249 464 c 2
 249 464 246 471 242 479 c 0
 238 487 232 497 230 500 c 0
 228 503 225 508 224 510 c 0
 223 512 221 516 220 519 c 0
 220 522 218 527 217 530 c 0
 215 533 214 537 214 538 c 0
 214 540 211 544 207 549 c 0
 203 554 199 561 198 565 c 0
 197 569 194 574 192 576 c 0
 190 577 188 579 187 579 c 0
 186 579 184 578 183 578 c 0
 182 577 181 575 181 572 c 0
 181 570 182 561 182 553 c 0
 183 541 183 537 181 532 c 0
 179 528 178 523 178 520 c 0
 178 517 179 513 181 510 c 0
 183 505 183 501 184 470 c 0
 184 446 185 434 186 431 c 0
 187 428 188 416 188 391 c 0
 188 371 189 302 189 237 c 0
 189 171 190 117 191 116 c 0
 191 115 192 102 192 88 c 0
 192 73 192 56 193 50 c 0
 195 42 195 36 193 29 c 0
 192 23 191 17 191 16 c 0
 191 15 190 13 190 12 c 0
 190 11 189 9 187 7 c 0
 185 5 182 2 180 1 c 0
 178 0 166 -1 153 -3 c 1
 139 -4 122 -4 111 -4 c 1
 101 -3 91 -2 89 -1 c 0
 87 0 83 2 81 4 c 0
 79 6 76 10 75 12 c 0
 74 14 74 38 73 68 c 0
 73 97 72 123 72 126 c 0
 71 129 71 138 72 149 c 0
 73 157 74 162 74 167 c 0
 74 172 73 177 72 185 c 0
 70 198 70 204 71 207 c 0
 72 209 73 220 74 232 c 0
 74 244 75 254 76 255 c 0
 77 256 76 260 76 264 c 0
 75 268 74 323 73 408 c 0
 73 484 72 563 72 584 c 0
 72 605 71 632 70 644 c 0
 70 651 69 657 69 663 c 0
 69 669 70 673 70 676 c 0
 70 682 71 687 72 688 c 0
 72 689 73 694 74 700 c 0
 75 709 76 713 79 716 c 0
 82 720 85 722 94 725 c 0
EndSplineSet
Validated: 1
EndChar

